*
*
G04 PADS 9.3.1 Build Number: 456998 generated Gerber (RS-274-X) file*
G04 PC Version=2.1*
*
%IN "Klytus_Routed.pcb"*%
*
%MOIN*%
*
%FSLAX35Y35*%
*
*
*
*
G04 PC Standard Apertures*
*
*
G04 Thermal Relief Aperture macro.*
%AMTER*
1,1,$1,0,0*
1,0,$1-$2,0,0*
21,0,$3,$4,0,0,45*
21,0,$3,$4,0,0,135*
%
*
*
G04 Annular Aperture macro.*
%AMANN*
1,1,$1,0,0*
1,0,$2,0,0*
%
*
*
G04 Odd Aperture macro.*
%AMODD*
1,1,$1,0,0*
1,0,$1-0.005,0,0*
%
*
*
G04 PC Custom Aperture Macros*
*
*
*
*
*
*
G04 PC Aperture Table*
*
%ADD010C,0.001*%
%ADD012C,0.06*%
%ADD014C,0.01*%
%ADD017C,0.015*%
*
*
*
*
G04 PC Circuitry*
G04 Layer Name Klytus_Routed.pcb - circuitry*
%LPD*%
*
*
G04 PC Custom Flashes*
G04 Layer Name Klytus_Routed.pcb - flashes*
%LPD*%
*
*
G04 PC Circuitry*
G04 Layer Name Klytus_Routed.pcb - circuitry*
%LPD*%
*
G54D10*
G54D12*
G01X2154843Y1644370D03*
X2144843D03*
X2134843D03*
X2124843D03*
X2114843D03*
X2104843D03*
X2094843D03*
X2084843D03*
X2074843D03*
X2064843D03*
X2054843D03*
X2044843D03*
X2034843D03*
X2024843D03*
X2014843D03*
X2004843D03*
X1994843D03*
X1984843D03*
X1974843D03*
X1964843D03*
X1954843D03*
X1944843D03*
X1934843D03*
X1924843D03*
X1914843D03*
X1904843D03*
X1894843D03*
X1884843D03*
X1874843D03*
X1864843D03*
X1854843D03*
X1844843D03*
X2154843Y1557756D03*
X2144843D03*
X2134843D03*
X2124843D03*
X2114843D03*
X2104843D03*
X2094843D03*
X2084843D03*
X2074843D03*
X2064843D03*
X2054843D03*
X2044843D03*
X2034843D03*
X2024843D03*
X2014843D03*
X2004843D03*
X1994843D03*
X1984843D03*
X1974843D03*
X1964843D03*
X1954843D03*
X1944843D03*
X1934843D03*
X1924843D03*
X1914843D03*
X1904843D03*
X1894843D03*
X1884843D03*
X1874843D03*
X1864843D03*
X1854843D03*
X1844843D03*
X2155236Y1520512D03*
X2145236D03*
X2135236D03*
X2125236D03*
X2115236D03*
X2105236D03*
X2095236D03*
X2085236D03*
X2075236D03*
X2065236D03*
X2055236D03*
X2045236D03*
X2035236D03*
X2025236D03*
X2015236D03*
X2005236D03*
X1995236D03*
X1985236D03*
X1975236D03*
X1965236D03*
X1955236D03*
X1945236D03*
X1935236D03*
X1925236D03*
X1915236D03*
X1905236D03*
X1895236D03*
X1885236D03*
X1875236D03*
X1865236D03*
X1855236D03*
X1845236D03*
X2155236Y1701614D03*
X2145236D03*
X2135236D03*
X2125236D03*
X2115236D03*
X2105236D03*
X2095236D03*
X2085236D03*
X2075236D03*
X2065236D03*
X2055236D03*
X2045236D03*
X2035236D03*
X2025236D03*
X2015236D03*
X2005236D03*
X1995236D03*
X1985236D03*
X1975236D03*
X1965236D03*
X1955236D03*
X1945236D03*
X1935236D03*
X1925236D03*
X1915236D03*
X1905236D03*
X1895236D03*
X1885236D03*
X1875236D03*
X1865236D03*
X1855236D03*
X1845236D03*
G54D14*
X2159336Y1500512D02*
G75*
G03X2159336I-4100J0D01*
G01Y1510512D02*
G03X2159336I-4100J0D01*
G01Y1520512D02*
G03X2159336I-4100J0D01*
G01X2158943Y1547756D02*
G03X2158943I-4100J0D01*
G01Y1557756D02*
G03X2158943I-4100J0D01*
G01X2159100Y1567835D02*
G03X2159100I-4100J0D01*
G01X2158943Y1634370D02*
G03X2158943I-4100J0D01*
G01Y1644370D02*
G03X2158943I-4100J0D01*
G01X2159100Y1654449D02*
G03X2159100I-4100J0D01*
G01X2159336Y1681614D02*
G03X2159336I-4100J0D01*
G01Y1691614D02*
G03X2159336I-4100J0D01*
G01Y1701614D02*
G03X2159336I-4100J0D01*
G01X2149336Y1500512D02*
G03X2149336I-4100J0D01*
G01Y1510512D02*
G03X2149336I-4100J0D01*
G01Y1520512D02*
G03X2149336I-4100J0D01*
G01X2148943Y1547756D02*
G03X2148943I-4100J0D01*
G01Y1557756D02*
G03X2148943I-4100J0D01*
G01X2149100Y1567835D02*
G03X2149100I-4100J0D01*
G01X2148943Y1634370D02*
G03X2148943I-4100J0D01*
G01Y1644370D02*
G03X2148943I-4100J0D01*
G01X2149100Y1654449D02*
G03X2149100I-4100J0D01*
G01X2149336Y1681614D02*
G03X2149336I-4100J0D01*
G01Y1691614D02*
G03X2149336I-4100J0D01*
G01Y1701614D02*
G03X2149336I-4100J0D01*
G01X2139336Y1500512D02*
G03X2139336I-4100J0D01*
G01Y1510512D02*
G03X2139336I-4100J0D01*
G01Y1520512D02*
G03X2139336I-4100J0D01*
G01X2138943Y1547756D02*
G03X2138943I-4100J0D01*
G01Y1557756D02*
G03X2138943I-4100J0D01*
G01X2139100Y1567835D02*
G03X2139100I-4100J0D01*
G01X2138943Y1634370D02*
G03X2138943I-4100J0D01*
G01Y1644370D02*
G03X2138943I-4100J0D01*
G01X2139100Y1654449D02*
G03X2139100I-4100J0D01*
G01X2139336Y1681614D02*
G03X2139336I-4100J0D01*
G01Y1691614D02*
G03X2139336I-4100J0D01*
G01Y1701614D02*
G03X2139336I-4100J0D01*
G01X2129336Y1500512D02*
G03X2129336I-4100J0D01*
G01Y1510512D02*
G03X2129336I-4100J0D01*
G01Y1520512D02*
G03X2129336I-4100J0D01*
G01X2128943Y1547756D02*
G03X2128943I-4100J0D01*
G01Y1557756D02*
G03X2128943I-4100J0D01*
G01X2129100Y1567835D02*
G03X2129100I-4100J0D01*
G01X2128943Y1634370D02*
G03X2128943I-4100J0D01*
G01Y1644370D02*
G03X2128943I-4100J0D01*
G01X2129100Y1654449D02*
G03X2129100I-4100J0D01*
G01X2129336Y1681614D02*
G03X2129336I-4100J0D01*
G01Y1691614D02*
G03X2129336I-4100J0D01*
G01Y1701614D02*
G03X2129336I-4100J0D01*
G01X2119336Y1500512D02*
G03X2119336I-4100J0D01*
G01Y1510512D02*
G03X2119336I-4100J0D01*
G01Y1520512D02*
G03X2119336I-4100J0D01*
G01X2118943Y1547756D02*
G03X2118943I-4100J0D01*
G01Y1557756D02*
G03X2118943I-4100J0D01*
G01X2119100Y1567835D02*
G03X2119100I-4100J0D01*
G01X2118943Y1634370D02*
G03X2118943I-4100J0D01*
G01Y1644370D02*
G03X2118943I-4100J0D01*
G01X2119100Y1654449D02*
G03X2119100I-4100J0D01*
G01X2119336Y1681614D02*
G03X2119336I-4100J0D01*
G01Y1691614D02*
G03X2119336I-4100J0D01*
G01Y1701614D02*
G03X2119336I-4100J0D01*
G01X2109336Y1500512D02*
G03X2109336I-4100J0D01*
G01Y1510512D02*
G03X2109336I-4100J0D01*
G01Y1520512D02*
G03X2109336I-4100J0D01*
G01X2108943Y1547756D02*
G03X2108943I-4100J0D01*
G01Y1557756D02*
G03X2108943I-4100J0D01*
G01X2109100Y1567835D02*
G03X2109100I-4100J0D01*
G01X2108943Y1634370D02*
G03X2108943I-4100J0D01*
G01Y1644370D02*
G03X2108943I-4100J0D01*
G01X2109100Y1654449D02*
G03X2109100I-4100J0D01*
G01X2109336Y1681614D02*
G03X2109336I-4100J0D01*
G01Y1691614D02*
G03X2109336I-4100J0D01*
G01Y1701614D02*
G03X2109336I-4100J0D01*
G01X2099336Y1500512D02*
G03X2099336I-4100J0D01*
G01Y1510512D02*
G03X2099336I-4100J0D01*
G01Y1520512D02*
G03X2099336I-4100J0D01*
G01X2098943Y1547756D02*
G03X2098943I-4100J0D01*
G01Y1557756D02*
G03X2098943I-4100J0D01*
G01X2099100Y1567835D02*
G03X2099100I-4100J0D01*
G01X2098943Y1634370D02*
G03X2098943I-4100J0D01*
G01Y1644370D02*
G03X2098943I-4100J0D01*
G01X2099100Y1654449D02*
G03X2099100I-4100J0D01*
G01X2099336Y1681614D02*
G03X2099336I-4100J0D01*
G01Y1691614D02*
G03X2099336I-4100J0D01*
G01Y1701614D02*
G03X2099336I-4100J0D01*
G01X2089336Y1500512D02*
G03X2089336I-4100J0D01*
G01Y1510512D02*
G03X2089336I-4100J0D01*
G01Y1520512D02*
G03X2089336I-4100J0D01*
G01X2088943Y1547756D02*
G03X2088943I-4100J0D01*
G01Y1557756D02*
G03X2088943I-4100J0D01*
G01X2089100Y1567835D02*
G03X2089100I-4100J0D01*
G01X2088943Y1634370D02*
G03X2088943I-4100J0D01*
G01Y1644370D02*
G03X2088943I-4100J0D01*
G01X2089100Y1654449D02*
G03X2089100I-4100J0D01*
G01X2089336Y1681614D02*
G03X2089336I-4100J0D01*
G01Y1691614D02*
G03X2089336I-4100J0D01*
G01Y1701614D02*
G03X2089336I-4100J0D01*
G01X2079336Y1500512D02*
G03X2079336I-4100J0D01*
G01Y1510512D02*
G03X2079336I-4100J0D01*
G01Y1520512D02*
G03X2079336I-4100J0D01*
G01X2078943Y1547756D02*
G03X2078943I-4100J0D01*
G01Y1557756D02*
G03X2078943I-4100J0D01*
G01X2079100Y1567835D02*
G03X2079100I-4100J0D01*
G01X2078943Y1634370D02*
G03X2078943I-4100J0D01*
G01Y1644370D02*
G03X2078943I-4100J0D01*
G01X2079100Y1654449D02*
G03X2079100I-4100J0D01*
G01X2079336Y1681614D02*
G03X2079336I-4100J0D01*
G01Y1691614D02*
G03X2079336I-4100J0D01*
G01Y1701614D02*
G03X2079336I-4100J0D01*
G01X2069336Y1500512D02*
G03X2069336I-4100J0D01*
G01Y1510512D02*
G03X2069336I-4100J0D01*
G01Y1520512D02*
G03X2069336I-4100J0D01*
G01X2068943Y1547756D02*
G03X2068943I-4100J0D01*
G01Y1557756D02*
G03X2068943I-4100J0D01*
G01X2069100Y1567835D02*
G03X2069100I-4100J0D01*
G01X2068943Y1634370D02*
G03X2068943I-4100J0D01*
G01Y1644370D02*
G03X2068943I-4100J0D01*
G01X2069100Y1654449D02*
G03X2069100I-4100J0D01*
G01X2069336Y1681614D02*
G03X2069336I-4100J0D01*
G01Y1691614D02*
G03X2069336I-4100J0D01*
G01Y1701614D02*
G03X2069336I-4100J0D01*
G01X2059336Y1500512D02*
G03X2059336I-4100J0D01*
G01Y1510512D02*
G03X2059336I-4100J0D01*
G01Y1520512D02*
G03X2059336I-4100J0D01*
G01X2058943Y1547756D02*
G03X2058943I-4100J0D01*
G01Y1557756D02*
G03X2058943I-4100J0D01*
G01X2059100Y1567835D02*
G03X2059100I-4100J0D01*
G01X2058943Y1634370D02*
G03X2058943I-4100J0D01*
G01Y1644370D02*
G03X2058943I-4100J0D01*
G01X2059100Y1654449D02*
G03X2059100I-4100J0D01*
G01X2059336Y1681614D02*
G03X2059336I-4100J0D01*
G01Y1691614D02*
G03X2059336I-4100J0D01*
G01Y1701614D02*
G03X2059336I-4100J0D01*
G01X2049336Y1500512D02*
G03X2049336I-4100J0D01*
G01Y1510512D02*
G03X2049336I-4100J0D01*
G01Y1520512D02*
G03X2049336I-4100J0D01*
G01X2048943Y1547756D02*
G03X2048943I-4100J0D01*
G01Y1557756D02*
G03X2048943I-4100J0D01*
G01X2049100Y1567835D02*
G03X2049100I-4100J0D01*
G01X2048943Y1634370D02*
G03X2048943I-4100J0D01*
G01Y1644370D02*
G03X2048943I-4100J0D01*
G01X2049100Y1654449D02*
G03X2049100I-4100J0D01*
G01X2049336Y1681614D02*
G03X2049336I-4100J0D01*
G01Y1691614D02*
G03X2049336I-4100J0D01*
G01Y1701614D02*
G03X2049336I-4100J0D01*
G01X2039336Y1500512D02*
G03X2039336I-4100J0D01*
G01Y1510512D02*
G03X2039336I-4100J0D01*
G01Y1520512D02*
G03X2039336I-4100J0D01*
G01X2038943Y1547756D02*
G03X2038943I-4100J0D01*
G01Y1557756D02*
G03X2038943I-4100J0D01*
G01X2039100Y1567835D02*
G03X2039100I-4100J0D01*
G01X2038943Y1634370D02*
G03X2038943I-4100J0D01*
G01Y1644370D02*
G03X2038943I-4100J0D01*
G01X2039100Y1654449D02*
G03X2039100I-4100J0D01*
G01X2039336Y1681614D02*
G03X2039336I-4100J0D01*
G01Y1691614D02*
G03X2039336I-4100J0D01*
G01Y1701614D02*
G03X2039336I-4100J0D01*
G01X2029336Y1500512D02*
G03X2029336I-4100J0D01*
G01Y1510512D02*
G03X2029336I-4100J0D01*
G01Y1520512D02*
G03X2029336I-4100J0D01*
G01X2028943Y1547756D02*
G03X2028943I-4100J0D01*
G01Y1557756D02*
G03X2028943I-4100J0D01*
G01X2029100Y1567835D02*
G03X2029100I-4100J0D01*
G01X2028943Y1634370D02*
G03X2028943I-4100J0D01*
G01Y1644370D02*
G03X2028943I-4100J0D01*
G01X2029100Y1654449D02*
G03X2029100I-4100J0D01*
G01X2029336Y1681614D02*
G03X2029336I-4100J0D01*
G01Y1691614D02*
G03X2029336I-4100J0D01*
G01Y1701614D02*
G03X2029336I-4100J0D01*
G01X2019336Y1500512D02*
G03X2019336I-4100J0D01*
G01Y1510512D02*
G03X2019336I-4100J0D01*
G01Y1520512D02*
G03X2019336I-4100J0D01*
G01X2018943Y1547756D02*
G03X2018943I-4100J0D01*
G01Y1557756D02*
G03X2018943I-4100J0D01*
G01X2019100Y1567835D02*
G03X2019100I-4100J0D01*
G01X2018943Y1634370D02*
G03X2018943I-4100J0D01*
G01Y1644370D02*
G03X2018943I-4100J0D01*
G01X2019100Y1654449D02*
G03X2019100I-4100J0D01*
G01X2019336Y1681614D02*
G03X2019336I-4100J0D01*
G01Y1691614D02*
G03X2019336I-4100J0D01*
G01Y1701614D02*
G03X2019336I-4100J0D01*
G01X2009336Y1500512D02*
G03X2009336I-4100J0D01*
G01Y1510512D02*
G03X2009336I-4100J0D01*
G01Y1520512D02*
G03X2009336I-4100J0D01*
G01X2008943Y1547756D02*
G03X2008943I-4100J0D01*
G01Y1557756D02*
G03X2008943I-4100J0D01*
G01X2009100Y1567835D02*
G03X2009100I-4100J0D01*
G01X2008943Y1634370D02*
G03X2008943I-4100J0D01*
G01Y1644370D02*
G03X2008943I-4100J0D01*
G01X2009100Y1654449D02*
G03X2009100I-4100J0D01*
G01X2009336Y1681614D02*
G03X2009336I-4100J0D01*
G01Y1691614D02*
G03X2009336I-4100J0D01*
G01Y1701614D02*
G03X2009336I-4100J0D01*
G01X1999336Y1500512D02*
G03X1999336I-4100J0D01*
G01Y1510512D02*
G03X1999336I-4100J0D01*
G01Y1520512D02*
G03X1999336I-4100J0D01*
G01X1998943Y1547756D02*
G03X1998943I-4100J0D01*
G01Y1557756D02*
G03X1998943I-4100J0D01*
G01X1999100Y1567835D02*
G03X1999100I-4100J0D01*
G01X1998943Y1634370D02*
G03X1998943I-4100J0D01*
G01Y1644370D02*
G03X1998943I-4100J0D01*
G01X1999100Y1654449D02*
G03X1999100I-4100J0D01*
G01X1999336Y1681614D02*
G03X1999336I-4100J0D01*
G01Y1691614D02*
G03X1999336I-4100J0D01*
G01Y1701614D02*
G03X1999336I-4100J0D01*
G01X1989336Y1500512D02*
G03X1989336I-4100J0D01*
G01Y1510512D02*
G03X1989336I-4100J0D01*
G01Y1520512D02*
G03X1989336I-4100J0D01*
G01X1988943Y1547756D02*
G03X1988943I-4100J0D01*
G01Y1557756D02*
G03X1988943I-4100J0D01*
G01X1989100Y1567835D02*
G03X1989100I-4100J0D01*
G01X1988943Y1634370D02*
G03X1988943I-4100J0D01*
G01Y1644370D02*
G03X1988943I-4100J0D01*
G01X1989100Y1654449D02*
G03X1989100I-4100J0D01*
G01X1989336Y1681614D02*
G03X1989336I-4100J0D01*
G01Y1691614D02*
G03X1989336I-4100J0D01*
G01Y1701614D02*
G03X1989336I-4100J0D01*
G01X1979336Y1500512D02*
G03X1979336I-4100J0D01*
G01Y1510512D02*
G03X1979336I-4100J0D01*
G01Y1520512D02*
G03X1979336I-4100J0D01*
G01X1978943Y1547756D02*
G03X1978943I-4100J0D01*
G01Y1557756D02*
G03X1978943I-4100J0D01*
G01X1979100Y1567835D02*
G03X1979100I-4100J0D01*
G01X1978943Y1634370D02*
G03X1978943I-4100J0D01*
G01Y1644370D02*
G03X1978943I-4100J0D01*
G01X1979100Y1654449D02*
G03X1979100I-4100J0D01*
G01X1979336Y1681614D02*
G03X1979336I-4100J0D01*
G01Y1691614D02*
G03X1979336I-4100J0D01*
G01Y1701614D02*
G03X1979336I-4100J0D01*
G01X1969336Y1500512D02*
G03X1969336I-4100J0D01*
G01Y1510512D02*
G03X1969336I-4100J0D01*
G01Y1520512D02*
G03X1969336I-4100J0D01*
G01X1968943Y1547756D02*
G03X1968943I-4100J0D01*
G01Y1557756D02*
G03X1968943I-4100J0D01*
G01X1969100Y1567835D02*
G03X1969100I-4100J0D01*
G01X1968943Y1634370D02*
G03X1968943I-4100J0D01*
G01Y1644370D02*
G03X1968943I-4100J0D01*
G01X1969100Y1654449D02*
G03X1969100I-4100J0D01*
G01X1969336Y1681614D02*
G03X1969336I-4100J0D01*
G01Y1691614D02*
G03X1969336I-4100J0D01*
G01Y1701614D02*
G03X1969336I-4100J0D01*
G01X1959336Y1500512D02*
G03X1959336I-4100J0D01*
G01Y1510512D02*
G03X1959336I-4100J0D01*
G01Y1520512D02*
G03X1959336I-4100J0D01*
G01X1958943Y1547756D02*
G03X1958943I-4100J0D01*
G01Y1557756D02*
G03X1958943I-4100J0D01*
G01X1959100Y1567835D02*
G03X1959100I-4100J0D01*
G01X1958943Y1634370D02*
G03X1958943I-4100J0D01*
G01Y1644370D02*
G03X1958943I-4100J0D01*
G01X1959100Y1654449D02*
G03X1959100I-4100J0D01*
G01X1959336Y1681614D02*
G03X1959336I-4100J0D01*
G01Y1691614D02*
G03X1959336I-4100J0D01*
G01Y1701614D02*
G03X1959336I-4100J0D01*
G01X1949336Y1500512D02*
G03X1949336I-4100J0D01*
G01Y1510512D02*
G03X1949336I-4100J0D01*
G01Y1520512D02*
G03X1949336I-4100J0D01*
G01X1948943Y1547756D02*
G03X1948943I-4100J0D01*
G01Y1557756D02*
G03X1948943I-4100J0D01*
G01X1949100Y1567835D02*
G03X1949100I-4100J0D01*
G01X1948943Y1634370D02*
G03X1948943I-4100J0D01*
G01Y1644370D02*
G03X1948943I-4100J0D01*
G01X1949100Y1654449D02*
G03X1949100I-4100J0D01*
G01X1949336Y1681614D02*
G03X1949336I-4100J0D01*
G01Y1691614D02*
G03X1949336I-4100J0D01*
G01Y1701614D02*
G03X1949336I-4100J0D01*
G01X1939336Y1500512D02*
G03X1939336I-4100J0D01*
G01Y1510512D02*
G03X1939336I-4100J0D01*
G01Y1520512D02*
G03X1939336I-4100J0D01*
G01X1938943Y1547756D02*
G03X1938943I-4100J0D01*
G01Y1557756D02*
G03X1938943I-4100J0D01*
G01X1939100Y1567835D02*
G03X1939100I-4100J0D01*
G01X1938943Y1634370D02*
G03X1938943I-4100J0D01*
G01Y1644370D02*
G03X1938943I-4100J0D01*
G01X1939100Y1654449D02*
G03X1939100I-4100J0D01*
G01X1939336Y1681614D02*
G03X1939336I-4100J0D01*
G01Y1691614D02*
G03X1939336I-4100J0D01*
G01Y1701614D02*
G03X1939336I-4100J0D01*
G01X1929336Y1500512D02*
G03X1929336I-4100J0D01*
G01Y1510512D02*
G03X1929336I-4100J0D01*
G01Y1520512D02*
G03X1929336I-4100J0D01*
G01X1928943Y1547756D02*
G03X1928943I-4100J0D01*
G01Y1557756D02*
G03X1928943I-4100J0D01*
G01X1929100Y1567835D02*
G03X1929100I-4100J0D01*
G01X1928943Y1634370D02*
G03X1928943I-4100J0D01*
G01Y1644370D02*
G03X1928943I-4100J0D01*
G01X1929100Y1654449D02*
G03X1929100I-4100J0D01*
G01X1929336Y1681614D02*
G03X1929336I-4100J0D01*
G01Y1691614D02*
G03X1929336I-4100J0D01*
G01Y1701614D02*
G03X1929336I-4100J0D01*
G01X1919336Y1500512D02*
G03X1919336I-4100J0D01*
G01Y1510512D02*
G03X1919336I-4100J0D01*
G01Y1520512D02*
G03X1919336I-4100J0D01*
G01X1918943Y1547756D02*
G03X1918943I-4100J0D01*
G01Y1557756D02*
G03X1918943I-4100J0D01*
G01X1919100Y1567835D02*
G03X1919100I-4100J0D01*
G01X1918943Y1634370D02*
G03X1918943I-4100J0D01*
G01Y1644370D02*
G03X1918943I-4100J0D01*
G01X1919100Y1654449D02*
G03X1919100I-4100J0D01*
G01X1919336Y1681614D02*
G03X1919336I-4100J0D01*
G01Y1691614D02*
G03X1919336I-4100J0D01*
G01Y1701614D02*
G03X1919336I-4100J0D01*
G01X1909336Y1500512D02*
G03X1909336I-4100J0D01*
G01Y1510512D02*
G03X1909336I-4100J0D01*
G01Y1520512D02*
G03X1909336I-4100J0D01*
G01X1908943Y1547756D02*
G03X1908943I-4100J0D01*
G01Y1557756D02*
G03X1908943I-4100J0D01*
G01X1909100Y1567835D02*
G03X1909100I-4100J0D01*
G01X1908943Y1634370D02*
G03X1908943I-4100J0D01*
G01Y1644370D02*
G03X1908943I-4100J0D01*
G01X1909100Y1654449D02*
G03X1909100I-4100J0D01*
G01X1909336Y1681614D02*
G03X1909336I-4100J0D01*
G01Y1691614D02*
G03X1909336I-4100J0D01*
G01Y1701614D02*
G03X1909336I-4100J0D01*
G01X1899336Y1500512D02*
G03X1899336I-4100J0D01*
G01Y1510512D02*
G03X1899336I-4100J0D01*
G01Y1520512D02*
G03X1899336I-4100J0D01*
G01X1898943Y1547756D02*
G03X1898943I-4100J0D01*
G01Y1557756D02*
G03X1898943I-4100J0D01*
G01X1899100Y1567835D02*
G03X1899100I-4100J0D01*
G01X1898943Y1634370D02*
G03X1898943I-4100J0D01*
G01Y1644370D02*
G03X1898943I-4100J0D01*
G01X1899100Y1654449D02*
G03X1899100I-4100J0D01*
G01X1899336Y1681614D02*
G03X1899336I-4100J0D01*
G01Y1691614D02*
G03X1899336I-4100J0D01*
G01Y1701614D02*
G03X1899336I-4100J0D01*
G01X1889336Y1500512D02*
G03X1889336I-4100J0D01*
G01Y1510512D02*
G03X1889336I-4100J0D01*
G01Y1520512D02*
G03X1889336I-4100J0D01*
G01X1888943Y1547756D02*
G03X1888943I-4100J0D01*
G01Y1557756D02*
G03X1888943I-4100J0D01*
G01X1889100Y1567835D02*
G03X1889100I-4100J0D01*
G01X1888943Y1634370D02*
G03X1888943I-4100J0D01*
G01Y1644370D02*
G03X1888943I-4100J0D01*
G01X1889100Y1654449D02*
G03X1889100I-4100J0D01*
G01X1889336Y1681614D02*
G03X1889336I-4100J0D01*
G01Y1691614D02*
G03X1889336I-4100J0D01*
G01Y1701614D02*
G03X1889336I-4100J0D01*
G01X1879336Y1500512D02*
G03X1879336I-4100J0D01*
G01Y1510512D02*
G03X1879336I-4100J0D01*
G01Y1520512D02*
G03X1879336I-4100J0D01*
G01X1878943Y1547756D02*
G03X1878943I-4100J0D01*
G01Y1557756D02*
G03X1878943I-4100J0D01*
G01X1879100Y1567835D02*
G03X1879100I-4100J0D01*
G01X1878943Y1634370D02*
G03X1878943I-4100J0D01*
G01Y1644370D02*
G03X1878943I-4100J0D01*
G01X1879100Y1654449D02*
G03X1879100I-4100J0D01*
G01X1879336Y1681614D02*
G03X1879336I-4100J0D01*
G01Y1691614D02*
G03X1879336I-4100J0D01*
G01Y1701614D02*
G03X1879336I-4100J0D01*
G01X1869336Y1500512D02*
G03X1869336I-4100J0D01*
G01Y1510512D02*
G03X1869336I-4100J0D01*
G01Y1520512D02*
G03X1869336I-4100J0D01*
G01X1868943Y1547756D02*
G03X1868943I-4100J0D01*
G01Y1557756D02*
G03X1868943I-4100J0D01*
G01X1869100Y1567835D02*
G03X1869100I-4100J0D01*
G01X1868943Y1634370D02*
G03X1868943I-4100J0D01*
G01Y1644370D02*
G03X1868943I-4100J0D01*
G01X1869100Y1654449D02*
G03X1869100I-4100J0D01*
G01X1869336Y1681614D02*
G03X1869336I-4100J0D01*
G01Y1691614D02*
G03X1869336I-4100J0D01*
G01Y1701614D02*
G03X1869336I-4100J0D01*
G01X1859336Y1500512D02*
G03X1859336I-4100J0D01*
G01Y1510512D02*
G03X1859336I-4100J0D01*
G01Y1520512D02*
G03X1859336I-4100J0D01*
G01X1858943Y1547756D02*
G03X1858943I-4100J0D01*
G01Y1557756D02*
G03X1858943I-4100J0D01*
G01X1859100Y1567835D02*
G03X1859100I-4100J0D01*
G01X1858943Y1634370D02*
G03X1858943I-4100J0D01*
G01Y1644370D02*
G03X1858943I-4100J0D01*
G01X1859100Y1654449D02*
G03X1859100I-4100J0D01*
G01X1859336Y1681614D02*
G03X1859336I-4100J0D01*
G01Y1691614D02*
G03X1859336I-4100J0D01*
G01Y1701614D02*
G03X1859336I-4100J0D01*
G01X1849336Y1500512D02*
G03X1849336I-4100J0D01*
G01Y1510512D02*
G03X1849336I-4100J0D01*
G01Y1520512D02*
G03X1849336I-4100J0D01*
G01X1848943Y1547756D02*
G03X1848943I-4100J0D01*
G01Y1557756D02*
G03X1848943I-4100J0D01*
G01X1849100Y1567835D02*
G03X1849100I-4100J0D01*
G01X1848943Y1634370D02*
G03X1848943I-4100J0D01*
G01Y1644370D02*
G03X1848943I-4100J0D01*
G01X1849100Y1654449D02*
G03X1849100I-4100J0D01*
G01X1849336Y1681614D02*
G03X1849336I-4100J0D01*
G01Y1691614D02*
G03X1849336I-4100J0D01*
G01Y1701614D02*
G03X1849336I-4100J0D01*
G01X2173900Y1486100D02*
Y1713900D01*
X1826100*
Y1486100*
X2173900*
X2159336Y1500512D02*
G03X2159336I-4100J0D01*
G01Y1510512D02*
G03X2159336I-4100J0D01*
G01Y1520512D02*
G03X2159336I-4100J0D01*
G01X2158943Y1547756D02*
G03X2158943I-4100J0D01*
G01Y1557756D02*
G03X2158943I-4100J0D01*
G01X2159100Y1567835D02*
G03X2159100I-4100J0D01*
G01X2158943Y1634370D02*
G03X2158943I-4100J0D01*
G01Y1644370D02*
G03X2158943I-4100J0D01*
G01X2159100Y1654449D02*
G03X2159100I-4100J0D01*
G01X2159336Y1681614D02*
G03X2159336I-4100J0D01*
G01Y1691614D02*
G03X2159336I-4100J0D01*
G01Y1701614D02*
G03X2159336I-4100J0D01*
G01X2149336Y1500512D02*
G03X2149336I-4100J0D01*
G01Y1510512D02*
G03X2149336I-4100J0D01*
G01Y1520512D02*
G03X2149336I-4100J0D01*
G01X2148943Y1547756D02*
G03X2148943I-4100J0D01*
G01Y1557756D02*
G03X2148943I-4100J0D01*
G01X2149100Y1567835D02*
G03X2149100I-4100J0D01*
G01X2148943Y1634370D02*
G03X2148943I-4100J0D01*
G01Y1644370D02*
G03X2148943I-4100J0D01*
G01X2149100Y1654449D02*
G03X2149100I-4100J0D01*
G01X2149336Y1681614D02*
G03X2149336I-4100J0D01*
G01Y1691614D02*
G03X2149336I-4100J0D01*
G01Y1701614D02*
G03X2149336I-4100J0D01*
G01X2139336Y1500512D02*
G03X2139336I-4100J0D01*
G01Y1510512D02*
G03X2139336I-4100J0D01*
G01Y1520512D02*
G03X2139336I-4100J0D01*
G01X2138943Y1547756D02*
G03X2138943I-4100J0D01*
G01Y1557756D02*
G03X2138943I-4100J0D01*
G01X2139100Y1567835D02*
G03X2139100I-4100J0D01*
G01X2138943Y1634370D02*
G03X2138943I-4100J0D01*
G01Y1644370D02*
G03X2138943I-4100J0D01*
G01X2139100Y1654449D02*
G03X2139100I-4100J0D01*
G01X2139336Y1681614D02*
G03X2139336I-4100J0D01*
G01Y1691614D02*
G03X2139336I-4100J0D01*
G01Y1701614D02*
G03X2139336I-4100J0D01*
G01X2129336Y1500512D02*
G03X2129336I-4100J0D01*
G01Y1510512D02*
G03X2129336I-4100J0D01*
G01Y1520512D02*
G03X2129336I-4100J0D01*
G01X2128943Y1547756D02*
G03X2128943I-4100J0D01*
G01Y1557756D02*
G03X2128943I-4100J0D01*
G01X2129100Y1567835D02*
G03X2129100I-4100J0D01*
G01X2128943Y1634370D02*
G03X2128943I-4100J0D01*
G01Y1644370D02*
G03X2128943I-4100J0D01*
G01X2129100Y1654449D02*
G03X2129100I-4100J0D01*
G01X2129336Y1681614D02*
G03X2129336I-4100J0D01*
G01Y1691614D02*
G03X2129336I-4100J0D01*
G01Y1701614D02*
G03X2129336I-4100J0D01*
G01X2119336Y1500512D02*
G03X2119336I-4100J0D01*
G01Y1510512D02*
G03X2119336I-4100J0D01*
G01Y1520512D02*
G03X2119336I-4100J0D01*
G01X2118943Y1547756D02*
G03X2118943I-4100J0D01*
G01Y1557756D02*
G03X2118943I-4100J0D01*
G01X2119100Y1567835D02*
G03X2119100I-4100J0D01*
G01X2118943Y1634370D02*
G03X2118943I-4100J0D01*
G01Y1644370D02*
G03X2118943I-4100J0D01*
G01X2119100Y1654449D02*
G03X2119100I-4100J0D01*
G01X2119336Y1681614D02*
G03X2119336I-4100J0D01*
G01Y1691614D02*
G03X2119336I-4100J0D01*
G01Y1701614D02*
G03X2119336I-4100J0D01*
G01X2109336Y1500512D02*
G03X2109336I-4100J0D01*
G01Y1510512D02*
G03X2109336I-4100J0D01*
G01Y1520512D02*
G03X2109336I-4100J0D01*
G01X2108943Y1547756D02*
G03X2108943I-4100J0D01*
G01Y1557756D02*
G03X2108943I-4100J0D01*
G01X2109100Y1567835D02*
G03X2109100I-4100J0D01*
G01X2108943Y1634370D02*
G03X2108943I-4100J0D01*
G01Y1644370D02*
G03X2108943I-4100J0D01*
G01X2109100Y1654449D02*
G03X2109100I-4100J0D01*
G01X2109336Y1681614D02*
G03X2109336I-4100J0D01*
G01Y1691614D02*
G03X2109336I-4100J0D01*
G01Y1701614D02*
G03X2109336I-4100J0D01*
G01X2099336Y1500512D02*
G03X2099336I-4100J0D01*
G01Y1510512D02*
G03X2099336I-4100J0D01*
G01Y1520512D02*
G03X2099336I-4100J0D01*
G01X2098943Y1547756D02*
G03X2098943I-4100J0D01*
G01Y1557756D02*
G03X2098943I-4100J0D01*
G01X2099100Y1567835D02*
G03X2099100I-4100J0D01*
G01X2098943Y1634370D02*
G03X2098943I-4100J0D01*
G01Y1644370D02*
G03X2098943I-4100J0D01*
G01X2099100Y1654449D02*
G03X2099100I-4100J0D01*
G01X2099336Y1681614D02*
G03X2099336I-4100J0D01*
G01Y1691614D02*
G03X2099336I-4100J0D01*
G01Y1701614D02*
G03X2099336I-4100J0D01*
G01X2089336Y1500512D02*
G03X2089336I-4100J0D01*
G01Y1510512D02*
G03X2089336I-4100J0D01*
G01Y1520512D02*
G03X2089336I-4100J0D01*
G01X2088943Y1547756D02*
G03X2088943I-4100J0D01*
G01Y1557756D02*
G03X2088943I-4100J0D01*
G01X2089100Y1567835D02*
G03X2089100I-4100J0D01*
G01X2088943Y1634370D02*
G03X2088943I-4100J0D01*
G01Y1644370D02*
G03X2088943I-4100J0D01*
G01X2089100Y1654449D02*
G03X2089100I-4100J0D01*
G01X2089336Y1681614D02*
G03X2089336I-4100J0D01*
G01Y1691614D02*
G03X2089336I-4100J0D01*
G01Y1701614D02*
G03X2089336I-4100J0D01*
G01X2079336Y1500512D02*
G03X2079336I-4100J0D01*
G01Y1510512D02*
G03X2079336I-4100J0D01*
G01Y1520512D02*
G03X2079336I-4100J0D01*
G01X2078943Y1547756D02*
G03X2078943I-4100J0D01*
G01Y1557756D02*
G03X2078943I-4100J0D01*
G01X2079100Y1567835D02*
G03X2079100I-4100J0D01*
G01X2078943Y1634370D02*
G03X2078943I-4100J0D01*
G01Y1644370D02*
G03X2078943I-4100J0D01*
G01X2079100Y1654449D02*
G03X2079100I-4100J0D01*
G01X2079336Y1681614D02*
G03X2079336I-4100J0D01*
G01Y1691614D02*
G03X2079336I-4100J0D01*
G01Y1701614D02*
G03X2079336I-4100J0D01*
G01X2069336Y1500512D02*
G03X2069336I-4100J0D01*
G01Y1510512D02*
G03X2069336I-4100J0D01*
G01Y1520512D02*
G03X2069336I-4100J0D01*
G01X2068943Y1547756D02*
G03X2068943I-4100J0D01*
G01Y1557756D02*
G03X2068943I-4100J0D01*
G01X2069100Y1567835D02*
G03X2069100I-4100J0D01*
G01X2068943Y1634370D02*
G03X2068943I-4100J0D01*
G01Y1644370D02*
G03X2068943I-4100J0D01*
G01X2069100Y1654449D02*
G03X2069100I-4100J0D01*
G01X2069336Y1681614D02*
G03X2069336I-4100J0D01*
G01Y1691614D02*
G03X2069336I-4100J0D01*
G01Y1701614D02*
G03X2069336I-4100J0D01*
G01X2059336Y1500512D02*
G03X2059336I-4100J0D01*
G01Y1510512D02*
G03X2059336I-4100J0D01*
G01Y1520512D02*
G03X2059336I-4100J0D01*
G01X2058943Y1547756D02*
G03X2058943I-4100J0D01*
G01Y1557756D02*
G03X2058943I-4100J0D01*
G01X2059100Y1567835D02*
G03X2059100I-4100J0D01*
G01X2058943Y1634370D02*
G03X2058943I-4100J0D01*
G01Y1644370D02*
G03X2058943I-4100J0D01*
G01X2059100Y1654449D02*
G03X2059100I-4100J0D01*
G01X2059336Y1681614D02*
G03X2059336I-4100J0D01*
G01Y1691614D02*
G03X2059336I-4100J0D01*
G01Y1701614D02*
G03X2059336I-4100J0D01*
G01X2049336Y1500512D02*
G03X2049336I-4100J0D01*
G01Y1510512D02*
G03X2049336I-4100J0D01*
G01Y1520512D02*
G03X2049336I-4100J0D01*
G01X2048943Y1547756D02*
G03X2048943I-4100J0D01*
G01Y1557756D02*
G03X2048943I-4100J0D01*
G01X2049100Y1567835D02*
G03X2049100I-4100J0D01*
G01X2048943Y1634370D02*
G03X2048943I-4100J0D01*
G01Y1644370D02*
G03X2048943I-4100J0D01*
G01X2049100Y1654449D02*
G03X2049100I-4100J0D01*
G01X2049336Y1681614D02*
G03X2049336I-4100J0D01*
G01Y1691614D02*
G03X2049336I-4100J0D01*
G01Y1701614D02*
G03X2049336I-4100J0D01*
G01X2039336Y1500512D02*
G03X2039336I-4100J0D01*
G01Y1510512D02*
G03X2039336I-4100J0D01*
G01Y1520512D02*
G03X2039336I-4100J0D01*
G01X2038943Y1547756D02*
G03X2038943I-4100J0D01*
G01Y1557756D02*
G03X2038943I-4100J0D01*
G01X2039100Y1567835D02*
G03X2039100I-4100J0D01*
G01X2038943Y1634370D02*
G03X2038943I-4100J0D01*
G01Y1644370D02*
G03X2038943I-4100J0D01*
G01X2039100Y1654449D02*
G03X2039100I-4100J0D01*
G01X2039336Y1681614D02*
G03X2039336I-4100J0D01*
G01Y1691614D02*
G03X2039336I-4100J0D01*
G01Y1701614D02*
G03X2039336I-4100J0D01*
G01X2029336Y1500512D02*
G03X2029336I-4100J0D01*
G01Y1510512D02*
G03X2029336I-4100J0D01*
G01Y1520512D02*
G03X2029336I-4100J0D01*
G01X2028943Y1547756D02*
G03X2028943I-4100J0D01*
G01Y1557756D02*
G03X2028943I-4100J0D01*
G01X2029100Y1567835D02*
G03X2029100I-4100J0D01*
G01X2028943Y1634370D02*
G03X2028943I-4100J0D01*
G01Y1644370D02*
G03X2028943I-4100J0D01*
G01X2029100Y1654449D02*
G03X2029100I-4100J0D01*
G01X2029336Y1681614D02*
G03X2029336I-4100J0D01*
G01Y1691614D02*
G03X2029336I-4100J0D01*
G01Y1701614D02*
G03X2029336I-4100J0D01*
G01X2019336Y1500512D02*
G03X2019336I-4100J0D01*
G01Y1510512D02*
G03X2019336I-4100J0D01*
G01Y1520512D02*
G03X2019336I-4100J0D01*
G01X2018943Y1547756D02*
G03X2018943I-4100J0D01*
G01Y1557756D02*
G03X2018943I-4100J0D01*
G01X2019100Y1567835D02*
G03X2019100I-4100J0D01*
G01X2018943Y1634370D02*
G03X2018943I-4100J0D01*
G01Y1644370D02*
G03X2018943I-4100J0D01*
G01X2019100Y1654449D02*
G03X2019100I-4100J0D01*
G01X2019336Y1681614D02*
G03X2019336I-4100J0D01*
G01Y1691614D02*
G03X2019336I-4100J0D01*
G01Y1701614D02*
G03X2019336I-4100J0D01*
G01X2009336Y1500512D02*
G03X2009336I-4100J0D01*
G01Y1510512D02*
G03X2009336I-4100J0D01*
G01Y1520512D02*
G03X2009336I-4100J0D01*
G01X2008943Y1547756D02*
G03X2008943I-4100J0D01*
G01Y1557756D02*
G03X2008943I-4100J0D01*
G01X2009100Y1567835D02*
G03X2009100I-4100J0D01*
G01X2008943Y1634370D02*
G03X2008943I-4100J0D01*
G01Y1644370D02*
G03X2008943I-4100J0D01*
G01X2009100Y1654449D02*
G03X2009100I-4100J0D01*
G01X2009336Y1681614D02*
G03X2009336I-4100J0D01*
G01Y1691614D02*
G03X2009336I-4100J0D01*
G01Y1701614D02*
G03X2009336I-4100J0D01*
G01X1999336Y1500512D02*
G03X1999336I-4100J0D01*
G01Y1510512D02*
G03X1999336I-4100J0D01*
G01Y1520512D02*
G03X1999336I-4100J0D01*
G01X1998943Y1547756D02*
G03X1998943I-4100J0D01*
G01Y1557756D02*
G03X1998943I-4100J0D01*
G01X1999100Y1567835D02*
G03X1999100I-4100J0D01*
G01X1998943Y1634370D02*
G03X1998943I-4100J0D01*
G01Y1644370D02*
G03X1998943I-4100J0D01*
G01X1999100Y1654449D02*
G03X1999100I-4100J0D01*
G01X1999336Y1681614D02*
G03X1999336I-4100J0D01*
G01Y1691614D02*
G03X1999336I-4100J0D01*
G01Y1701614D02*
G03X1999336I-4100J0D01*
G01X1989336Y1500512D02*
G03X1989336I-4100J0D01*
G01Y1510512D02*
G03X1989336I-4100J0D01*
G01Y1520512D02*
G03X1989336I-4100J0D01*
G01X1988943Y1547756D02*
G03X1988943I-4100J0D01*
G01Y1557756D02*
G03X1988943I-4100J0D01*
G01X1989100Y1567835D02*
G03X1989100I-4100J0D01*
G01X1988943Y1634370D02*
G03X1988943I-4100J0D01*
G01Y1644370D02*
G03X1988943I-4100J0D01*
G01X1989100Y1654449D02*
G03X1989100I-4100J0D01*
G01X1989336Y1681614D02*
G03X1989336I-4100J0D01*
G01Y1691614D02*
G03X1989336I-4100J0D01*
G01Y1701614D02*
G03X1989336I-4100J0D01*
G01X1979336Y1500512D02*
G03X1979336I-4100J0D01*
G01Y1510512D02*
G03X1979336I-4100J0D01*
G01Y1520512D02*
G03X1979336I-4100J0D01*
G01X1978943Y1547756D02*
G03X1978943I-4100J0D01*
G01Y1557756D02*
G03X1978943I-4100J0D01*
G01X1979100Y1567835D02*
G03X1979100I-4100J0D01*
G01X1978943Y1634370D02*
G03X1978943I-4100J0D01*
G01Y1644370D02*
G03X1978943I-4100J0D01*
G01X1979100Y1654449D02*
G03X1979100I-4100J0D01*
G01X1979336Y1681614D02*
G03X1979336I-4100J0D01*
G01Y1691614D02*
G03X1979336I-4100J0D01*
G01Y1701614D02*
G03X1979336I-4100J0D01*
G01X1969336Y1500512D02*
G03X1969336I-4100J0D01*
G01Y1510512D02*
G03X1969336I-4100J0D01*
G01Y1520512D02*
G03X1969336I-4100J0D01*
G01X1968943Y1547756D02*
G03X1968943I-4100J0D01*
G01Y1557756D02*
G03X1968943I-4100J0D01*
G01X1969100Y1567835D02*
G03X1969100I-4100J0D01*
G01X1968943Y1634370D02*
G03X1968943I-4100J0D01*
G01Y1644370D02*
G03X1968943I-4100J0D01*
G01X1969100Y1654449D02*
G03X1969100I-4100J0D01*
G01X1969336Y1681614D02*
G03X1969336I-4100J0D01*
G01Y1691614D02*
G03X1969336I-4100J0D01*
G01Y1701614D02*
G03X1969336I-4100J0D01*
G01X1959336Y1500512D02*
G03X1959336I-4100J0D01*
G01Y1510512D02*
G03X1959336I-4100J0D01*
G01Y1520512D02*
G03X1959336I-4100J0D01*
G01X1958943Y1547756D02*
G03X1958943I-4100J0D01*
G01Y1557756D02*
G03X1958943I-4100J0D01*
G01X1959100Y1567835D02*
G03X1959100I-4100J0D01*
G01X1958943Y1634370D02*
G03X1958943I-4100J0D01*
G01Y1644370D02*
G03X1958943I-4100J0D01*
G01X1959100Y1654449D02*
G03X1959100I-4100J0D01*
G01X1959336Y1681614D02*
G03X1959336I-4100J0D01*
G01Y1691614D02*
G03X1959336I-4100J0D01*
G01Y1701614D02*
G03X1959336I-4100J0D01*
G01X1949336Y1500512D02*
G03X1949336I-4100J0D01*
G01Y1510512D02*
G03X1949336I-4100J0D01*
G01Y1520512D02*
G03X1949336I-4100J0D01*
G01X1948943Y1547756D02*
G03X1948943I-4100J0D01*
G01Y1557756D02*
G03X1948943I-4100J0D01*
G01X1949100Y1567835D02*
G03X1949100I-4100J0D01*
G01X1948943Y1634370D02*
G03X1948943I-4100J0D01*
G01Y1644370D02*
G03X1948943I-4100J0D01*
G01X1949100Y1654449D02*
G03X1949100I-4100J0D01*
G01X1949336Y1681614D02*
G03X1949336I-4100J0D01*
G01Y1691614D02*
G03X1949336I-4100J0D01*
G01Y1701614D02*
G03X1949336I-4100J0D01*
G01X1939336Y1500512D02*
G03X1939336I-4100J0D01*
G01Y1510512D02*
G03X1939336I-4100J0D01*
G01Y1520512D02*
G03X1939336I-4100J0D01*
G01X1938943Y1547756D02*
G03X1938943I-4100J0D01*
G01Y1557756D02*
G03X1938943I-4100J0D01*
G01X1939100Y1567835D02*
G03X1939100I-4100J0D01*
G01X1938943Y1634370D02*
G03X1938943I-4100J0D01*
G01Y1644370D02*
G03X1938943I-4100J0D01*
G01X1939100Y1654449D02*
G03X1939100I-4100J0D01*
G01X1939336Y1681614D02*
G03X1939336I-4100J0D01*
G01Y1691614D02*
G03X1939336I-4100J0D01*
G01Y1701614D02*
G03X1939336I-4100J0D01*
G01X1929336Y1500512D02*
G03X1929336I-4100J0D01*
G01Y1510512D02*
G03X1929336I-4100J0D01*
G01Y1520512D02*
G03X1929336I-4100J0D01*
G01X1928943Y1547756D02*
G03X1928943I-4100J0D01*
G01Y1557756D02*
G03X1928943I-4100J0D01*
G01X1929100Y1567835D02*
G03X1929100I-4100J0D01*
G01X1928943Y1634370D02*
G03X1928943I-4100J0D01*
G01Y1644370D02*
G03X1928943I-4100J0D01*
G01X1929100Y1654449D02*
G03X1929100I-4100J0D01*
G01X1929336Y1681614D02*
G03X1929336I-4100J0D01*
G01Y1691614D02*
G03X1929336I-4100J0D01*
G01Y1701614D02*
G03X1929336I-4100J0D01*
G01X1919336Y1500512D02*
G03X1919336I-4100J0D01*
G01Y1510512D02*
G03X1919336I-4100J0D01*
G01Y1520512D02*
G03X1919336I-4100J0D01*
G01X1918943Y1547756D02*
G03X1918943I-4100J0D01*
G01Y1557756D02*
G03X1918943I-4100J0D01*
G01X1919100Y1567835D02*
G03X1919100I-4100J0D01*
G01X1918943Y1634370D02*
G03X1918943I-4100J0D01*
G01Y1644370D02*
G03X1918943I-4100J0D01*
G01X1919100Y1654449D02*
G03X1919100I-4100J0D01*
G01X1919336Y1681614D02*
G03X1919336I-4100J0D01*
G01Y1691614D02*
G03X1919336I-4100J0D01*
G01Y1701614D02*
G03X1919336I-4100J0D01*
G01X1909336Y1500512D02*
G03X1909336I-4100J0D01*
G01Y1510512D02*
G03X1909336I-4100J0D01*
G01Y1520512D02*
G03X1909336I-4100J0D01*
G01X1908943Y1547756D02*
G03X1908943I-4100J0D01*
G01Y1557756D02*
G03X1908943I-4100J0D01*
G01X1909100Y1567835D02*
G03X1909100I-4100J0D01*
G01X1908943Y1634370D02*
G03X1908943I-4100J0D01*
G01Y1644370D02*
G03X1908943I-4100J0D01*
G01X1909100Y1654449D02*
G03X1909100I-4100J0D01*
G01X1909336Y1681614D02*
G03X1909336I-4100J0D01*
G01Y1691614D02*
G03X1909336I-4100J0D01*
G01Y1701614D02*
G03X1909336I-4100J0D01*
G01X1899336Y1500512D02*
G03X1899336I-4100J0D01*
G01Y1510512D02*
G03X1899336I-4100J0D01*
G01Y1520512D02*
G03X1899336I-4100J0D01*
G01X1898943Y1547756D02*
G03X1898943I-4100J0D01*
G01Y1557756D02*
G03X1898943I-4100J0D01*
G01X1899100Y1567835D02*
G03X1899100I-4100J0D01*
G01X1898943Y1634370D02*
G03X1898943I-4100J0D01*
G01Y1644370D02*
G03X1898943I-4100J0D01*
G01X1899100Y1654449D02*
G03X1899100I-4100J0D01*
G01X1899336Y1681614D02*
G03X1899336I-4100J0D01*
G01Y1691614D02*
G03X1899336I-4100J0D01*
G01Y1701614D02*
G03X1899336I-4100J0D01*
G01X1889336Y1500512D02*
G03X1889336I-4100J0D01*
G01Y1510512D02*
G03X1889336I-4100J0D01*
G01Y1520512D02*
G03X1889336I-4100J0D01*
G01X1888943Y1547756D02*
G03X1888943I-4100J0D01*
G01Y1557756D02*
G03X1888943I-4100J0D01*
G01X1889100Y1567835D02*
G03X1889100I-4100J0D01*
G01X1888943Y1634370D02*
G03X1888943I-4100J0D01*
G01Y1644370D02*
G03X1888943I-4100J0D01*
G01X1889100Y1654449D02*
G03X1889100I-4100J0D01*
G01X1889336Y1681614D02*
G03X1889336I-4100J0D01*
G01Y1691614D02*
G03X1889336I-4100J0D01*
G01Y1701614D02*
G03X1889336I-4100J0D01*
G01X1879336Y1500512D02*
G03X1879336I-4100J0D01*
G01Y1510512D02*
G03X1879336I-4100J0D01*
G01Y1520512D02*
G03X1879336I-4100J0D01*
G01X1878943Y1547756D02*
G03X1878943I-4100J0D01*
G01Y1557756D02*
G03X1878943I-4100J0D01*
G01X1879100Y1567835D02*
G03X1879100I-4100J0D01*
G01X1878943Y1634370D02*
G03X1878943I-4100J0D01*
G01Y1644370D02*
G03X1878943I-4100J0D01*
G01X1879100Y1654449D02*
G03X1879100I-4100J0D01*
G01X1879336Y1681614D02*
G03X1879336I-4100J0D01*
G01Y1691614D02*
G03X1879336I-4100J0D01*
G01Y1701614D02*
G03X1879336I-4100J0D01*
G01X1869336Y1500512D02*
G03X1869336I-4100J0D01*
G01Y1510512D02*
G03X1869336I-4100J0D01*
G01Y1520512D02*
G03X1869336I-4100J0D01*
G01X1868943Y1547756D02*
G03X1868943I-4100J0D01*
G01Y1557756D02*
G03X1868943I-4100J0D01*
G01X1869100Y1567835D02*
G03X1869100I-4100J0D01*
G01X1868943Y1634370D02*
G03X1868943I-4100J0D01*
G01Y1644370D02*
G03X1868943I-4100J0D01*
G01X1869100Y1654449D02*
G03X1869100I-4100J0D01*
G01X1869336Y1681614D02*
G03X1869336I-4100J0D01*
G01Y1691614D02*
G03X1869336I-4100J0D01*
G01Y1701614D02*
G03X1869336I-4100J0D01*
G01X1859336Y1500512D02*
G03X1859336I-4100J0D01*
G01Y1510512D02*
G03X1859336I-4100J0D01*
G01Y1520512D02*
G03X1859336I-4100J0D01*
G01X1858943Y1547756D02*
G03X1858943I-4100J0D01*
G01Y1557756D02*
G03X1858943I-4100J0D01*
G01X1859100Y1567835D02*
G03X1859100I-4100J0D01*
G01X1858943Y1634370D02*
G03X1858943I-4100J0D01*
G01Y1644370D02*
G03X1858943I-4100J0D01*
G01X1859100Y1654449D02*
G03X1859100I-4100J0D01*
G01X1859336Y1681614D02*
G03X1859336I-4100J0D01*
G01Y1691614D02*
G03X1859336I-4100J0D01*
G01Y1701614D02*
G03X1859336I-4100J0D01*
G01X1849336Y1500512D02*
G03X1849336I-4100J0D01*
G01Y1510512D02*
G03X1849336I-4100J0D01*
G01Y1520512D02*
G03X1849336I-4100J0D01*
G01X1848943Y1547756D02*
G03X1848943I-4100J0D01*
G01Y1557756D02*
G03X1848943I-4100J0D01*
G01X1849100Y1567835D02*
G03X1849100I-4100J0D01*
G01X1848943Y1634370D02*
G03X1848943I-4100J0D01*
G01Y1644370D02*
G03X1848943I-4100J0D01*
G01X1849100Y1654449D02*
G03X1849100I-4100J0D01*
G01X1849336Y1681614D02*
G03X1849336I-4100J0D01*
G01Y1691614D02*
G03X1849336I-4100J0D01*
G01Y1701614D02*
G03X1849336I-4100J0D01*
G01X1826100Y1713199D02*
X2173900D01*
X1826100Y1712299D02*
X2173900D01*
X1826100Y1711399D02*
X2173900D01*
X1826100Y1710499D02*
X2173900D01*
X1826100Y1709599D02*
X2173900D01*
X1826100Y1708699D02*
X2173900D01*
X1826100Y1707799D02*
X2173900D01*
X1826100Y1706899D02*
X2173900D01*
X1826100Y1705999D02*
X2173900D01*
X2157397Y1705099D02*
X2173900D01*
X2158419Y1704199D02*
X2173900D01*
X2158974Y1703299D02*
X2173900D01*
X2159260Y1702399D02*
X2173900D01*
X2159335Y1701499D02*
X2173900D01*
X2159208Y1700599D02*
X2173900D01*
X2158861Y1699699D02*
X2173900D01*
X2158217Y1698799D02*
X2173900D01*
X2156970Y1697899D02*
X2173900D01*
X1826100Y1696999D02*
X2173900D01*
X1826100Y1696099D02*
X2173900D01*
X2157227Y1695199D02*
X2173900D01*
X2158335Y1694299D02*
X2173900D01*
X2158928Y1693399D02*
X2173900D01*
X2159240Y1692499D02*
X2173900D01*
X2159336Y1691599D02*
X2173900D01*
X2159233Y1690699D02*
X2173900D01*
X2158912Y1689799D02*
X2173900D01*
X2158308Y1688899D02*
X2173900D01*
X2157170Y1687999D02*
X2173900D01*
X1826100Y1687099D02*
X2173900D01*
X1826100Y1686199D02*
X2173900D01*
X2157035Y1685299D02*
X2173900D01*
X2158246Y1684399D02*
X2173900D01*
X2158877Y1683499D02*
X2173900D01*
X2159216Y1682599D02*
X2173900D01*
X2159335Y1681699D02*
X2173900D01*
X2159254Y1680799D02*
X2173900D01*
X2158960Y1679899D02*
X2173900D01*
X2158394Y1678999D02*
X2173900D01*
X2157346Y1678099D02*
X2173900D01*
X1826100Y1677199D02*
X2173900D01*
X1826100Y1676299D02*
X2173900D01*
X1826100Y1675399D02*
X2173900D01*
X1826100Y1674499D02*
X2173900D01*
X1826100Y1673599D02*
X2173900D01*
X1826100Y1672699D02*
X2173900D01*
X1826100Y1671799D02*
X2173900D01*
X1826100Y1670899D02*
X2173900D01*
X1826100Y1669999D02*
X2173900D01*
X1826100Y1669099D02*
X2173900D01*
X1826100Y1668199D02*
X2173900D01*
X1826100Y1667299D02*
X2173900D01*
X1826100Y1666399D02*
X2173900D01*
X1826100Y1665499D02*
X2173900D01*
X1826100Y1664599D02*
X2173900D01*
X1826100Y1663699D02*
X2173900D01*
X1826100Y1662799D02*
X2173900D01*
X1826100Y1661899D02*
X2173900D01*
X1826100Y1660999D02*
X2173900D01*
X1826100Y1660099D02*
X2173900D01*
X1826100Y1659199D02*
X2173900D01*
X2156410Y1658299D02*
X2173900D01*
X2157848Y1657399D02*
X2173900D01*
X2158551Y1656499D02*
X2173900D01*
X2158935Y1655599D02*
X2173900D01*
X2159092Y1654699D02*
X2173900D01*
X2159048Y1653799D02*
X2173900D01*
X2158796Y1652899D02*
X2173900D01*
X2158287Y1651999D02*
X2173900D01*
X2157364Y1651099D02*
X2173900D01*
X1826100Y1650199D02*
X2173900D01*
X1826100Y1649299D02*
X2173900D01*
X2155604Y1648399D02*
X2173900D01*
X2157492Y1647499D02*
X2173900D01*
X2158284Y1646599D02*
X2173900D01*
X2158721Y1645699D02*
X2173900D01*
X2158920Y1644799D02*
X2173900D01*
X2158915Y1643899D02*
X2173900D01*
X2158706Y1642999D02*
X2173900D01*
X2158256Y1642099D02*
X2173900D01*
X2157441Y1641199D02*
X2173900D01*
X2155326Y1640299D02*
X2173900D01*
X1826100Y1639399D02*
X2173900D01*
X1826100Y1638499D02*
X2173900D01*
X2157370Y1637599D02*
X2173900D01*
X2158217Y1636699D02*
X2173900D01*
X2158686Y1635799D02*
X2173900D01*
X2158908Y1634899D02*
X2173900D01*
X2158926Y1633999D02*
X2173900D01*
X2158740Y1633099D02*
X2173900D01*
X2158320Y1632199D02*
X2173900D01*
X2157559Y1631299D02*
X2173900D01*
X2155861Y1630399D02*
X2173900D01*
X1826100Y1629499D02*
X2173900D01*
X1826100Y1628599D02*
X2173900D01*
X1826100Y1627699D02*
X2173900D01*
X1826100Y1626799D02*
X2173900D01*
X1826100Y1625899D02*
X2173900D01*
X1826100Y1624999D02*
X2173900D01*
X1826100Y1624099D02*
X2173900D01*
X1826100Y1623199D02*
X2173900D01*
X1826100Y1622299D02*
X2173900D01*
X1826100Y1621399D02*
X2173900D01*
X1826100Y1620499D02*
X2173900D01*
X1826100Y1619599D02*
X2173900D01*
X1826100Y1618699D02*
X2173900D01*
X1826100Y1617799D02*
X2173900D01*
X1826100Y1616899D02*
X2173900D01*
X1826100Y1615999D02*
X2173900D01*
X1826100Y1615099D02*
X2173900D01*
X1826100Y1614199D02*
X2173900D01*
X1826100Y1613299D02*
X2173900D01*
X1826100Y1612399D02*
X2173900D01*
X1826100Y1611499D02*
X2173900D01*
X1826100Y1610599D02*
X2173900D01*
X1826100Y1609699D02*
X2173900D01*
X1826100Y1608799D02*
X2173900D01*
X1826100Y1607899D02*
X2173900D01*
X1826100Y1606999D02*
X2173900D01*
X1826100Y1606099D02*
X2173900D01*
X1826100Y1605199D02*
X2173900D01*
X1826100Y1604299D02*
X2173900D01*
X1826100Y1603399D02*
X2173900D01*
X1826100Y1602499D02*
X2173900D01*
X1826100Y1601599D02*
X2173900D01*
X1826100Y1600699D02*
X2173900D01*
X1826100Y1599799D02*
X2173900D01*
X1826100Y1598899D02*
X2173900D01*
X1826100Y1597999D02*
X2173900D01*
X1826100Y1597099D02*
X2173900D01*
X1826100Y1596199D02*
X2173900D01*
X1826100Y1595299D02*
X2173900D01*
X1826100Y1594399D02*
X2173900D01*
X1826100Y1593499D02*
X2173900D01*
X1826100Y1592599D02*
X2173900D01*
X1826100Y1591699D02*
X2173900D01*
X1826100Y1590799D02*
X2173900D01*
X1826100Y1589899D02*
X2173900D01*
X1826100Y1588999D02*
X2173900D01*
X1826100Y1588099D02*
X2173900D01*
X1826100Y1587199D02*
X2173900D01*
X1826100Y1586299D02*
X2173900D01*
X1826100Y1585399D02*
X2173900D01*
X1826100Y1584499D02*
X2173900D01*
X1826100Y1583599D02*
X2173900D01*
X1826100Y1582699D02*
X2173900D01*
X1826100Y1581799D02*
X2173900D01*
X1826100Y1580899D02*
X2173900D01*
X1826100Y1579999D02*
X2173900D01*
X1826100Y1579099D02*
X2173900D01*
X1826100Y1578199D02*
X2173900D01*
X1826100Y1577299D02*
X2173900D01*
X1826100Y1576399D02*
X2173900D01*
X1826100Y1575499D02*
X2173900D01*
X1826100Y1574599D02*
X2173900D01*
X1826100Y1573699D02*
X2173900D01*
X1826100Y1572799D02*
X2173900D01*
X2155542Y1571899D02*
X2173900D01*
X2157607Y1570999D02*
X2173900D01*
X2158418Y1570099D02*
X2173900D01*
X2158866Y1569199D02*
X2173900D01*
X2159074Y1568299D02*
X2173900D01*
X2159077Y1567399D02*
X2173900D01*
X2158876Y1566499D02*
X2173900D01*
X2158437Y1565599D02*
X2173900D01*
X2157641Y1564699D02*
X2173900D01*
X2155722Y1563799D02*
X2173900D01*
X1826100Y1562899D02*
X2173900D01*
X1826100Y1561999D02*
X2173900D01*
X2157217Y1561099D02*
X2173900D01*
X2158135Y1560199D02*
X2173900D01*
X2158641Y1559299D02*
X2173900D01*
X2158892Y1558399D02*
X2173900D01*
X2158934Y1557499D02*
X2173900D01*
X2158776Y1556599D02*
X2173900D01*
X2158389Y1555699D02*
X2173900D01*
X2157682Y1554799D02*
X2173900D01*
X2156232Y1553899D02*
X2173900D01*
X1826100Y1552999D02*
X2173900D01*
X1826100Y1552099D02*
X2173900D01*
X2157069Y1551199D02*
X2173900D01*
X2158059Y1550299D02*
X2173900D01*
X2158599Y1549399D02*
X2173900D01*
X2158875Y1548499D02*
X2173900D01*
X2158940Y1547599D02*
X2173900D01*
X2158804Y1546699D02*
X2173900D01*
X2158445Y1545799D02*
X2173900D01*
X2157783Y1544899D02*
X2173900D01*
X2156484Y1543999D02*
X2173900D01*
X1826100Y1543099D02*
X2173900D01*
X1826100Y1542199D02*
X2173900D01*
X1826100Y1541299D02*
X2173900D01*
X1826100Y1540399D02*
X2173900D01*
X1826100Y1539499D02*
X2173900D01*
X1826100Y1538599D02*
X2173900D01*
X1826100Y1537699D02*
X2173900D01*
X1826100Y1536799D02*
X2173900D01*
X1826100Y1535899D02*
X2173900D01*
X1826100Y1534999D02*
X2173900D01*
X1826100Y1534099D02*
X2173900D01*
X1826100Y1533199D02*
X2173900D01*
X1826100Y1532299D02*
X2173900D01*
X1826100Y1531399D02*
X2173900D01*
X1826100Y1530499D02*
X2173900D01*
X1826100Y1529599D02*
X2173900D01*
X1826100Y1528699D02*
X2173900D01*
X1826100Y1527799D02*
X2173900D01*
X1826100Y1526899D02*
X2173900D01*
X1826100Y1525999D02*
X2173900D01*
X1826100Y1525099D02*
X2173900D01*
X2157030Y1524199D02*
X2173900D01*
X2158243Y1523299D02*
X2173900D01*
X2158876Y1522399D02*
X2173900D01*
X2159216Y1521499D02*
X2173900D01*
X2159335Y1520599D02*
X2173900D01*
X2159255Y1519699D02*
X2173900D01*
X2158961Y1518799D02*
X2173900D01*
X2158396Y1517899D02*
X2173900D01*
X2157350Y1516999D02*
X2173900D01*
X1826100Y1516099D02*
X2173900D01*
X1826100Y1515199D02*
X2173900D01*
X2156808Y1514299D02*
X2173900D01*
X2158148Y1513399D02*
X2173900D01*
X2158823Y1512499D02*
X2173900D01*
X2159190Y1511599D02*
X2173900D01*
X2159332Y1510699D02*
X2173900D01*
X2159274Y1509799D02*
X2173900D01*
X2159006Y1508899D02*
X2173900D01*
X2158476Y1507999D02*
X2173900D01*
X2157508Y1507099D02*
X2173900D01*
X1826100Y1506199D02*
X2173900D01*
X1826100Y1505299D02*
X2173900D01*
X2156541Y1504399D02*
X2173900D01*
X2158045Y1503499D02*
X2173900D01*
X2158765Y1502599D02*
X2173900D01*
X2159161Y1501699D02*
X2173900D01*
X2159326Y1500799D02*
X2173900D01*
X2159290Y1499899D02*
X2173900D01*
X2159047Y1498999D02*
X2173900D01*
X2158551Y1498099D02*
X2173900D01*
X2157651Y1497199D02*
X2173900D01*
X1826100Y1496299D02*
X2173900D01*
X1826100Y1495399D02*
X2173900D01*
X1826100Y1494499D02*
X2173900D01*
X1826100Y1493599D02*
X2173900D01*
X1826100Y1492699D02*
X2173900D01*
X1826100Y1491799D02*
X2173900D01*
X1826100Y1490899D02*
X2173900D01*
X1826100Y1489999D02*
X2173900D01*
X1826100Y1489099D02*
X2173900D01*
X1826100Y1488199D02*
X2173900D01*
X1826100Y1487299D02*
X2173900D01*
X1826100Y1486399D02*
X2173900D01*
X2145542Y1571899D02*
X2154458D01*
X2145326Y1640299D02*
X2154359D01*
X2145722Y1563799D02*
X2154278D01*
X2145604Y1648399D02*
X2154081D01*
X2146541Y1504399D02*
X2153931D01*
X2145861Y1630399D02*
X2153824D01*
X2146808Y1514299D02*
X2153665D01*
X2146410Y1658299D02*
X2153590D01*
X2146970Y1697899D02*
X2153503D01*
X2146232Y1553899D02*
X2153453D01*
X2147030Y1524199D02*
X2153443D01*
X2147035Y1685299D02*
X2153438D01*
X2147170Y1687999D02*
X2153303D01*
X2147227Y1695199D02*
X2153246D01*
X2146484Y1543999D02*
X2153201D01*
X2147346Y1678099D02*
X2153126D01*
X2147350Y1516999D02*
X2153122D01*
X2147397Y1705099D02*
X2153076D01*
X2147508Y1507099D02*
X2152964D01*
X2147651Y1497199D02*
X2152821D01*
X2147364Y1651099D02*
X2152636D01*
X2147069Y1551199D02*
X2152616D01*
X2147217Y1561099D02*
X2152468D01*
X2148045Y1503499D02*
X2152428D01*
X2147607Y1570999D02*
X2152393D01*
X2147641Y1564699D02*
X2152359D01*
X2148148Y1513399D02*
X2152325D01*
X2147370Y1637599D02*
X2152315D01*
X2148217Y1698799D02*
X2152256D01*
X2147441Y1641199D02*
X2152244D01*
X2148243Y1523299D02*
X2152229D01*
X2148246Y1684399D02*
X2152227D01*
X2147492Y1647499D02*
X2152193D01*
X2148308Y1688899D02*
X2152164D01*
X2147848Y1657399D02*
X2152152D01*
X2148335Y1694299D02*
X2152137D01*
X2147559Y1631299D02*
X2152127D01*
X2148394Y1678999D02*
X2152079D01*
X2148396Y1517899D02*
X2152077D01*
X2148419Y1704199D02*
X2152053D01*
X2147682Y1554799D02*
X2152003D01*
X2148476Y1507999D02*
X2151997D01*
X2148551Y1498099D02*
X2151922D01*
X2147783Y1544899D02*
X2151902D01*
X2148287Y1651999D02*
X2151713D01*
X2148765Y1502599D02*
X2151707D01*
X2148823Y1512499D02*
X2151650D01*
X2148059Y1550299D02*
X2151626D01*
X2148861Y1699699D02*
X2151611D01*
X2148876Y1522399D02*
X2151596D01*
X2148877Y1683499D02*
X2151595D01*
X2148418Y1570099D02*
X2151582D01*
X2148437Y1565599D02*
X2151563D01*
X2148912Y1689799D02*
X2151560D01*
X2148135Y1560199D02*
X2151550D01*
X2148928Y1693399D02*
X2151545D01*
X2148960Y1679899D02*
X2151512D01*
X2148961Y1518799D02*
X2151511D01*
X2148974Y1703299D02*
X2151498D01*
X2148217Y1636699D02*
X2151468D01*
X2149006Y1508899D02*
X2151467D01*
X2148551Y1656499D02*
X2151449D01*
X2148256Y1642099D02*
X2151429D01*
X2149047Y1498999D02*
X2151426D01*
X2148284Y1646599D02*
X2151401D01*
X2148320Y1632199D02*
X2151365D01*
X2149161Y1501699D02*
X2151312D01*
X2148389Y1555699D02*
X2151296D01*
X2149190Y1511599D02*
X2151283D01*
X2149208Y1700599D02*
X2151264D01*
X2149216Y1521499D02*
X2151257D01*
X2149216Y1682599D02*
X2151256D01*
X2148445Y1545799D02*
X2151240D01*
X2149233Y1690699D02*
X2151240D01*
X2149240Y1692499D02*
X2151233D01*
X2149254Y1680799D02*
X2151218D01*
X2149255Y1519699D02*
X2151218D01*
X2149260Y1702399D02*
X2151212D01*
X2148796Y1652899D02*
X2151204D01*
X2149274Y1509799D02*
X2151199D01*
X2149290Y1499899D02*
X2151182D01*
X2149326Y1500799D02*
X2151146D01*
X2149332Y1510699D02*
X2151140D01*
X2149335Y1701499D02*
X2151138D01*
X2149335Y1520599D02*
X2151137D01*
X2149335Y1681699D02*
X2151137D01*
X2149336Y1691599D02*
X2151136D01*
X2148866Y1569199D02*
X2151134D01*
X2148876Y1566499D02*
X2151124D01*
X2148599Y1549399D02*
X2151086D01*
X2148935Y1655599D02*
X2151065D01*
X2148641Y1559299D02*
X2151044D01*
X2148686Y1635799D02*
X2150999D01*
X2148706Y1642999D02*
X2150979D01*
X2148721Y1645699D02*
X2150964D01*
X2149048Y1653799D02*
X2150952D01*
X2148740Y1633099D02*
X2150945D01*
X2149074Y1568299D02*
X2150926D01*
X2149077Y1567399D02*
X2150923D01*
X2148776Y1556599D02*
X2150909D01*
X2149092Y1654699D02*
X2150908D01*
X2148804Y1546699D02*
X2150881D01*
X2148875Y1548499D02*
X2150810D01*
X2148892Y1558399D02*
X2150793D01*
X2148908Y1634899D02*
X2150777D01*
X2148915Y1643899D02*
X2150770D01*
X2148920Y1644799D02*
X2150765D01*
X2148926Y1633999D02*
X2150759D01*
X2148934Y1557499D02*
X2150751D01*
X2148940Y1547599D02*
X2150746D01*
X2135542Y1571899D02*
X2144458D01*
X2135326Y1640299D02*
X2144359D01*
X2135722Y1563799D02*
X2144278D01*
X2135604Y1648399D02*
X2144081D01*
X2136541Y1504399D02*
X2143931D01*
X2135861Y1630399D02*
X2143824D01*
X2136808Y1514299D02*
X2143665D01*
X2136410Y1658299D02*
X2143590D01*
X2136970Y1697899D02*
X2143503D01*
X2136232Y1553899D02*
X2143453D01*
X2137030Y1524199D02*
X2143443D01*
X2137035Y1685299D02*
X2143438D01*
X2137170Y1687999D02*
X2143303D01*
X2137227Y1695199D02*
X2143246D01*
X2136484Y1543999D02*
X2143201D01*
X2137346Y1678099D02*
X2143126D01*
X2137350Y1516999D02*
X2143122D01*
X2137397Y1705099D02*
X2143076D01*
X2137508Y1507099D02*
X2142964D01*
X2137651Y1497199D02*
X2142821D01*
X2137364Y1651099D02*
X2142636D01*
X2137069Y1551199D02*
X2142616D01*
X2137217Y1561099D02*
X2142468D01*
X2138045Y1503499D02*
X2142428D01*
X2137607Y1570999D02*
X2142393D01*
X2137641Y1564699D02*
X2142359D01*
X2138148Y1513399D02*
X2142325D01*
X2137370Y1637599D02*
X2142315D01*
X2138217Y1698799D02*
X2142256D01*
X2137441Y1641199D02*
X2142244D01*
X2138243Y1523299D02*
X2142229D01*
X2138246Y1684399D02*
X2142227D01*
X2137492Y1647499D02*
X2142193D01*
X2138308Y1688899D02*
X2142164D01*
X2137848Y1657399D02*
X2142152D01*
X2138335Y1694299D02*
X2142137D01*
X2137559Y1631299D02*
X2142127D01*
X2138394Y1678999D02*
X2142079D01*
X2138396Y1517899D02*
X2142077D01*
X2138419Y1704199D02*
X2142053D01*
X2137682Y1554799D02*
X2142003D01*
X2138476Y1507999D02*
X2141997D01*
X2138551Y1498099D02*
X2141922D01*
X2137783Y1544899D02*
X2141902D01*
X2138287Y1651999D02*
X2141713D01*
X2138765Y1502599D02*
X2141707D01*
X2138823Y1512499D02*
X2141650D01*
X2138059Y1550299D02*
X2141626D01*
X2138861Y1699699D02*
X2141611D01*
X2138876Y1522399D02*
X2141596D01*
X2138877Y1683499D02*
X2141595D01*
X2138418Y1570099D02*
X2141582D01*
X2138437Y1565599D02*
X2141563D01*
X2138912Y1689799D02*
X2141560D01*
X2138135Y1560199D02*
X2141550D01*
X2138928Y1693399D02*
X2141545D01*
X2138960Y1679899D02*
X2141512D01*
X2138961Y1518799D02*
X2141511D01*
X2138974Y1703299D02*
X2141498D01*
X2138217Y1636699D02*
X2141468D01*
X2139006Y1508899D02*
X2141467D01*
X2138551Y1656499D02*
X2141449D01*
X2138256Y1642099D02*
X2141429D01*
X2139047Y1498999D02*
X2141426D01*
X2138284Y1646599D02*
X2141401D01*
X2138320Y1632199D02*
X2141365D01*
X2139161Y1501699D02*
X2141312D01*
X2138389Y1555699D02*
X2141296D01*
X2139190Y1511599D02*
X2141283D01*
X2139208Y1700599D02*
X2141264D01*
X2139216Y1521499D02*
X2141257D01*
X2139216Y1682599D02*
X2141256D01*
X2138445Y1545799D02*
X2141240D01*
X2139233Y1690699D02*
X2141240D01*
X2139240Y1692499D02*
X2141233D01*
X2139254Y1680799D02*
X2141218D01*
X2139255Y1519699D02*
X2141218D01*
X2139260Y1702399D02*
X2141212D01*
X2138796Y1652899D02*
X2141204D01*
X2139274Y1509799D02*
X2141199D01*
X2139290Y1499899D02*
X2141182D01*
X2139326Y1500799D02*
X2141146D01*
X2139332Y1510699D02*
X2141140D01*
X2139335Y1701499D02*
X2141138D01*
X2139335Y1520599D02*
X2141137D01*
X2139335Y1681699D02*
X2141137D01*
X2139336Y1691599D02*
X2141136D01*
X2138866Y1569199D02*
X2141134D01*
X2138876Y1566499D02*
X2141124D01*
X2138599Y1549399D02*
X2141086D01*
X2138935Y1655599D02*
X2141065D01*
X2138641Y1559299D02*
X2141044D01*
X2138686Y1635799D02*
X2140999D01*
X2138706Y1642999D02*
X2140979D01*
X2138721Y1645699D02*
X2140964D01*
X2139048Y1653799D02*
X2140952D01*
X2138740Y1633099D02*
X2140945D01*
X2139074Y1568299D02*
X2140926D01*
X2139077Y1567399D02*
X2140923D01*
X2138776Y1556599D02*
X2140909D01*
X2139092Y1654699D02*
X2140908D01*
X2138804Y1546699D02*
X2140881D01*
X2138875Y1548499D02*
X2140810D01*
X2138892Y1558399D02*
X2140793D01*
X2138908Y1634899D02*
X2140777D01*
X2138915Y1643899D02*
X2140770D01*
X2138920Y1644799D02*
X2140765D01*
X2138926Y1633999D02*
X2140759D01*
X2138934Y1557499D02*
X2140751D01*
X2138940Y1547599D02*
X2140746D01*
X2125542Y1571899D02*
X2134458D01*
X2125326Y1640299D02*
X2134359D01*
X2125722Y1563799D02*
X2134278D01*
X2125604Y1648399D02*
X2134081D01*
X2126541Y1504399D02*
X2133931D01*
X2125861Y1630399D02*
X2133824D01*
X2126808Y1514299D02*
X2133665D01*
X2126410Y1658299D02*
X2133590D01*
X2126970Y1697899D02*
X2133503D01*
X2126232Y1553899D02*
X2133453D01*
X2127030Y1524199D02*
X2133443D01*
X2127035Y1685299D02*
X2133438D01*
X2127170Y1687999D02*
X2133303D01*
X2127227Y1695199D02*
X2133246D01*
X2126484Y1543999D02*
X2133201D01*
X2127346Y1678099D02*
X2133126D01*
X2127350Y1516999D02*
X2133122D01*
X2127397Y1705099D02*
X2133076D01*
X2127508Y1507099D02*
X2132964D01*
X2127651Y1497199D02*
X2132821D01*
X2127364Y1651099D02*
X2132636D01*
X2127069Y1551199D02*
X2132616D01*
X2127217Y1561099D02*
X2132468D01*
X2128045Y1503499D02*
X2132428D01*
X2127607Y1570999D02*
X2132393D01*
X2127641Y1564699D02*
X2132359D01*
X2128148Y1513399D02*
X2132325D01*
X2127370Y1637599D02*
X2132315D01*
X2128217Y1698799D02*
X2132256D01*
X2127441Y1641199D02*
X2132244D01*
X2128243Y1523299D02*
X2132229D01*
X2128246Y1684399D02*
X2132227D01*
X2127492Y1647499D02*
X2132193D01*
X2128308Y1688899D02*
X2132164D01*
X2127848Y1657399D02*
X2132152D01*
X2128335Y1694299D02*
X2132137D01*
X2127559Y1631299D02*
X2132127D01*
X2128394Y1678999D02*
X2132079D01*
X2128396Y1517899D02*
X2132077D01*
X2128419Y1704199D02*
X2132053D01*
X2127682Y1554799D02*
X2132003D01*
X2128476Y1507999D02*
X2131997D01*
X2128551Y1498099D02*
X2131922D01*
X2127783Y1544899D02*
X2131902D01*
X2128287Y1651999D02*
X2131713D01*
X2128765Y1502599D02*
X2131707D01*
X2128823Y1512499D02*
X2131650D01*
X2128059Y1550299D02*
X2131626D01*
X2128861Y1699699D02*
X2131611D01*
X2128876Y1522399D02*
X2131596D01*
X2128877Y1683499D02*
X2131595D01*
X2128418Y1570099D02*
X2131582D01*
X2128437Y1565599D02*
X2131563D01*
X2128912Y1689799D02*
X2131560D01*
X2128135Y1560199D02*
X2131550D01*
X2128928Y1693399D02*
X2131545D01*
X2128960Y1679899D02*
X2131512D01*
X2128961Y1518799D02*
X2131511D01*
X2128974Y1703299D02*
X2131498D01*
X2128217Y1636699D02*
X2131468D01*
X2129006Y1508899D02*
X2131467D01*
X2128551Y1656499D02*
X2131449D01*
X2128256Y1642099D02*
X2131429D01*
X2129047Y1498999D02*
X2131426D01*
X2128284Y1646599D02*
X2131401D01*
X2128320Y1632199D02*
X2131365D01*
X2129161Y1501699D02*
X2131312D01*
X2128389Y1555699D02*
X2131296D01*
X2129190Y1511599D02*
X2131283D01*
X2129208Y1700599D02*
X2131264D01*
X2129216Y1521499D02*
X2131257D01*
X2129216Y1682599D02*
X2131256D01*
X2128445Y1545799D02*
X2131240D01*
X2129233Y1690699D02*
X2131240D01*
X2129240Y1692499D02*
X2131233D01*
X2129254Y1680799D02*
X2131218D01*
X2129255Y1519699D02*
X2131218D01*
X2129260Y1702399D02*
X2131212D01*
X2128796Y1652899D02*
X2131204D01*
X2129274Y1509799D02*
X2131199D01*
X2129290Y1499899D02*
X2131182D01*
X2129326Y1500799D02*
X2131146D01*
X2129332Y1510699D02*
X2131140D01*
X2129335Y1701499D02*
X2131138D01*
X2129335Y1520599D02*
X2131137D01*
X2129335Y1681699D02*
X2131137D01*
X2129336Y1691599D02*
X2131136D01*
X2128866Y1569199D02*
X2131134D01*
X2128876Y1566499D02*
X2131124D01*
X2128599Y1549399D02*
X2131086D01*
X2128935Y1655599D02*
X2131065D01*
X2128641Y1559299D02*
X2131044D01*
X2128686Y1635799D02*
X2130999D01*
X2128706Y1642999D02*
X2130979D01*
X2128721Y1645699D02*
X2130964D01*
X2129048Y1653799D02*
X2130952D01*
X2128740Y1633099D02*
X2130945D01*
X2129074Y1568299D02*
X2130926D01*
X2129077Y1567399D02*
X2130923D01*
X2128776Y1556599D02*
X2130909D01*
X2129092Y1654699D02*
X2130908D01*
X2128804Y1546699D02*
X2130881D01*
X2128875Y1548499D02*
X2130810D01*
X2128892Y1558399D02*
X2130793D01*
X2128908Y1634899D02*
X2130777D01*
X2128915Y1643899D02*
X2130770D01*
X2128920Y1644799D02*
X2130765D01*
X2128926Y1633999D02*
X2130759D01*
X2128934Y1557499D02*
X2130751D01*
X2128940Y1547599D02*
X2130746D01*
X2115542Y1571899D02*
X2124458D01*
X2115326Y1640299D02*
X2124359D01*
X2115722Y1563799D02*
X2124278D01*
X2115604Y1648399D02*
X2124081D01*
X2116541Y1504399D02*
X2123931D01*
X2115861Y1630399D02*
X2123824D01*
X2116808Y1514299D02*
X2123665D01*
X2116410Y1658299D02*
X2123590D01*
X2116970Y1697899D02*
X2123503D01*
X2116232Y1553899D02*
X2123453D01*
X2117030Y1524199D02*
X2123443D01*
X2117035Y1685299D02*
X2123438D01*
X2117170Y1687999D02*
X2123303D01*
X2117227Y1695199D02*
X2123246D01*
X2116484Y1543999D02*
X2123201D01*
X2117346Y1678099D02*
X2123126D01*
X2117350Y1516999D02*
X2123122D01*
X2117397Y1705099D02*
X2123076D01*
X2117508Y1507099D02*
X2122964D01*
X2117651Y1497199D02*
X2122821D01*
X2117364Y1651099D02*
X2122636D01*
X2117069Y1551199D02*
X2122616D01*
X2117217Y1561099D02*
X2122468D01*
X2118045Y1503499D02*
X2122428D01*
X2117607Y1570999D02*
X2122393D01*
X2117641Y1564699D02*
X2122359D01*
X2118148Y1513399D02*
X2122325D01*
X2117370Y1637599D02*
X2122315D01*
X2118217Y1698799D02*
X2122256D01*
X2117441Y1641199D02*
X2122244D01*
X2118243Y1523299D02*
X2122229D01*
X2118246Y1684399D02*
X2122227D01*
X2117492Y1647499D02*
X2122193D01*
X2118308Y1688899D02*
X2122164D01*
X2117848Y1657399D02*
X2122152D01*
X2118335Y1694299D02*
X2122137D01*
X2117559Y1631299D02*
X2122127D01*
X2118394Y1678999D02*
X2122079D01*
X2118396Y1517899D02*
X2122077D01*
X2118419Y1704199D02*
X2122053D01*
X2117682Y1554799D02*
X2122003D01*
X2118476Y1507999D02*
X2121997D01*
X2118551Y1498099D02*
X2121922D01*
X2117783Y1544899D02*
X2121902D01*
X2118287Y1651999D02*
X2121713D01*
X2118765Y1502599D02*
X2121707D01*
X2118823Y1512499D02*
X2121650D01*
X2118059Y1550299D02*
X2121626D01*
X2118861Y1699699D02*
X2121611D01*
X2118876Y1522399D02*
X2121596D01*
X2118877Y1683499D02*
X2121595D01*
X2118418Y1570099D02*
X2121582D01*
X2118437Y1565599D02*
X2121563D01*
X2118912Y1689799D02*
X2121560D01*
X2118135Y1560199D02*
X2121550D01*
X2118928Y1693399D02*
X2121545D01*
X2118960Y1679899D02*
X2121512D01*
X2118961Y1518799D02*
X2121511D01*
X2118974Y1703299D02*
X2121498D01*
X2118217Y1636699D02*
X2121468D01*
X2119006Y1508899D02*
X2121467D01*
X2118551Y1656499D02*
X2121449D01*
X2118256Y1642099D02*
X2121429D01*
X2119047Y1498999D02*
X2121426D01*
X2118284Y1646599D02*
X2121401D01*
X2118320Y1632199D02*
X2121365D01*
X2119161Y1501699D02*
X2121312D01*
X2118389Y1555699D02*
X2121296D01*
X2119190Y1511599D02*
X2121283D01*
X2119208Y1700599D02*
X2121264D01*
X2119216Y1521499D02*
X2121257D01*
X2119216Y1682599D02*
X2121256D01*
X2118445Y1545799D02*
X2121240D01*
X2119233Y1690699D02*
X2121240D01*
X2119240Y1692499D02*
X2121233D01*
X2119254Y1680799D02*
X2121218D01*
X2119255Y1519699D02*
X2121218D01*
X2119260Y1702399D02*
X2121212D01*
X2118796Y1652899D02*
X2121204D01*
X2119274Y1509799D02*
X2121199D01*
X2119290Y1499899D02*
X2121182D01*
X2119326Y1500799D02*
X2121146D01*
X2119332Y1510699D02*
X2121140D01*
X2119335Y1701499D02*
X2121138D01*
X2119335Y1520599D02*
X2121137D01*
X2119335Y1681699D02*
X2121137D01*
X2119336Y1691599D02*
X2121136D01*
X2118866Y1569199D02*
X2121134D01*
X2118876Y1566499D02*
X2121124D01*
X2118599Y1549399D02*
X2121086D01*
X2118935Y1655599D02*
X2121065D01*
X2118641Y1559299D02*
X2121044D01*
X2118686Y1635799D02*
X2120999D01*
X2118706Y1642999D02*
X2120979D01*
X2118721Y1645699D02*
X2120964D01*
X2119048Y1653799D02*
X2120952D01*
X2118740Y1633099D02*
X2120945D01*
X2119074Y1568299D02*
X2120926D01*
X2119077Y1567399D02*
X2120923D01*
X2118776Y1556599D02*
X2120909D01*
X2119092Y1654699D02*
X2120908D01*
X2118804Y1546699D02*
X2120881D01*
X2118875Y1548499D02*
X2120810D01*
X2118892Y1558399D02*
X2120793D01*
X2118908Y1634899D02*
X2120777D01*
X2118915Y1643899D02*
X2120770D01*
X2118920Y1644799D02*
X2120765D01*
X2118926Y1633999D02*
X2120759D01*
X2118934Y1557499D02*
X2120751D01*
X2118940Y1547599D02*
X2120746D01*
X2105542Y1571899D02*
X2114458D01*
X2105326Y1640299D02*
X2114359D01*
X2105722Y1563799D02*
X2114278D01*
X2105604Y1648399D02*
X2114081D01*
X2106541Y1504399D02*
X2113931D01*
X2105861Y1630399D02*
X2113824D01*
X2106808Y1514299D02*
X2113665D01*
X2106410Y1658299D02*
X2113590D01*
X2106970Y1697899D02*
X2113503D01*
X2106232Y1553899D02*
X2113453D01*
X2107030Y1524199D02*
X2113443D01*
X2107035Y1685299D02*
X2113438D01*
X2107170Y1687999D02*
X2113303D01*
X2107227Y1695199D02*
X2113246D01*
X2106484Y1543999D02*
X2113201D01*
X2107346Y1678099D02*
X2113126D01*
X2107350Y1516999D02*
X2113122D01*
X2107397Y1705099D02*
X2113076D01*
X2107508Y1507099D02*
X2112964D01*
X2107651Y1497199D02*
X2112821D01*
X2107364Y1651099D02*
X2112636D01*
X2107069Y1551199D02*
X2112616D01*
X2107217Y1561099D02*
X2112468D01*
X2108045Y1503499D02*
X2112428D01*
X2107607Y1570999D02*
X2112393D01*
X2107641Y1564699D02*
X2112359D01*
X2108148Y1513399D02*
X2112325D01*
X2107370Y1637599D02*
X2112315D01*
X2108217Y1698799D02*
X2112256D01*
X2107441Y1641199D02*
X2112244D01*
X2108243Y1523299D02*
X2112229D01*
X2108246Y1684399D02*
X2112227D01*
X2107492Y1647499D02*
X2112193D01*
X2108308Y1688899D02*
X2112164D01*
X2107848Y1657399D02*
X2112152D01*
X2108335Y1694299D02*
X2112137D01*
X2107559Y1631299D02*
X2112127D01*
X2108394Y1678999D02*
X2112079D01*
X2108396Y1517899D02*
X2112077D01*
X2108419Y1704199D02*
X2112053D01*
X2107682Y1554799D02*
X2112003D01*
X2108476Y1507999D02*
X2111997D01*
X2108551Y1498099D02*
X2111922D01*
X2107783Y1544899D02*
X2111902D01*
X2108287Y1651999D02*
X2111713D01*
X2108765Y1502599D02*
X2111707D01*
X2108823Y1512499D02*
X2111650D01*
X2108059Y1550299D02*
X2111626D01*
X2108861Y1699699D02*
X2111611D01*
X2108876Y1522399D02*
X2111596D01*
X2108877Y1683499D02*
X2111595D01*
X2108418Y1570099D02*
X2111582D01*
X2108437Y1565599D02*
X2111563D01*
X2108912Y1689799D02*
X2111560D01*
X2108135Y1560199D02*
X2111550D01*
X2108928Y1693399D02*
X2111545D01*
X2108960Y1679899D02*
X2111512D01*
X2108961Y1518799D02*
X2111511D01*
X2108974Y1703299D02*
X2111498D01*
X2108217Y1636699D02*
X2111468D01*
X2109006Y1508899D02*
X2111467D01*
X2108551Y1656499D02*
X2111449D01*
X2108256Y1642099D02*
X2111429D01*
X2109047Y1498999D02*
X2111426D01*
X2108284Y1646599D02*
X2111401D01*
X2108320Y1632199D02*
X2111365D01*
X2109161Y1501699D02*
X2111312D01*
X2108389Y1555699D02*
X2111296D01*
X2109190Y1511599D02*
X2111283D01*
X2109208Y1700599D02*
X2111264D01*
X2109216Y1521499D02*
X2111257D01*
X2109216Y1682599D02*
X2111256D01*
X2108445Y1545799D02*
X2111240D01*
X2109233Y1690699D02*
X2111240D01*
X2109240Y1692499D02*
X2111233D01*
X2109254Y1680799D02*
X2111218D01*
X2109255Y1519699D02*
X2111218D01*
X2109260Y1702399D02*
X2111212D01*
X2108796Y1652899D02*
X2111204D01*
X2109274Y1509799D02*
X2111199D01*
X2109290Y1499899D02*
X2111182D01*
X2109326Y1500799D02*
X2111146D01*
X2109332Y1510699D02*
X2111140D01*
X2109335Y1701499D02*
X2111138D01*
X2109335Y1520599D02*
X2111137D01*
X2109335Y1681699D02*
X2111137D01*
X2109336Y1691599D02*
X2111136D01*
X2108866Y1569199D02*
X2111134D01*
X2108876Y1566499D02*
X2111124D01*
X2108599Y1549399D02*
X2111086D01*
X2108935Y1655599D02*
X2111065D01*
X2108641Y1559299D02*
X2111044D01*
X2108686Y1635799D02*
X2110999D01*
X2108706Y1642999D02*
X2110979D01*
X2108721Y1645699D02*
X2110964D01*
X2109048Y1653799D02*
X2110952D01*
X2108740Y1633099D02*
X2110945D01*
X2109074Y1568299D02*
X2110926D01*
X2109077Y1567399D02*
X2110923D01*
X2108776Y1556599D02*
X2110909D01*
X2109092Y1654699D02*
X2110908D01*
X2108804Y1546699D02*
X2110881D01*
X2108875Y1548499D02*
X2110810D01*
X2108892Y1558399D02*
X2110793D01*
X2108908Y1634899D02*
X2110777D01*
X2108915Y1643899D02*
X2110770D01*
X2108920Y1644799D02*
X2110765D01*
X2108926Y1633999D02*
X2110759D01*
X2108934Y1557499D02*
X2110751D01*
X2108940Y1547599D02*
X2110746D01*
X2095542Y1571899D02*
X2104458D01*
X2095326Y1640299D02*
X2104359D01*
X2095722Y1563799D02*
X2104278D01*
X2095604Y1648399D02*
X2104081D01*
X2096541Y1504399D02*
X2103931D01*
X2095861Y1630399D02*
X2103824D01*
X2096808Y1514299D02*
X2103665D01*
X2096410Y1658299D02*
X2103590D01*
X2096970Y1697899D02*
X2103503D01*
X2096232Y1553899D02*
X2103453D01*
X2097030Y1524199D02*
X2103443D01*
X2097035Y1685299D02*
X2103438D01*
X2097170Y1687999D02*
X2103303D01*
X2097227Y1695199D02*
X2103246D01*
X2096484Y1543999D02*
X2103201D01*
X2097346Y1678099D02*
X2103126D01*
X2097350Y1516999D02*
X2103122D01*
X2097397Y1705099D02*
X2103076D01*
X2097508Y1507099D02*
X2102964D01*
X2097651Y1497199D02*
X2102821D01*
X2097364Y1651099D02*
X2102636D01*
X2097069Y1551199D02*
X2102616D01*
X2097217Y1561099D02*
X2102468D01*
X2098045Y1503499D02*
X2102428D01*
X2097607Y1570999D02*
X2102393D01*
X2097641Y1564699D02*
X2102359D01*
X2098148Y1513399D02*
X2102325D01*
X2097370Y1637599D02*
X2102315D01*
X2098217Y1698799D02*
X2102256D01*
X2097441Y1641199D02*
X2102244D01*
X2098243Y1523299D02*
X2102229D01*
X2098246Y1684399D02*
X2102227D01*
X2097492Y1647499D02*
X2102193D01*
X2098308Y1688899D02*
X2102164D01*
X2097848Y1657399D02*
X2102152D01*
X2098335Y1694299D02*
X2102137D01*
X2097559Y1631299D02*
X2102127D01*
X2098394Y1678999D02*
X2102079D01*
X2098396Y1517899D02*
X2102077D01*
X2098419Y1704199D02*
X2102053D01*
X2097682Y1554799D02*
X2102003D01*
X2098476Y1507999D02*
X2101997D01*
X2098551Y1498099D02*
X2101922D01*
X2097783Y1544899D02*
X2101902D01*
X2098287Y1651999D02*
X2101713D01*
X2098765Y1502599D02*
X2101707D01*
X2098823Y1512499D02*
X2101650D01*
X2098059Y1550299D02*
X2101626D01*
X2098861Y1699699D02*
X2101611D01*
X2098876Y1522399D02*
X2101596D01*
X2098877Y1683499D02*
X2101595D01*
X2098418Y1570099D02*
X2101582D01*
X2098437Y1565599D02*
X2101563D01*
X2098912Y1689799D02*
X2101560D01*
X2098135Y1560199D02*
X2101550D01*
X2098928Y1693399D02*
X2101545D01*
X2098960Y1679899D02*
X2101512D01*
X2098961Y1518799D02*
X2101511D01*
X2098974Y1703299D02*
X2101498D01*
X2098217Y1636699D02*
X2101468D01*
X2099006Y1508899D02*
X2101467D01*
X2098551Y1656499D02*
X2101449D01*
X2098256Y1642099D02*
X2101429D01*
X2099047Y1498999D02*
X2101426D01*
X2098284Y1646599D02*
X2101401D01*
X2098320Y1632199D02*
X2101365D01*
X2099161Y1501699D02*
X2101312D01*
X2098389Y1555699D02*
X2101296D01*
X2099190Y1511599D02*
X2101283D01*
X2099208Y1700599D02*
X2101264D01*
X2099216Y1521499D02*
X2101257D01*
X2099216Y1682599D02*
X2101256D01*
X2098445Y1545799D02*
X2101240D01*
X2099233Y1690699D02*
X2101240D01*
X2099240Y1692499D02*
X2101233D01*
X2099254Y1680799D02*
X2101218D01*
X2099255Y1519699D02*
X2101218D01*
X2099260Y1702399D02*
X2101212D01*
X2098796Y1652899D02*
X2101204D01*
X2099274Y1509799D02*
X2101199D01*
X2099290Y1499899D02*
X2101182D01*
X2099326Y1500799D02*
X2101146D01*
X2099332Y1510699D02*
X2101140D01*
X2099335Y1701499D02*
X2101138D01*
X2099335Y1520599D02*
X2101137D01*
X2099335Y1681699D02*
X2101137D01*
X2099336Y1691599D02*
X2101136D01*
X2098866Y1569199D02*
X2101134D01*
X2098876Y1566499D02*
X2101124D01*
X2098599Y1549399D02*
X2101086D01*
X2098935Y1655599D02*
X2101065D01*
X2098641Y1559299D02*
X2101044D01*
X2098686Y1635799D02*
X2100999D01*
X2098706Y1642999D02*
X2100979D01*
X2098721Y1645699D02*
X2100964D01*
X2099048Y1653799D02*
X2100952D01*
X2098740Y1633099D02*
X2100945D01*
X2099074Y1568299D02*
X2100926D01*
X2099077Y1567399D02*
X2100923D01*
X2098776Y1556599D02*
X2100909D01*
X2099092Y1654699D02*
X2100908D01*
X2098804Y1546699D02*
X2100881D01*
X2098875Y1548499D02*
X2100810D01*
X2098892Y1558399D02*
X2100793D01*
X2098908Y1634899D02*
X2100777D01*
X2098915Y1643899D02*
X2100770D01*
X2098920Y1644799D02*
X2100765D01*
X2098926Y1633999D02*
X2100759D01*
X2098934Y1557499D02*
X2100751D01*
X2098940Y1547599D02*
X2100746D01*
X2085542Y1571899D02*
X2094458D01*
X2085326Y1640299D02*
X2094359D01*
X2085722Y1563799D02*
X2094278D01*
X2085604Y1648399D02*
X2094081D01*
X2086541Y1504399D02*
X2093931D01*
X2085861Y1630399D02*
X2093824D01*
X2086808Y1514299D02*
X2093665D01*
X2086410Y1658299D02*
X2093590D01*
X2086970Y1697899D02*
X2093503D01*
X2086232Y1553899D02*
X2093453D01*
X2087030Y1524199D02*
X2093443D01*
X2087035Y1685299D02*
X2093438D01*
X2087170Y1687999D02*
X2093303D01*
X2087227Y1695199D02*
X2093246D01*
X2086484Y1543999D02*
X2093201D01*
X2087346Y1678099D02*
X2093126D01*
X2087350Y1516999D02*
X2093122D01*
X2087397Y1705099D02*
X2093076D01*
X2087508Y1507099D02*
X2092964D01*
X2087651Y1497199D02*
X2092821D01*
X2087364Y1651099D02*
X2092636D01*
X2087069Y1551199D02*
X2092616D01*
X2087217Y1561099D02*
X2092468D01*
X2088045Y1503499D02*
X2092428D01*
X2087607Y1570999D02*
X2092393D01*
X2087641Y1564699D02*
X2092359D01*
X2088148Y1513399D02*
X2092325D01*
X2087370Y1637599D02*
X2092315D01*
X2088217Y1698799D02*
X2092256D01*
X2087441Y1641199D02*
X2092244D01*
X2088243Y1523299D02*
X2092229D01*
X2088246Y1684399D02*
X2092227D01*
X2087492Y1647499D02*
X2092193D01*
X2088308Y1688899D02*
X2092164D01*
X2087848Y1657399D02*
X2092152D01*
X2088335Y1694299D02*
X2092137D01*
X2087559Y1631299D02*
X2092127D01*
X2088394Y1678999D02*
X2092079D01*
X2088396Y1517899D02*
X2092077D01*
X2088419Y1704199D02*
X2092053D01*
X2087682Y1554799D02*
X2092003D01*
X2088476Y1507999D02*
X2091997D01*
X2088551Y1498099D02*
X2091922D01*
X2087783Y1544899D02*
X2091902D01*
X2088287Y1651999D02*
X2091713D01*
X2088765Y1502599D02*
X2091707D01*
X2088823Y1512499D02*
X2091650D01*
X2088059Y1550299D02*
X2091626D01*
X2088861Y1699699D02*
X2091611D01*
X2088876Y1522399D02*
X2091596D01*
X2088877Y1683499D02*
X2091595D01*
X2088418Y1570099D02*
X2091582D01*
X2088437Y1565599D02*
X2091563D01*
X2088912Y1689799D02*
X2091560D01*
X2088135Y1560199D02*
X2091550D01*
X2088928Y1693399D02*
X2091545D01*
X2088960Y1679899D02*
X2091512D01*
X2088961Y1518799D02*
X2091511D01*
X2088974Y1703299D02*
X2091498D01*
X2088217Y1636699D02*
X2091468D01*
X2089006Y1508899D02*
X2091467D01*
X2088551Y1656499D02*
X2091449D01*
X2088256Y1642099D02*
X2091429D01*
X2089047Y1498999D02*
X2091426D01*
X2088284Y1646599D02*
X2091401D01*
X2088320Y1632199D02*
X2091365D01*
X2089161Y1501699D02*
X2091312D01*
X2088389Y1555699D02*
X2091296D01*
X2089190Y1511599D02*
X2091283D01*
X2089208Y1700599D02*
X2091264D01*
X2089216Y1521499D02*
X2091257D01*
X2089216Y1682599D02*
X2091256D01*
X2088445Y1545799D02*
X2091240D01*
X2089233Y1690699D02*
X2091240D01*
X2089240Y1692499D02*
X2091233D01*
X2089254Y1680799D02*
X2091218D01*
X2089255Y1519699D02*
X2091218D01*
X2089260Y1702399D02*
X2091212D01*
X2088796Y1652899D02*
X2091204D01*
X2089274Y1509799D02*
X2091199D01*
X2089290Y1499899D02*
X2091182D01*
X2089326Y1500799D02*
X2091146D01*
X2089332Y1510699D02*
X2091140D01*
X2089335Y1701499D02*
X2091138D01*
X2089335Y1520599D02*
X2091137D01*
X2089335Y1681699D02*
X2091137D01*
X2089336Y1691599D02*
X2091136D01*
X2088866Y1569199D02*
X2091134D01*
X2088876Y1566499D02*
X2091124D01*
X2088599Y1549399D02*
X2091086D01*
X2088935Y1655599D02*
X2091065D01*
X2088641Y1559299D02*
X2091044D01*
X2088686Y1635799D02*
X2090999D01*
X2088706Y1642999D02*
X2090979D01*
X2088721Y1645699D02*
X2090964D01*
X2089048Y1653799D02*
X2090952D01*
X2088740Y1633099D02*
X2090945D01*
X2089074Y1568299D02*
X2090926D01*
X2089077Y1567399D02*
X2090923D01*
X2088776Y1556599D02*
X2090909D01*
X2089092Y1654699D02*
X2090908D01*
X2088804Y1546699D02*
X2090881D01*
X2088875Y1548499D02*
X2090810D01*
X2088892Y1558399D02*
X2090793D01*
X2088908Y1634899D02*
X2090777D01*
X2088915Y1643899D02*
X2090770D01*
X2088920Y1644799D02*
X2090765D01*
X2088926Y1633999D02*
X2090759D01*
X2088934Y1557499D02*
X2090751D01*
X2088940Y1547599D02*
X2090746D01*
X2075542Y1571899D02*
X2084458D01*
X2075326Y1640299D02*
X2084359D01*
X2075722Y1563799D02*
X2084278D01*
X2075604Y1648399D02*
X2084081D01*
X2076541Y1504399D02*
X2083931D01*
X2075861Y1630399D02*
X2083824D01*
X2076808Y1514299D02*
X2083665D01*
X2076410Y1658299D02*
X2083590D01*
X2076970Y1697899D02*
X2083503D01*
X2076232Y1553899D02*
X2083453D01*
X2077030Y1524199D02*
X2083443D01*
X2077035Y1685299D02*
X2083438D01*
X2077170Y1687999D02*
X2083303D01*
X2077227Y1695199D02*
X2083246D01*
X2076484Y1543999D02*
X2083201D01*
X2077346Y1678099D02*
X2083126D01*
X2077350Y1516999D02*
X2083122D01*
X2077397Y1705099D02*
X2083076D01*
X2077508Y1507099D02*
X2082964D01*
X2077651Y1497199D02*
X2082821D01*
X2077364Y1651099D02*
X2082636D01*
X2077069Y1551199D02*
X2082616D01*
X2077217Y1561099D02*
X2082468D01*
X2078045Y1503499D02*
X2082428D01*
X2077607Y1570999D02*
X2082393D01*
X2077641Y1564699D02*
X2082359D01*
X2078148Y1513399D02*
X2082325D01*
X2077370Y1637599D02*
X2082315D01*
X2078217Y1698799D02*
X2082256D01*
X2077441Y1641199D02*
X2082244D01*
X2078243Y1523299D02*
X2082229D01*
X2078246Y1684399D02*
X2082227D01*
X2077492Y1647499D02*
X2082193D01*
X2078308Y1688899D02*
X2082164D01*
X2077848Y1657399D02*
X2082152D01*
X2078335Y1694299D02*
X2082137D01*
X2077559Y1631299D02*
X2082127D01*
X2078394Y1678999D02*
X2082079D01*
X2078396Y1517899D02*
X2082077D01*
X2078419Y1704199D02*
X2082053D01*
X2077682Y1554799D02*
X2082003D01*
X2078476Y1507999D02*
X2081997D01*
X2078551Y1498099D02*
X2081922D01*
X2077783Y1544899D02*
X2081902D01*
X2078287Y1651999D02*
X2081713D01*
X2078765Y1502599D02*
X2081707D01*
X2078823Y1512499D02*
X2081650D01*
X2078059Y1550299D02*
X2081626D01*
X2078861Y1699699D02*
X2081611D01*
X2078876Y1522399D02*
X2081596D01*
X2078877Y1683499D02*
X2081595D01*
X2078418Y1570099D02*
X2081582D01*
X2078437Y1565599D02*
X2081563D01*
X2078912Y1689799D02*
X2081560D01*
X2078135Y1560199D02*
X2081550D01*
X2078928Y1693399D02*
X2081545D01*
X2078960Y1679899D02*
X2081512D01*
X2078961Y1518799D02*
X2081511D01*
X2078974Y1703299D02*
X2081498D01*
X2078217Y1636699D02*
X2081468D01*
X2079006Y1508899D02*
X2081467D01*
X2078551Y1656499D02*
X2081449D01*
X2078256Y1642099D02*
X2081429D01*
X2079047Y1498999D02*
X2081426D01*
X2078284Y1646599D02*
X2081401D01*
X2078320Y1632199D02*
X2081365D01*
X2079161Y1501699D02*
X2081312D01*
X2078389Y1555699D02*
X2081296D01*
X2079190Y1511599D02*
X2081283D01*
X2079208Y1700599D02*
X2081264D01*
X2079216Y1521499D02*
X2081257D01*
X2079216Y1682599D02*
X2081256D01*
X2078445Y1545799D02*
X2081240D01*
X2079233Y1690699D02*
X2081240D01*
X2079240Y1692499D02*
X2081233D01*
X2079254Y1680799D02*
X2081218D01*
X2079255Y1519699D02*
X2081218D01*
X2079260Y1702399D02*
X2081212D01*
X2078796Y1652899D02*
X2081204D01*
X2079274Y1509799D02*
X2081199D01*
X2079290Y1499899D02*
X2081182D01*
X2079326Y1500799D02*
X2081146D01*
X2079332Y1510699D02*
X2081140D01*
X2079335Y1701499D02*
X2081138D01*
X2079335Y1520599D02*
X2081137D01*
X2079335Y1681699D02*
X2081137D01*
X2079336Y1691599D02*
X2081136D01*
X2078866Y1569199D02*
X2081134D01*
X2078876Y1566499D02*
X2081124D01*
X2078599Y1549399D02*
X2081086D01*
X2078935Y1655599D02*
X2081065D01*
X2078641Y1559299D02*
X2081044D01*
X2078686Y1635799D02*
X2080999D01*
X2078706Y1642999D02*
X2080979D01*
X2078721Y1645699D02*
X2080964D01*
X2079048Y1653799D02*
X2080952D01*
X2078740Y1633099D02*
X2080945D01*
X2079074Y1568299D02*
X2080926D01*
X2079077Y1567399D02*
X2080923D01*
X2078776Y1556599D02*
X2080909D01*
X2079092Y1654699D02*
X2080908D01*
X2078804Y1546699D02*
X2080881D01*
X2078875Y1548499D02*
X2080810D01*
X2078892Y1558399D02*
X2080793D01*
X2078908Y1634899D02*
X2080777D01*
X2078915Y1643899D02*
X2080770D01*
X2078920Y1644799D02*
X2080765D01*
X2078926Y1633999D02*
X2080759D01*
X2078934Y1557499D02*
X2080751D01*
X2078940Y1547599D02*
X2080746D01*
X2065542Y1571899D02*
X2074458D01*
X2065326Y1640299D02*
X2074359D01*
X2065722Y1563799D02*
X2074278D01*
X2065604Y1648399D02*
X2074081D01*
X2066541Y1504399D02*
X2073931D01*
X2065861Y1630399D02*
X2073824D01*
X2066808Y1514299D02*
X2073665D01*
X2066410Y1658299D02*
X2073590D01*
X2066970Y1697899D02*
X2073503D01*
X2066232Y1553899D02*
X2073453D01*
X2067030Y1524199D02*
X2073443D01*
X2067035Y1685299D02*
X2073438D01*
X2067170Y1687999D02*
X2073303D01*
X2067227Y1695199D02*
X2073246D01*
X2066484Y1543999D02*
X2073201D01*
X2067346Y1678099D02*
X2073126D01*
X2067350Y1516999D02*
X2073122D01*
X2067397Y1705099D02*
X2073076D01*
X2067508Y1507099D02*
X2072964D01*
X2067651Y1497199D02*
X2072821D01*
X2067364Y1651099D02*
X2072636D01*
X2067069Y1551199D02*
X2072616D01*
X2067217Y1561099D02*
X2072468D01*
X2068045Y1503499D02*
X2072428D01*
X2067607Y1570999D02*
X2072393D01*
X2067641Y1564699D02*
X2072359D01*
X2068148Y1513399D02*
X2072325D01*
X2067370Y1637599D02*
X2072315D01*
X2068217Y1698799D02*
X2072256D01*
X2067441Y1641199D02*
X2072244D01*
X2068243Y1523299D02*
X2072229D01*
X2068246Y1684399D02*
X2072227D01*
X2067492Y1647499D02*
X2072193D01*
X2068308Y1688899D02*
X2072164D01*
X2067848Y1657399D02*
X2072152D01*
X2068335Y1694299D02*
X2072137D01*
X2067559Y1631299D02*
X2072127D01*
X2068394Y1678999D02*
X2072079D01*
X2068396Y1517899D02*
X2072077D01*
X2068419Y1704199D02*
X2072053D01*
X2067682Y1554799D02*
X2072003D01*
X2068476Y1507999D02*
X2071997D01*
X2068551Y1498099D02*
X2071922D01*
X2067783Y1544899D02*
X2071902D01*
X2068287Y1651999D02*
X2071713D01*
X2068765Y1502599D02*
X2071707D01*
X2068823Y1512499D02*
X2071650D01*
X2068059Y1550299D02*
X2071626D01*
X2068861Y1699699D02*
X2071611D01*
X2068876Y1522399D02*
X2071596D01*
X2068877Y1683499D02*
X2071595D01*
X2068418Y1570099D02*
X2071582D01*
X2068437Y1565599D02*
X2071563D01*
X2068912Y1689799D02*
X2071560D01*
X2068135Y1560199D02*
X2071550D01*
X2068928Y1693399D02*
X2071545D01*
X2068960Y1679899D02*
X2071512D01*
X2068961Y1518799D02*
X2071511D01*
X2068974Y1703299D02*
X2071498D01*
X2068217Y1636699D02*
X2071468D01*
X2069006Y1508899D02*
X2071467D01*
X2068551Y1656499D02*
X2071449D01*
X2068256Y1642099D02*
X2071429D01*
X2069047Y1498999D02*
X2071426D01*
X2068284Y1646599D02*
X2071401D01*
X2068320Y1632199D02*
X2071365D01*
X2069161Y1501699D02*
X2071312D01*
X2068389Y1555699D02*
X2071296D01*
X2069190Y1511599D02*
X2071283D01*
X2069208Y1700599D02*
X2071264D01*
X2069216Y1521499D02*
X2071257D01*
X2069216Y1682599D02*
X2071256D01*
X2068445Y1545799D02*
X2071240D01*
X2069233Y1690699D02*
X2071240D01*
X2069240Y1692499D02*
X2071233D01*
X2069254Y1680799D02*
X2071218D01*
X2069255Y1519699D02*
X2071218D01*
X2069260Y1702399D02*
X2071212D01*
X2068796Y1652899D02*
X2071204D01*
X2069274Y1509799D02*
X2071199D01*
X2069290Y1499899D02*
X2071182D01*
X2069326Y1500799D02*
X2071146D01*
X2069332Y1510699D02*
X2071140D01*
X2069335Y1701499D02*
X2071138D01*
X2069335Y1520599D02*
X2071137D01*
X2069335Y1681699D02*
X2071137D01*
X2069336Y1691599D02*
X2071136D01*
X2068866Y1569199D02*
X2071134D01*
X2068876Y1566499D02*
X2071124D01*
X2068599Y1549399D02*
X2071086D01*
X2068935Y1655599D02*
X2071065D01*
X2068641Y1559299D02*
X2071044D01*
X2068686Y1635799D02*
X2070999D01*
X2068706Y1642999D02*
X2070979D01*
X2068721Y1645699D02*
X2070964D01*
X2069048Y1653799D02*
X2070952D01*
X2068740Y1633099D02*
X2070945D01*
X2069074Y1568299D02*
X2070926D01*
X2069077Y1567399D02*
X2070923D01*
X2068776Y1556599D02*
X2070909D01*
X2069092Y1654699D02*
X2070908D01*
X2068804Y1546699D02*
X2070881D01*
X2068875Y1548499D02*
X2070810D01*
X2068892Y1558399D02*
X2070793D01*
X2068908Y1634899D02*
X2070777D01*
X2068915Y1643899D02*
X2070770D01*
X2068920Y1644799D02*
X2070765D01*
X2068926Y1633999D02*
X2070759D01*
X2068934Y1557499D02*
X2070751D01*
X2068940Y1547599D02*
X2070746D01*
X2055542Y1571899D02*
X2064458D01*
X2055326Y1640299D02*
X2064359D01*
X2055722Y1563799D02*
X2064278D01*
X2055604Y1648399D02*
X2064081D01*
X2056541Y1504399D02*
X2063931D01*
X2055861Y1630399D02*
X2063824D01*
X2056808Y1514299D02*
X2063665D01*
X2056410Y1658299D02*
X2063590D01*
X2056970Y1697899D02*
X2063503D01*
X2056232Y1553899D02*
X2063453D01*
X2057030Y1524199D02*
X2063443D01*
X2057035Y1685299D02*
X2063438D01*
X2057170Y1687999D02*
X2063303D01*
X2057227Y1695199D02*
X2063246D01*
X2056484Y1543999D02*
X2063201D01*
X2057346Y1678099D02*
X2063126D01*
X2057350Y1516999D02*
X2063122D01*
X2057397Y1705099D02*
X2063076D01*
X2057508Y1507099D02*
X2062964D01*
X2057651Y1497199D02*
X2062821D01*
X2057364Y1651099D02*
X2062636D01*
X2057069Y1551199D02*
X2062616D01*
X2057217Y1561099D02*
X2062468D01*
X2058045Y1503499D02*
X2062428D01*
X2057607Y1570999D02*
X2062393D01*
X2057641Y1564699D02*
X2062359D01*
X2058148Y1513399D02*
X2062325D01*
X2057370Y1637599D02*
X2062315D01*
X2058217Y1698799D02*
X2062256D01*
X2057441Y1641199D02*
X2062244D01*
X2058243Y1523299D02*
X2062229D01*
X2058246Y1684399D02*
X2062227D01*
X2057492Y1647499D02*
X2062193D01*
X2058308Y1688899D02*
X2062164D01*
X2057848Y1657399D02*
X2062152D01*
X2058335Y1694299D02*
X2062137D01*
X2057559Y1631299D02*
X2062127D01*
X2058394Y1678999D02*
X2062079D01*
X2058396Y1517899D02*
X2062077D01*
X2058419Y1704199D02*
X2062053D01*
X2057682Y1554799D02*
X2062003D01*
X2058476Y1507999D02*
X2061997D01*
X2058551Y1498099D02*
X2061922D01*
X2057783Y1544899D02*
X2061902D01*
X2058287Y1651999D02*
X2061713D01*
X2058765Y1502599D02*
X2061707D01*
X2058823Y1512499D02*
X2061650D01*
X2058059Y1550299D02*
X2061626D01*
X2058861Y1699699D02*
X2061611D01*
X2058876Y1522399D02*
X2061596D01*
X2058877Y1683499D02*
X2061595D01*
X2058418Y1570099D02*
X2061582D01*
X2058437Y1565599D02*
X2061563D01*
X2058912Y1689799D02*
X2061560D01*
X2058135Y1560199D02*
X2061550D01*
X2058928Y1693399D02*
X2061545D01*
X2058960Y1679899D02*
X2061512D01*
X2058961Y1518799D02*
X2061511D01*
X2058974Y1703299D02*
X2061498D01*
X2058217Y1636699D02*
X2061468D01*
X2059006Y1508899D02*
X2061467D01*
X2058551Y1656499D02*
X2061449D01*
X2058256Y1642099D02*
X2061429D01*
X2059047Y1498999D02*
X2061426D01*
X2058284Y1646599D02*
X2061401D01*
X2058320Y1632199D02*
X2061365D01*
X2059161Y1501699D02*
X2061312D01*
X2058389Y1555699D02*
X2061296D01*
X2059190Y1511599D02*
X2061283D01*
X2059208Y1700599D02*
X2061264D01*
X2059216Y1521499D02*
X2061257D01*
X2059216Y1682599D02*
X2061256D01*
X2058445Y1545799D02*
X2061240D01*
X2059233Y1690699D02*
X2061240D01*
X2059240Y1692499D02*
X2061233D01*
X2059254Y1680799D02*
X2061218D01*
X2059255Y1519699D02*
X2061218D01*
X2059260Y1702399D02*
X2061212D01*
X2058796Y1652899D02*
X2061204D01*
X2059274Y1509799D02*
X2061199D01*
X2059290Y1499899D02*
X2061182D01*
X2059326Y1500799D02*
X2061146D01*
X2059332Y1510699D02*
X2061140D01*
X2059335Y1701499D02*
X2061138D01*
X2059335Y1520599D02*
X2061137D01*
X2059335Y1681699D02*
X2061137D01*
X2059336Y1691599D02*
X2061136D01*
X2058866Y1569199D02*
X2061134D01*
X2058876Y1566499D02*
X2061124D01*
X2058599Y1549399D02*
X2061086D01*
X2058935Y1655599D02*
X2061065D01*
X2058641Y1559299D02*
X2061044D01*
X2058686Y1635799D02*
X2060999D01*
X2058706Y1642999D02*
X2060979D01*
X2058721Y1645699D02*
X2060964D01*
X2059048Y1653799D02*
X2060952D01*
X2058740Y1633099D02*
X2060945D01*
X2059074Y1568299D02*
X2060926D01*
X2059077Y1567399D02*
X2060923D01*
X2058776Y1556599D02*
X2060909D01*
X2059092Y1654699D02*
X2060908D01*
X2058804Y1546699D02*
X2060881D01*
X2058875Y1548499D02*
X2060810D01*
X2058892Y1558399D02*
X2060793D01*
X2058908Y1634899D02*
X2060777D01*
X2058915Y1643899D02*
X2060770D01*
X2058920Y1644799D02*
X2060765D01*
X2058926Y1633999D02*
X2060759D01*
X2058934Y1557499D02*
X2060751D01*
X2058940Y1547599D02*
X2060746D01*
X2045542Y1571899D02*
X2054458D01*
X2045326Y1640299D02*
X2054359D01*
X2045722Y1563799D02*
X2054278D01*
X2045604Y1648399D02*
X2054081D01*
X2046541Y1504399D02*
X2053931D01*
X2045861Y1630399D02*
X2053824D01*
X2046808Y1514299D02*
X2053665D01*
X2046410Y1658299D02*
X2053590D01*
X2046970Y1697899D02*
X2053503D01*
X2046232Y1553899D02*
X2053453D01*
X2047030Y1524199D02*
X2053443D01*
X2047035Y1685299D02*
X2053438D01*
X2047170Y1687999D02*
X2053303D01*
X2047227Y1695199D02*
X2053246D01*
X2046484Y1543999D02*
X2053201D01*
X2047346Y1678099D02*
X2053126D01*
X2047350Y1516999D02*
X2053122D01*
X2047397Y1705099D02*
X2053076D01*
X2047508Y1507099D02*
X2052964D01*
X2047651Y1497199D02*
X2052821D01*
X2047364Y1651099D02*
X2052636D01*
X2047069Y1551199D02*
X2052616D01*
X2047217Y1561099D02*
X2052468D01*
X2048045Y1503499D02*
X2052428D01*
X2047607Y1570999D02*
X2052393D01*
X2047641Y1564699D02*
X2052359D01*
X2048148Y1513399D02*
X2052325D01*
X2047370Y1637599D02*
X2052315D01*
X2048217Y1698799D02*
X2052256D01*
X2047441Y1641199D02*
X2052244D01*
X2048243Y1523299D02*
X2052229D01*
X2048246Y1684399D02*
X2052227D01*
X2047492Y1647499D02*
X2052193D01*
X2048308Y1688899D02*
X2052164D01*
X2047848Y1657399D02*
X2052152D01*
X2048335Y1694299D02*
X2052137D01*
X2047559Y1631299D02*
X2052127D01*
X2048394Y1678999D02*
X2052079D01*
X2048396Y1517899D02*
X2052077D01*
X2048419Y1704199D02*
X2052053D01*
X2047682Y1554799D02*
X2052003D01*
X2048476Y1507999D02*
X2051997D01*
X2048551Y1498099D02*
X2051922D01*
X2047783Y1544899D02*
X2051902D01*
X2048287Y1651999D02*
X2051713D01*
X2048765Y1502599D02*
X2051707D01*
X2048823Y1512499D02*
X2051650D01*
X2048059Y1550299D02*
X2051626D01*
X2048861Y1699699D02*
X2051611D01*
X2048876Y1522399D02*
X2051596D01*
X2048877Y1683499D02*
X2051595D01*
X2048418Y1570099D02*
X2051582D01*
X2048437Y1565599D02*
X2051563D01*
X2048912Y1689799D02*
X2051560D01*
X2048135Y1560199D02*
X2051550D01*
X2048928Y1693399D02*
X2051545D01*
X2048960Y1679899D02*
X2051512D01*
X2048961Y1518799D02*
X2051511D01*
X2048974Y1703299D02*
X2051498D01*
X2048217Y1636699D02*
X2051468D01*
X2049006Y1508899D02*
X2051467D01*
X2048551Y1656499D02*
X2051449D01*
X2048256Y1642099D02*
X2051429D01*
X2049047Y1498999D02*
X2051426D01*
X2048284Y1646599D02*
X2051401D01*
X2048320Y1632199D02*
X2051365D01*
X2049161Y1501699D02*
X2051312D01*
X2048389Y1555699D02*
X2051296D01*
X2049190Y1511599D02*
X2051283D01*
X2049208Y1700599D02*
X2051264D01*
X2049216Y1521499D02*
X2051257D01*
X2049216Y1682599D02*
X2051256D01*
X2048445Y1545799D02*
X2051240D01*
X2049233Y1690699D02*
X2051240D01*
X2049240Y1692499D02*
X2051233D01*
X2049254Y1680799D02*
X2051218D01*
X2049255Y1519699D02*
X2051218D01*
X2049260Y1702399D02*
X2051212D01*
X2048796Y1652899D02*
X2051204D01*
X2049274Y1509799D02*
X2051199D01*
X2049290Y1499899D02*
X2051182D01*
X2049326Y1500799D02*
X2051146D01*
X2049332Y1510699D02*
X2051140D01*
X2049335Y1701499D02*
X2051138D01*
X2049335Y1520599D02*
X2051137D01*
X2049335Y1681699D02*
X2051137D01*
X2049336Y1691599D02*
X2051136D01*
X2048866Y1569199D02*
X2051134D01*
X2048876Y1566499D02*
X2051124D01*
X2048599Y1549399D02*
X2051086D01*
X2048935Y1655599D02*
X2051065D01*
X2048641Y1559299D02*
X2051044D01*
X2048686Y1635799D02*
X2050999D01*
X2048706Y1642999D02*
X2050979D01*
X2048721Y1645699D02*
X2050964D01*
X2049048Y1653799D02*
X2050952D01*
X2048740Y1633099D02*
X2050945D01*
X2049074Y1568299D02*
X2050926D01*
X2049077Y1567399D02*
X2050923D01*
X2048776Y1556599D02*
X2050909D01*
X2049092Y1654699D02*
X2050908D01*
X2048804Y1546699D02*
X2050881D01*
X2048875Y1548499D02*
X2050810D01*
X2048892Y1558399D02*
X2050793D01*
X2048908Y1634899D02*
X2050777D01*
X2048915Y1643899D02*
X2050770D01*
X2048920Y1644799D02*
X2050765D01*
X2048926Y1633999D02*
X2050759D01*
X2048934Y1557499D02*
X2050751D01*
X2048940Y1547599D02*
X2050746D01*
X2035542Y1571899D02*
X2044458D01*
X2035326Y1640299D02*
X2044359D01*
X2035722Y1563799D02*
X2044278D01*
X2035604Y1648399D02*
X2044081D01*
X2036541Y1504399D02*
X2043931D01*
X2035861Y1630399D02*
X2043824D01*
X2036808Y1514299D02*
X2043665D01*
X2036410Y1658299D02*
X2043590D01*
X2036970Y1697899D02*
X2043503D01*
X2036232Y1553899D02*
X2043453D01*
X2037030Y1524199D02*
X2043443D01*
X2037035Y1685299D02*
X2043438D01*
X2037170Y1687999D02*
X2043303D01*
X2037227Y1695199D02*
X2043246D01*
X2036484Y1543999D02*
X2043201D01*
X2037346Y1678099D02*
X2043126D01*
X2037350Y1516999D02*
X2043122D01*
X2037397Y1705099D02*
X2043076D01*
X2037508Y1507099D02*
X2042964D01*
X2037651Y1497199D02*
X2042821D01*
X2037364Y1651099D02*
X2042636D01*
X2037069Y1551199D02*
X2042616D01*
X2037217Y1561099D02*
X2042468D01*
X2038045Y1503499D02*
X2042428D01*
X2037607Y1570999D02*
X2042393D01*
X2037641Y1564699D02*
X2042359D01*
X2038148Y1513399D02*
X2042325D01*
X2037370Y1637599D02*
X2042315D01*
X2038217Y1698799D02*
X2042256D01*
X2037441Y1641199D02*
X2042244D01*
X2038243Y1523299D02*
X2042229D01*
X2038246Y1684399D02*
X2042227D01*
X2037492Y1647499D02*
X2042193D01*
X2038308Y1688899D02*
X2042164D01*
X2037848Y1657399D02*
X2042152D01*
X2038335Y1694299D02*
X2042137D01*
X2037559Y1631299D02*
X2042127D01*
X2038394Y1678999D02*
X2042079D01*
X2038396Y1517899D02*
X2042077D01*
X2038419Y1704199D02*
X2042053D01*
X2037682Y1554799D02*
X2042003D01*
X2038476Y1507999D02*
X2041997D01*
X2038551Y1498099D02*
X2041922D01*
X2037783Y1544899D02*
X2041902D01*
X2038287Y1651999D02*
X2041713D01*
X2038765Y1502599D02*
X2041707D01*
X2038823Y1512499D02*
X2041650D01*
X2038059Y1550299D02*
X2041626D01*
X2038861Y1699699D02*
X2041611D01*
X2038876Y1522399D02*
X2041596D01*
X2038877Y1683499D02*
X2041595D01*
X2038418Y1570099D02*
X2041582D01*
X2038437Y1565599D02*
X2041563D01*
X2038912Y1689799D02*
X2041560D01*
X2038135Y1560199D02*
X2041550D01*
X2038928Y1693399D02*
X2041545D01*
X2038960Y1679899D02*
X2041512D01*
X2038961Y1518799D02*
X2041511D01*
X2038974Y1703299D02*
X2041498D01*
X2038217Y1636699D02*
X2041468D01*
X2039006Y1508899D02*
X2041467D01*
X2038551Y1656499D02*
X2041449D01*
X2038256Y1642099D02*
X2041429D01*
X2039047Y1498999D02*
X2041426D01*
X2038284Y1646599D02*
X2041401D01*
X2038320Y1632199D02*
X2041365D01*
X2039161Y1501699D02*
X2041312D01*
X2038389Y1555699D02*
X2041296D01*
X2039190Y1511599D02*
X2041283D01*
X2039208Y1700599D02*
X2041264D01*
X2039216Y1521499D02*
X2041257D01*
X2039216Y1682599D02*
X2041256D01*
X2038445Y1545799D02*
X2041240D01*
X2039233Y1690699D02*
X2041240D01*
X2039240Y1692499D02*
X2041233D01*
X2039254Y1680799D02*
X2041218D01*
X2039255Y1519699D02*
X2041218D01*
X2039260Y1702399D02*
X2041212D01*
X2038796Y1652899D02*
X2041204D01*
X2039274Y1509799D02*
X2041199D01*
X2039290Y1499899D02*
X2041182D01*
X2039326Y1500799D02*
X2041146D01*
X2039332Y1510699D02*
X2041140D01*
X2039335Y1701499D02*
X2041138D01*
X2039335Y1520599D02*
X2041137D01*
X2039335Y1681699D02*
X2041137D01*
X2039336Y1691599D02*
X2041136D01*
X2038866Y1569199D02*
X2041134D01*
X2038876Y1566499D02*
X2041124D01*
X2038599Y1549399D02*
X2041086D01*
X2038935Y1655599D02*
X2041065D01*
X2038641Y1559299D02*
X2041044D01*
X2038686Y1635799D02*
X2040999D01*
X2038706Y1642999D02*
X2040979D01*
X2038721Y1645699D02*
X2040964D01*
X2039048Y1653799D02*
X2040952D01*
X2038740Y1633099D02*
X2040945D01*
X2039074Y1568299D02*
X2040926D01*
X2039077Y1567399D02*
X2040923D01*
X2038776Y1556599D02*
X2040909D01*
X2039092Y1654699D02*
X2040908D01*
X2038804Y1546699D02*
X2040881D01*
X2038875Y1548499D02*
X2040810D01*
X2038892Y1558399D02*
X2040793D01*
X2038908Y1634899D02*
X2040777D01*
X2038915Y1643899D02*
X2040770D01*
X2038920Y1644799D02*
X2040765D01*
X2038926Y1633999D02*
X2040759D01*
X2038934Y1557499D02*
X2040751D01*
X2038940Y1547599D02*
X2040746D01*
X2025542Y1571899D02*
X2034458D01*
X2025326Y1640299D02*
X2034359D01*
X2025722Y1563799D02*
X2034278D01*
X2025604Y1648399D02*
X2034081D01*
X2026541Y1504399D02*
X2033931D01*
X2025861Y1630399D02*
X2033824D01*
X2026808Y1514299D02*
X2033665D01*
X2026410Y1658299D02*
X2033590D01*
X2026970Y1697899D02*
X2033503D01*
X2026232Y1553899D02*
X2033453D01*
X2027030Y1524199D02*
X2033443D01*
X2027035Y1685299D02*
X2033438D01*
X2027170Y1687999D02*
X2033303D01*
X2027227Y1695199D02*
X2033246D01*
X2026484Y1543999D02*
X2033201D01*
X2027346Y1678099D02*
X2033126D01*
X2027350Y1516999D02*
X2033122D01*
X2027397Y1705099D02*
X2033076D01*
X2027508Y1507099D02*
X2032964D01*
X2027651Y1497199D02*
X2032821D01*
X2027364Y1651099D02*
X2032636D01*
X2027069Y1551199D02*
X2032616D01*
X2027217Y1561099D02*
X2032468D01*
X2028045Y1503499D02*
X2032428D01*
X2027607Y1570999D02*
X2032393D01*
X2027641Y1564699D02*
X2032359D01*
X2028148Y1513399D02*
X2032325D01*
X2027370Y1637599D02*
X2032315D01*
X2028217Y1698799D02*
X2032256D01*
X2027441Y1641199D02*
X2032244D01*
X2028243Y1523299D02*
X2032229D01*
X2028246Y1684399D02*
X2032227D01*
X2027492Y1647499D02*
X2032193D01*
X2028308Y1688899D02*
X2032164D01*
X2027848Y1657399D02*
X2032152D01*
X2028335Y1694299D02*
X2032137D01*
X2027559Y1631299D02*
X2032127D01*
X2028394Y1678999D02*
X2032079D01*
X2028396Y1517899D02*
X2032077D01*
X2028419Y1704199D02*
X2032053D01*
X2027682Y1554799D02*
X2032003D01*
X2028476Y1507999D02*
X2031997D01*
X2028551Y1498099D02*
X2031922D01*
X2027783Y1544899D02*
X2031902D01*
X2028287Y1651999D02*
X2031713D01*
X2028765Y1502599D02*
X2031707D01*
X2028823Y1512499D02*
X2031650D01*
X2028059Y1550299D02*
X2031626D01*
X2028861Y1699699D02*
X2031611D01*
X2028876Y1522399D02*
X2031596D01*
X2028877Y1683499D02*
X2031595D01*
X2028418Y1570099D02*
X2031582D01*
X2028437Y1565599D02*
X2031563D01*
X2028912Y1689799D02*
X2031560D01*
X2028135Y1560199D02*
X2031550D01*
X2028928Y1693399D02*
X2031545D01*
X2028960Y1679899D02*
X2031512D01*
X2028961Y1518799D02*
X2031511D01*
X2028974Y1703299D02*
X2031498D01*
X2028217Y1636699D02*
X2031468D01*
X2029006Y1508899D02*
X2031467D01*
X2028551Y1656499D02*
X2031449D01*
X2028256Y1642099D02*
X2031429D01*
X2029047Y1498999D02*
X2031426D01*
X2028284Y1646599D02*
X2031401D01*
X2028320Y1632199D02*
X2031365D01*
X2029161Y1501699D02*
X2031312D01*
X2028389Y1555699D02*
X2031296D01*
X2029190Y1511599D02*
X2031283D01*
X2029208Y1700599D02*
X2031264D01*
X2029216Y1521499D02*
X2031257D01*
X2029216Y1682599D02*
X2031256D01*
X2028445Y1545799D02*
X2031240D01*
X2029233Y1690699D02*
X2031240D01*
X2029240Y1692499D02*
X2031233D01*
X2029254Y1680799D02*
X2031218D01*
X2029255Y1519699D02*
X2031218D01*
X2029260Y1702399D02*
X2031212D01*
X2028796Y1652899D02*
X2031204D01*
X2029274Y1509799D02*
X2031199D01*
X2029290Y1499899D02*
X2031182D01*
X2029326Y1500799D02*
X2031146D01*
X2029332Y1510699D02*
X2031140D01*
X2029335Y1701499D02*
X2031138D01*
X2029335Y1520599D02*
X2031137D01*
X2029335Y1681699D02*
X2031137D01*
X2029336Y1691599D02*
X2031136D01*
X2028866Y1569199D02*
X2031134D01*
X2028876Y1566499D02*
X2031124D01*
X2028599Y1549399D02*
X2031086D01*
X2028935Y1655599D02*
X2031065D01*
X2028641Y1559299D02*
X2031044D01*
X2028686Y1635799D02*
X2030999D01*
X2028706Y1642999D02*
X2030979D01*
X2028721Y1645699D02*
X2030964D01*
X2029048Y1653799D02*
X2030952D01*
X2028740Y1633099D02*
X2030945D01*
X2029074Y1568299D02*
X2030926D01*
X2029077Y1567399D02*
X2030923D01*
X2028776Y1556599D02*
X2030909D01*
X2029092Y1654699D02*
X2030908D01*
X2028804Y1546699D02*
X2030881D01*
X2028875Y1548499D02*
X2030810D01*
X2028892Y1558399D02*
X2030793D01*
X2028908Y1634899D02*
X2030777D01*
X2028915Y1643899D02*
X2030770D01*
X2028920Y1644799D02*
X2030765D01*
X2028926Y1633999D02*
X2030759D01*
X2028934Y1557499D02*
X2030751D01*
X2028940Y1547599D02*
X2030746D01*
X2015542Y1571899D02*
X2024458D01*
X2015326Y1640299D02*
X2024359D01*
X2015722Y1563799D02*
X2024278D01*
X2015604Y1648399D02*
X2024081D01*
X2016541Y1504399D02*
X2023931D01*
X2015861Y1630399D02*
X2023824D01*
X2016808Y1514299D02*
X2023665D01*
X2016410Y1658299D02*
X2023590D01*
X2016970Y1697899D02*
X2023503D01*
X2016232Y1553899D02*
X2023453D01*
X2017030Y1524199D02*
X2023443D01*
X2017035Y1685299D02*
X2023438D01*
X2017170Y1687999D02*
X2023303D01*
X2017227Y1695199D02*
X2023246D01*
X2016484Y1543999D02*
X2023201D01*
X2017346Y1678099D02*
X2023126D01*
X2017350Y1516999D02*
X2023122D01*
X2017397Y1705099D02*
X2023076D01*
X2017508Y1507099D02*
X2022964D01*
X2017651Y1497199D02*
X2022821D01*
X2017364Y1651099D02*
X2022636D01*
X2017069Y1551199D02*
X2022616D01*
X2017217Y1561099D02*
X2022468D01*
X2018045Y1503499D02*
X2022428D01*
X2017607Y1570999D02*
X2022393D01*
X2017641Y1564699D02*
X2022359D01*
X2018148Y1513399D02*
X2022325D01*
X2017370Y1637599D02*
X2022315D01*
X2018217Y1698799D02*
X2022256D01*
X2017441Y1641199D02*
X2022244D01*
X2018243Y1523299D02*
X2022229D01*
X2018246Y1684399D02*
X2022227D01*
X2017492Y1647499D02*
X2022193D01*
X2018308Y1688899D02*
X2022164D01*
X2017848Y1657399D02*
X2022152D01*
X2018335Y1694299D02*
X2022137D01*
X2017559Y1631299D02*
X2022127D01*
X2018394Y1678999D02*
X2022079D01*
X2018396Y1517899D02*
X2022077D01*
X2018419Y1704199D02*
X2022053D01*
X2017682Y1554799D02*
X2022003D01*
X2018476Y1507999D02*
X2021997D01*
X2018551Y1498099D02*
X2021922D01*
X2017783Y1544899D02*
X2021902D01*
X2018287Y1651999D02*
X2021713D01*
X2018765Y1502599D02*
X2021707D01*
X2018823Y1512499D02*
X2021650D01*
X2018059Y1550299D02*
X2021626D01*
X2018861Y1699699D02*
X2021611D01*
X2018876Y1522399D02*
X2021596D01*
X2018877Y1683499D02*
X2021595D01*
X2018418Y1570099D02*
X2021582D01*
X2018437Y1565599D02*
X2021563D01*
X2018912Y1689799D02*
X2021560D01*
X2018135Y1560199D02*
X2021550D01*
X2018928Y1693399D02*
X2021545D01*
X2018960Y1679899D02*
X2021512D01*
X2018961Y1518799D02*
X2021511D01*
X2018974Y1703299D02*
X2021498D01*
X2018217Y1636699D02*
X2021468D01*
X2019006Y1508899D02*
X2021467D01*
X2018551Y1656499D02*
X2021449D01*
X2018256Y1642099D02*
X2021429D01*
X2019047Y1498999D02*
X2021426D01*
X2018284Y1646599D02*
X2021401D01*
X2018320Y1632199D02*
X2021365D01*
X2019161Y1501699D02*
X2021312D01*
X2018389Y1555699D02*
X2021296D01*
X2019190Y1511599D02*
X2021283D01*
X2019208Y1700599D02*
X2021264D01*
X2019216Y1521499D02*
X2021257D01*
X2019216Y1682599D02*
X2021256D01*
X2018445Y1545799D02*
X2021240D01*
X2019233Y1690699D02*
X2021240D01*
X2019240Y1692499D02*
X2021233D01*
X2019254Y1680799D02*
X2021218D01*
X2019255Y1519699D02*
X2021218D01*
X2019260Y1702399D02*
X2021212D01*
X2018796Y1652899D02*
X2021204D01*
X2019274Y1509799D02*
X2021199D01*
X2019290Y1499899D02*
X2021182D01*
X2019326Y1500799D02*
X2021146D01*
X2019332Y1510699D02*
X2021140D01*
X2019335Y1701499D02*
X2021138D01*
X2019335Y1520599D02*
X2021137D01*
X2019335Y1681699D02*
X2021137D01*
X2019336Y1691599D02*
X2021136D01*
X2018866Y1569199D02*
X2021134D01*
X2018876Y1566499D02*
X2021124D01*
X2018599Y1549399D02*
X2021086D01*
X2018935Y1655599D02*
X2021065D01*
X2018641Y1559299D02*
X2021044D01*
X2018686Y1635799D02*
X2020999D01*
X2018706Y1642999D02*
X2020979D01*
X2018721Y1645699D02*
X2020964D01*
X2019048Y1653799D02*
X2020952D01*
X2018740Y1633099D02*
X2020945D01*
X2019074Y1568299D02*
X2020926D01*
X2019077Y1567399D02*
X2020923D01*
X2018776Y1556599D02*
X2020909D01*
X2019092Y1654699D02*
X2020908D01*
X2018804Y1546699D02*
X2020881D01*
X2018875Y1548499D02*
X2020810D01*
X2018892Y1558399D02*
X2020793D01*
X2018908Y1634899D02*
X2020777D01*
X2018915Y1643899D02*
X2020770D01*
X2018920Y1644799D02*
X2020765D01*
X2018926Y1633999D02*
X2020759D01*
X2018934Y1557499D02*
X2020751D01*
X2018940Y1547599D02*
X2020746D01*
X2005542Y1571899D02*
X2014458D01*
X2005326Y1640299D02*
X2014359D01*
X2005722Y1563799D02*
X2014278D01*
X2005604Y1648399D02*
X2014081D01*
X2006541Y1504399D02*
X2013931D01*
X2005861Y1630399D02*
X2013824D01*
X2006808Y1514299D02*
X2013665D01*
X2006410Y1658299D02*
X2013590D01*
X2006970Y1697899D02*
X2013503D01*
X2006232Y1553899D02*
X2013453D01*
X2007030Y1524199D02*
X2013443D01*
X2007035Y1685299D02*
X2013438D01*
X2007170Y1687999D02*
X2013303D01*
X2007227Y1695199D02*
X2013246D01*
X2006484Y1543999D02*
X2013201D01*
X2007346Y1678099D02*
X2013126D01*
X2007350Y1516999D02*
X2013122D01*
X2007397Y1705099D02*
X2013076D01*
X2007508Y1507099D02*
X2012964D01*
X2007651Y1497199D02*
X2012821D01*
X2007364Y1651099D02*
X2012636D01*
X2007069Y1551199D02*
X2012616D01*
X2007217Y1561099D02*
X2012468D01*
X2008045Y1503499D02*
X2012428D01*
X2007607Y1570999D02*
X2012393D01*
X2007641Y1564699D02*
X2012359D01*
X2008148Y1513399D02*
X2012325D01*
X2007370Y1637599D02*
X2012315D01*
X2008217Y1698799D02*
X2012256D01*
X2007441Y1641199D02*
X2012244D01*
X2008243Y1523299D02*
X2012229D01*
X2008246Y1684399D02*
X2012227D01*
X2007492Y1647499D02*
X2012193D01*
X2008308Y1688899D02*
X2012164D01*
X2007848Y1657399D02*
X2012152D01*
X2008335Y1694299D02*
X2012137D01*
X2007559Y1631299D02*
X2012127D01*
X2008394Y1678999D02*
X2012079D01*
X2008396Y1517899D02*
X2012077D01*
X2008419Y1704199D02*
X2012053D01*
X2007682Y1554799D02*
X2012003D01*
X2008476Y1507999D02*
X2011997D01*
X2008551Y1498099D02*
X2011922D01*
X2007783Y1544899D02*
X2011902D01*
X2008287Y1651999D02*
X2011713D01*
X2008765Y1502599D02*
X2011707D01*
X2008823Y1512499D02*
X2011650D01*
X2008059Y1550299D02*
X2011626D01*
X2008861Y1699699D02*
X2011611D01*
X2008876Y1522399D02*
X2011596D01*
X2008877Y1683499D02*
X2011595D01*
X2008418Y1570099D02*
X2011582D01*
X2008437Y1565599D02*
X2011563D01*
X2008912Y1689799D02*
X2011560D01*
X2008135Y1560199D02*
X2011550D01*
X2008928Y1693399D02*
X2011545D01*
X2008960Y1679899D02*
X2011512D01*
X2008961Y1518799D02*
X2011511D01*
X2008974Y1703299D02*
X2011498D01*
X2008217Y1636699D02*
X2011468D01*
X2009006Y1508899D02*
X2011467D01*
X2008551Y1656499D02*
X2011449D01*
X2008256Y1642099D02*
X2011429D01*
X2009047Y1498999D02*
X2011426D01*
X2008284Y1646599D02*
X2011401D01*
X2008320Y1632199D02*
X2011365D01*
X2009161Y1501699D02*
X2011312D01*
X2008389Y1555699D02*
X2011296D01*
X2009190Y1511599D02*
X2011283D01*
X2009208Y1700599D02*
X2011264D01*
X2009216Y1521499D02*
X2011257D01*
X2009216Y1682599D02*
X2011256D01*
X2008445Y1545799D02*
X2011240D01*
X2009233Y1690699D02*
X2011240D01*
X2009240Y1692499D02*
X2011233D01*
X2009254Y1680799D02*
X2011218D01*
X2009255Y1519699D02*
X2011218D01*
X2009260Y1702399D02*
X2011212D01*
X2008796Y1652899D02*
X2011204D01*
X2009274Y1509799D02*
X2011199D01*
X2009290Y1499899D02*
X2011182D01*
X2009326Y1500799D02*
X2011146D01*
X2009332Y1510699D02*
X2011140D01*
X2009335Y1701499D02*
X2011138D01*
X2009335Y1520599D02*
X2011137D01*
X2009335Y1681699D02*
X2011137D01*
X2009336Y1691599D02*
X2011136D01*
X2008866Y1569199D02*
X2011134D01*
X2008876Y1566499D02*
X2011124D01*
X2008599Y1549399D02*
X2011086D01*
X2008935Y1655599D02*
X2011065D01*
X2008641Y1559299D02*
X2011044D01*
X2008686Y1635799D02*
X2010999D01*
X2008706Y1642999D02*
X2010979D01*
X2008721Y1645699D02*
X2010964D01*
X2009048Y1653799D02*
X2010952D01*
X2008740Y1633099D02*
X2010945D01*
X2009074Y1568299D02*
X2010926D01*
X2009077Y1567399D02*
X2010923D01*
X2008776Y1556599D02*
X2010909D01*
X2009092Y1654699D02*
X2010908D01*
X2008804Y1546699D02*
X2010881D01*
X2008875Y1548499D02*
X2010810D01*
X2008892Y1558399D02*
X2010793D01*
X2008908Y1634899D02*
X2010777D01*
X2008915Y1643899D02*
X2010770D01*
X2008920Y1644799D02*
X2010765D01*
X2008926Y1633999D02*
X2010759D01*
X2008934Y1557499D02*
X2010751D01*
X2008940Y1547599D02*
X2010746D01*
X1995542Y1571899D02*
X2004458D01*
X1995326Y1640299D02*
X2004359D01*
X1995722Y1563799D02*
X2004278D01*
X1995604Y1648399D02*
X2004081D01*
X1996541Y1504399D02*
X2003931D01*
X1995861Y1630399D02*
X2003824D01*
X1996808Y1514299D02*
X2003665D01*
X1996410Y1658299D02*
X2003590D01*
X1996970Y1697899D02*
X2003503D01*
X1996232Y1553899D02*
X2003453D01*
X1997030Y1524199D02*
X2003443D01*
X1997035Y1685299D02*
X2003438D01*
X1997170Y1687999D02*
X2003303D01*
X1997227Y1695199D02*
X2003246D01*
X1996484Y1543999D02*
X2003201D01*
X1997346Y1678099D02*
X2003126D01*
X1997350Y1516999D02*
X2003122D01*
X1997397Y1705099D02*
X2003076D01*
X1997508Y1507099D02*
X2002964D01*
X1997651Y1497199D02*
X2002821D01*
X1997364Y1651099D02*
X2002636D01*
X1997069Y1551199D02*
X2002616D01*
X1997217Y1561099D02*
X2002468D01*
X1998045Y1503499D02*
X2002428D01*
X1997607Y1570999D02*
X2002393D01*
X1997641Y1564699D02*
X2002359D01*
X1998148Y1513399D02*
X2002325D01*
X1997370Y1637599D02*
X2002315D01*
X1998217Y1698799D02*
X2002256D01*
X1997441Y1641199D02*
X2002244D01*
X1998243Y1523299D02*
X2002229D01*
X1998246Y1684399D02*
X2002227D01*
X1997492Y1647499D02*
X2002193D01*
X1998308Y1688899D02*
X2002164D01*
X1997848Y1657399D02*
X2002152D01*
X1998335Y1694299D02*
X2002137D01*
X1997559Y1631299D02*
X2002127D01*
X1998394Y1678999D02*
X2002079D01*
X1998396Y1517899D02*
X2002077D01*
X1998419Y1704199D02*
X2002053D01*
X1997682Y1554799D02*
X2002003D01*
X1998476Y1507999D02*
X2001997D01*
X1998551Y1498099D02*
X2001922D01*
X1997783Y1544899D02*
X2001902D01*
X1998287Y1651999D02*
X2001713D01*
X1998765Y1502599D02*
X2001707D01*
X1998823Y1512499D02*
X2001650D01*
X1998059Y1550299D02*
X2001626D01*
X1998861Y1699699D02*
X2001611D01*
X1998876Y1522399D02*
X2001596D01*
X1998877Y1683499D02*
X2001595D01*
X1998418Y1570099D02*
X2001582D01*
X1998437Y1565599D02*
X2001563D01*
X1998912Y1689799D02*
X2001560D01*
X1998135Y1560199D02*
X2001550D01*
X1998928Y1693399D02*
X2001545D01*
X1998960Y1679899D02*
X2001512D01*
X1998961Y1518799D02*
X2001511D01*
X1998974Y1703299D02*
X2001498D01*
X1998217Y1636699D02*
X2001468D01*
X1999006Y1508899D02*
X2001467D01*
X1998551Y1656499D02*
X2001449D01*
X1998256Y1642099D02*
X2001429D01*
X1999047Y1498999D02*
X2001426D01*
X1998284Y1646599D02*
X2001401D01*
X1998320Y1632199D02*
X2001365D01*
X1999161Y1501699D02*
X2001312D01*
X1998389Y1555699D02*
X2001296D01*
X1999190Y1511599D02*
X2001283D01*
X1999208Y1700599D02*
X2001264D01*
X1999216Y1521499D02*
X2001257D01*
X1999216Y1682599D02*
X2001256D01*
X1998445Y1545799D02*
X2001240D01*
X1999233Y1690699D02*
X2001240D01*
X1999240Y1692499D02*
X2001233D01*
X1999254Y1680799D02*
X2001218D01*
X1999255Y1519699D02*
X2001218D01*
X1999260Y1702399D02*
X2001212D01*
X1998796Y1652899D02*
X2001204D01*
X1999274Y1509799D02*
X2001199D01*
X1999290Y1499899D02*
X2001182D01*
X1999326Y1500799D02*
X2001146D01*
X1999332Y1510699D02*
X2001140D01*
X1999335Y1701499D02*
X2001138D01*
X1999335Y1520599D02*
X2001137D01*
X1999335Y1681699D02*
X2001137D01*
X1999336Y1691599D02*
X2001136D01*
X1998866Y1569199D02*
X2001134D01*
X1998876Y1566499D02*
X2001124D01*
X1998599Y1549399D02*
X2001086D01*
X1998935Y1655599D02*
X2001065D01*
X1998641Y1559299D02*
X2001044D01*
X1998686Y1635799D02*
X2000999D01*
X1998706Y1642999D02*
X2000979D01*
X1998721Y1645699D02*
X2000964D01*
X1999048Y1653799D02*
X2000952D01*
X1998740Y1633099D02*
X2000945D01*
X1999074Y1568299D02*
X2000926D01*
X1999077Y1567399D02*
X2000923D01*
X1998776Y1556599D02*
X2000909D01*
X1999092Y1654699D02*
X2000908D01*
X1998804Y1546699D02*
X2000881D01*
X1998875Y1548499D02*
X2000810D01*
X1998892Y1558399D02*
X2000793D01*
X1998908Y1634899D02*
X2000777D01*
X1998915Y1643899D02*
X2000770D01*
X1998920Y1644799D02*
X2000765D01*
X1998926Y1633999D02*
X2000759D01*
X1998934Y1557499D02*
X2000751D01*
X1998940Y1547599D02*
X2000746D01*
X1985542Y1571899D02*
X1994458D01*
X1985326Y1640299D02*
X1994359D01*
X1985722Y1563799D02*
X1994278D01*
X1985604Y1648399D02*
X1994081D01*
X1986541Y1504399D02*
X1993931D01*
X1985861Y1630399D02*
X1993824D01*
X1986808Y1514299D02*
X1993665D01*
X1986410Y1658299D02*
X1993590D01*
X1986970Y1697899D02*
X1993503D01*
X1986232Y1553899D02*
X1993453D01*
X1987030Y1524199D02*
X1993443D01*
X1987035Y1685299D02*
X1993438D01*
X1987170Y1687999D02*
X1993303D01*
X1987227Y1695199D02*
X1993246D01*
X1986484Y1543999D02*
X1993201D01*
X1987346Y1678099D02*
X1993126D01*
X1987350Y1516999D02*
X1993122D01*
X1987397Y1705099D02*
X1993076D01*
X1987508Y1507099D02*
X1992964D01*
X1987651Y1497199D02*
X1992821D01*
X1987364Y1651099D02*
X1992636D01*
X1987069Y1551199D02*
X1992616D01*
X1987217Y1561099D02*
X1992468D01*
X1988045Y1503499D02*
X1992428D01*
X1987607Y1570999D02*
X1992393D01*
X1987641Y1564699D02*
X1992359D01*
X1988148Y1513399D02*
X1992325D01*
X1987370Y1637599D02*
X1992315D01*
X1988217Y1698799D02*
X1992256D01*
X1987441Y1641199D02*
X1992244D01*
X1988243Y1523299D02*
X1992229D01*
X1988246Y1684399D02*
X1992227D01*
X1987492Y1647499D02*
X1992193D01*
X1988308Y1688899D02*
X1992164D01*
X1987848Y1657399D02*
X1992152D01*
X1988335Y1694299D02*
X1992137D01*
X1987559Y1631299D02*
X1992127D01*
X1988394Y1678999D02*
X1992079D01*
X1988396Y1517899D02*
X1992077D01*
X1988419Y1704199D02*
X1992053D01*
X1987682Y1554799D02*
X1992003D01*
X1988476Y1507999D02*
X1991997D01*
X1988551Y1498099D02*
X1991922D01*
X1987783Y1544899D02*
X1991902D01*
X1988287Y1651999D02*
X1991713D01*
X1988765Y1502599D02*
X1991707D01*
X1988823Y1512499D02*
X1991650D01*
X1988059Y1550299D02*
X1991626D01*
X1988861Y1699699D02*
X1991611D01*
X1988876Y1522399D02*
X1991596D01*
X1988877Y1683499D02*
X1991595D01*
X1988418Y1570099D02*
X1991582D01*
X1988437Y1565599D02*
X1991563D01*
X1988912Y1689799D02*
X1991560D01*
X1988135Y1560199D02*
X1991550D01*
X1988928Y1693399D02*
X1991545D01*
X1988960Y1679899D02*
X1991512D01*
X1988961Y1518799D02*
X1991511D01*
X1988974Y1703299D02*
X1991498D01*
X1988217Y1636699D02*
X1991468D01*
X1989006Y1508899D02*
X1991467D01*
X1988551Y1656499D02*
X1991449D01*
X1988256Y1642099D02*
X1991429D01*
X1989047Y1498999D02*
X1991426D01*
X1988284Y1646599D02*
X1991401D01*
X1988320Y1632199D02*
X1991365D01*
X1989161Y1501699D02*
X1991312D01*
X1988389Y1555699D02*
X1991296D01*
X1989190Y1511599D02*
X1991283D01*
X1989208Y1700599D02*
X1991264D01*
X1989216Y1521499D02*
X1991257D01*
X1989216Y1682599D02*
X1991256D01*
X1988445Y1545799D02*
X1991240D01*
X1989233Y1690699D02*
X1991240D01*
X1989240Y1692499D02*
X1991233D01*
X1989254Y1680799D02*
X1991218D01*
X1989255Y1519699D02*
X1991218D01*
X1989260Y1702399D02*
X1991212D01*
X1988796Y1652899D02*
X1991204D01*
X1989274Y1509799D02*
X1991199D01*
X1989290Y1499899D02*
X1991182D01*
X1989326Y1500799D02*
X1991146D01*
X1989332Y1510699D02*
X1991140D01*
X1989335Y1701499D02*
X1991138D01*
X1989335Y1520599D02*
X1991137D01*
X1989335Y1681699D02*
X1991137D01*
X1989336Y1691599D02*
X1991136D01*
X1988866Y1569199D02*
X1991134D01*
X1988876Y1566499D02*
X1991124D01*
X1988599Y1549399D02*
X1991086D01*
X1988935Y1655599D02*
X1991065D01*
X1988641Y1559299D02*
X1991044D01*
X1988686Y1635799D02*
X1990999D01*
X1988706Y1642999D02*
X1990979D01*
X1988721Y1645699D02*
X1990964D01*
X1989048Y1653799D02*
X1990952D01*
X1988740Y1633099D02*
X1990945D01*
X1989074Y1568299D02*
X1990926D01*
X1989077Y1567399D02*
X1990923D01*
X1988776Y1556599D02*
X1990909D01*
X1989092Y1654699D02*
X1990908D01*
X1988804Y1546699D02*
X1990881D01*
X1988875Y1548499D02*
X1990810D01*
X1988892Y1558399D02*
X1990793D01*
X1988908Y1634899D02*
X1990777D01*
X1988915Y1643899D02*
X1990770D01*
X1988920Y1644799D02*
X1990765D01*
X1988926Y1633999D02*
X1990759D01*
X1988934Y1557499D02*
X1990751D01*
X1988940Y1547599D02*
X1990746D01*
X1975542Y1571899D02*
X1984458D01*
X1975326Y1640299D02*
X1984359D01*
X1975722Y1563799D02*
X1984278D01*
X1975604Y1648399D02*
X1984081D01*
X1976541Y1504399D02*
X1983931D01*
X1975861Y1630399D02*
X1983824D01*
X1976808Y1514299D02*
X1983665D01*
X1976410Y1658299D02*
X1983590D01*
X1976970Y1697899D02*
X1983503D01*
X1976232Y1553899D02*
X1983453D01*
X1977030Y1524199D02*
X1983443D01*
X1977035Y1685299D02*
X1983438D01*
X1977170Y1687999D02*
X1983303D01*
X1977227Y1695199D02*
X1983246D01*
X1976484Y1543999D02*
X1983201D01*
X1977346Y1678099D02*
X1983126D01*
X1977350Y1516999D02*
X1983122D01*
X1977397Y1705099D02*
X1983076D01*
X1977508Y1507099D02*
X1982964D01*
X1977651Y1497199D02*
X1982821D01*
X1977364Y1651099D02*
X1982636D01*
X1977069Y1551199D02*
X1982616D01*
X1977217Y1561099D02*
X1982468D01*
X1978045Y1503499D02*
X1982428D01*
X1977607Y1570999D02*
X1982393D01*
X1977641Y1564699D02*
X1982359D01*
X1978148Y1513399D02*
X1982325D01*
X1977370Y1637599D02*
X1982315D01*
X1978217Y1698799D02*
X1982256D01*
X1977441Y1641199D02*
X1982244D01*
X1978243Y1523299D02*
X1982229D01*
X1978246Y1684399D02*
X1982227D01*
X1977492Y1647499D02*
X1982193D01*
X1978308Y1688899D02*
X1982164D01*
X1977848Y1657399D02*
X1982152D01*
X1978335Y1694299D02*
X1982137D01*
X1977559Y1631299D02*
X1982127D01*
X1978394Y1678999D02*
X1982079D01*
X1978396Y1517899D02*
X1982077D01*
X1978419Y1704199D02*
X1982053D01*
X1977682Y1554799D02*
X1982003D01*
X1978476Y1507999D02*
X1981997D01*
X1978551Y1498099D02*
X1981922D01*
X1977783Y1544899D02*
X1981902D01*
X1978287Y1651999D02*
X1981713D01*
X1978765Y1502599D02*
X1981707D01*
X1978823Y1512499D02*
X1981650D01*
X1978059Y1550299D02*
X1981626D01*
X1978861Y1699699D02*
X1981611D01*
X1978876Y1522399D02*
X1981596D01*
X1978877Y1683499D02*
X1981595D01*
X1978418Y1570099D02*
X1981582D01*
X1978437Y1565599D02*
X1981563D01*
X1978912Y1689799D02*
X1981560D01*
X1978135Y1560199D02*
X1981550D01*
X1978928Y1693399D02*
X1981545D01*
X1978960Y1679899D02*
X1981512D01*
X1978961Y1518799D02*
X1981511D01*
X1978974Y1703299D02*
X1981498D01*
X1978217Y1636699D02*
X1981468D01*
X1979006Y1508899D02*
X1981467D01*
X1978551Y1656499D02*
X1981449D01*
X1978256Y1642099D02*
X1981429D01*
X1979047Y1498999D02*
X1981426D01*
X1978284Y1646599D02*
X1981401D01*
X1978320Y1632199D02*
X1981365D01*
X1979161Y1501699D02*
X1981312D01*
X1978389Y1555699D02*
X1981296D01*
X1979190Y1511599D02*
X1981283D01*
X1979208Y1700599D02*
X1981264D01*
X1979216Y1521499D02*
X1981257D01*
X1979216Y1682599D02*
X1981256D01*
X1978445Y1545799D02*
X1981240D01*
X1979233Y1690699D02*
X1981240D01*
X1979240Y1692499D02*
X1981233D01*
X1979254Y1680799D02*
X1981218D01*
X1979255Y1519699D02*
X1981218D01*
X1979260Y1702399D02*
X1981212D01*
X1978796Y1652899D02*
X1981204D01*
X1979274Y1509799D02*
X1981199D01*
X1979290Y1499899D02*
X1981182D01*
X1979326Y1500799D02*
X1981146D01*
X1979332Y1510699D02*
X1981140D01*
X1979335Y1701499D02*
X1981138D01*
X1979335Y1520599D02*
X1981137D01*
X1979335Y1681699D02*
X1981137D01*
X1979336Y1691599D02*
X1981136D01*
X1978866Y1569199D02*
X1981134D01*
X1978876Y1566499D02*
X1981124D01*
X1978599Y1549399D02*
X1981086D01*
X1978935Y1655599D02*
X1981065D01*
X1978641Y1559299D02*
X1981044D01*
X1978686Y1635799D02*
X1980999D01*
X1978706Y1642999D02*
X1980979D01*
X1978721Y1645699D02*
X1980964D01*
X1979048Y1653799D02*
X1980952D01*
X1978740Y1633099D02*
X1980945D01*
X1979074Y1568299D02*
X1980926D01*
X1979077Y1567399D02*
X1980923D01*
X1978776Y1556599D02*
X1980909D01*
X1979092Y1654699D02*
X1980908D01*
X1978804Y1546699D02*
X1980881D01*
X1978875Y1548499D02*
X1980810D01*
X1978892Y1558399D02*
X1980793D01*
X1978908Y1634899D02*
X1980777D01*
X1978915Y1643899D02*
X1980770D01*
X1978920Y1644799D02*
X1980765D01*
X1978926Y1633999D02*
X1980759D01*
X1978934Y1557499D02*
X1980751D01*
X1978940Y1547599D02*
X1980746D01*
X1965542Y1571899D02*
X1974458D01*
X1965326Y1640299D02*
X1974359D01*
X1965722Y1563799D02*
X1974278D01*
X1965604Y1648399D02*
X1974081D01*
X1966541Y1504399D02*
X1973931D01*
X1965861Y1630399D02*
X1973824D01*
X1966808Y1514299D02*
X1973665D01*
X1966410Y1658299D02*
X1973590D01*
X1966970Y1697899D02*
X1973503D01*
X1966232Y1553899D02*
X1973453D01*
X1967030Y1524199D02*
X1973443D01*
X1967035Y1685299D02*
X1973438D01*
X1967170Y1687999D02*
X1973303D01*
X1967227Y1695199D02*
X1973246D01*
X1966484Y1543999D02*
X1973201D01*
X1967346Y1678099D02*
X1973126D01*
X1967350Y1516999D02*
X1973122D01*
X1967397Y1705099D02*
X1973076D01*
X1967508Y1507099D02*
X1972964D01*
X1967651Y1497199D02*
X1972821D01*
X1967364Y1651099D02*
X1972636D01*
X1967069Y1551199D02*
X1972616D01*
X1967217Y1561099D02*
X1972468D01*
X1968045Y1503499D02*
X1972428D01*
X1967607Y1570999D02*
X1972393D01*
X1967641Y1564699D02*
X1972359D01*
X1968148Y1513399D02*
X1972325D01*
X1967370Y1637599D02*
X1972315D01*
X1968217Y1698799D02*
X1972256D01*
X1967441Y1641199D02*
X1972244D01*
X1968243Y1523299D02*
X1972229D01*
X1968246Y1684399D02*
X1972227D01*
X1967492Y1647499D02*
X1972193D01*
X1968308Y1688899D02*
X1972164D01*
X1967848Y1657399D02*
X1972152D01*
X1968335Y1694299D02*
X1972137D01*
X1967559Y1631299D02*
X1972127D01*
X1968394Y1678999D02*
X1972079D01*
X1968396Y1517899D02*
X1972077D01*
X1968419Y1704199D02*
X1972053D01*
X1967682Y1554799D02*
X1972003D01*
X1968476Y1507999D02*
X1971997D01*
X1968551Y1498099D02*
X1971922D01*
X1967783Y1544899D02*
X1971902D01*
X1968287Y1651999D02*
X1971713D01*
X1968765Y1502599D02*
X1971707D01*
X1968823Y1512499D02*
X1971650D01*
X1968059Y1550299D02*
X1971626D01*
X1968861Y1699699D02*
X1971611D01*
X1968876Y1522399D02*
X1971596D01*
X1968877Y1683499D02*
X1971595D01*
X1968418Y1570099D02*
X1971582D01*
X1968437Y1565599D02*
X1971563D01*
X1968912Y1689799D02*
X1971560D01*
X1968135Y1560199D02*
X1971550D01*
X1968928Y1693399D02*
X1971545D01*
X1968960Y1679899D02*
X1971512D01*
X1968961Y1518799D02*
X1971511D01*
X1968974Y1703299D02*
X1971498D01*
X1968217Y1636699D02*
X1971468D01*
X1969006Y1508899D02*
X1971467D01*
X1968551Y1656499D02*
X1971449D01*
X1968256Y1642099D02*
X1971429D01*
X1969047Y1498999D02*
X1971426D01*
X1968284Y1646599D02*
X1971401D01*
X1968320Y1632199D02*
X1971365D01*
X1969161Y1501699D02*
X1971312D01*
X1968389Y1555699D02*
X1971296D01*
X1969190Y1511599D02*
X1971283D01*
X1969208Y1700599D02*
X1971264D01*
X1969216Y1521499D02*
X1971257D01*
X1969216Y1682599D02*
X1971256D01*
X1968445Y1545799D02*
X1971240D01*
X1969233Y1690699D02*
X1971240D01*
X1969240Y1692499D02*
X1971233D01*
X1969254Y1680799D02*
X1971218D01*
X1969255Y1519699D02*
X1971218D01*
X1969260Y1702399D02*
X1971212D01*
X1968796Y1652899D02*
X1971204D01*
X1969274Y1509799D02*
X1971199D01*
X1969290Y1499899D02*
X1971182D01*
X1969326Y1500799D02*
X1971146D01*
X1969332Y1510699D02*
X1971140D01*
X1969335Y1701499D02*
X1971138D01*
X1969335Y1520599D02*
X1971137D01*
X1969335Y1681699D02*
X1971137D01*
X1969336Y1691599D02*
X1971136D01*
X1968866Y1569199D02*
X1971134D01*
X1968876Y1566499D02*
X1971124D01*
X1968599Y1549399D02*
X1971086D01*
X1968935Y1655599D02*
X1971065D01*
X1968641Y1559299D02*
X1971044D01*
X1968686Y1635799D02*
X1970999D01*
X1968706Y1642999D02*
X1970979D01*
X1968721Y1645699D02*
X1970964D01*
X1969048Y1653799D02*
X1970952D01*
X1968740Y1633099D02*
X1970945D01*
X1969074Y1568299D02*
X1970926D01*
X1969077Y1567399D02*
X1970923D01*
X1968776Y1556599D02*
X1970909D01*
X1969092Y1654699D02*
X1970908D01*
X1968804Y1546699D02*
X1970881D01*
X1968875Y1548499D02*
X1970810D01*
X1968892Y1558399D02*
X1970793D01*
X1968908Y1634899D02*
X1970777D01*
X1968915Y1643899D02*
X1970770D01*
X1968920Y1644799D02*
X1970765D01*
X1968926Y1633999D02*
X1970759D01*
X1968934Y1557499D02*
X1970751D01*
X1968940Y1547599D02*
X1970746D01*
X1955542Y1571899D02*
X1964458D01*
X1955326Y1640299D02*
X1964359D01*
X1955722Y1563799D02*
X1964278D01*
X1955604Y1648399D02*
X1964081D01*
X1956541Y1504399D02*
X1963931D01*
X1955861Y1630399D02*
X1963824D01*
X1956808Y1514299D02*
X1963665D01*
X1956410Y1658299D02*
X1963590D01*
X1956970Y1697899D02*
X1963503D01*
X1956232Y1553899D02*
X1963453D01*
X1957030Y1524199D02*
X1963443D01*
X1957035Y1685299D02*
X1963438D01*
X1957170Y1687999D02*
X1963303D01*
X1957227Y1695199D02*
X1963246D01*
X1956484Y1543999D02*
X1963201D01*
X1957346Y1678099D02*
X1963126D01*
X1957350Y1516999D02*
X1963122D01*
X1957397Y1705099D02*
X1963076D01*
X1957508Y1507099D02*
X1962964D01*
X1957651Y1497199D02*
X1962821D01*
X1957364Y1651099D02*
X1962636D01*
X1957069Y1551199D02*
X1962616D01*
X1957217Y1561099D02*
X1962468D01*
X1958045Y1503499D02*
X1962428D01*
X1957607Y1570999D02*
X1962393D01*
X1957641Y1564699D02*
X1962359D01*
X1958148Y1513399D02*
X1962325D01*
X1957370Y1637599D02*
X1962315D01*
X1958217Y1698799D02*
X1962256D01*
X1957441Y1641199D02*
X1962244D01*
X1958243Y1523299D02*
X1962229D01*
X1958246Y1684399D02*
X1962227D01*
X1957492Y1647499D02*
X1962193D01*
X1958308Y1688899D02*
X1962164D01*
X1957848Y1657399D02*
X1962152D01*
X1958335Y1694299D02*
X1962137D01*
X1957559Y1631299D02*
X1962127D01*
X1958394Y1678999D02*
X1962079D01*
X1958396Y1517899D02*
X1962077D01*
X1958419Y1704199D02*
X1962053D01*
X1957682Y1554799D02*
X1962003D01*
X1958476Y1507999D02*
X1961997D01*
X1958551Y1498099D02*
X1961922D01*
X1957783Y1544899D02*
X1961902D01*
X1958287Y1651999D02*
X1961713D01*
X1958765Y1502599D02*
X1961707D01*
X1958823Y1512499D02*
X1961650D01*
X1958059Y1550299D02*
X1961626D01*
X1958861Y1699699D02*
X1961611D01*
X1958876Y1522399D02*
X1961596D01*
X1958877Y1683499D02*
X1961595D01*
X1958418Y1570099D02*
X1961582D01*
X1958437Y1565599D02*
X1961563D01*
X1958912Y1689799D02*
X1961560D01*
X1958135Y1560199D02*
X1961550D01*
X1958928Y1693399D02*
X1961545D01*
X1958960Y1679899D02*
X1961512D01*
X1958961Y1518799D02*
X1961511D01*
X1958974Y1703299D02*
X1961498D01*
X1958217Y1636699D02*
X1961468D01*
X1959006Y1508899D02*
X1961467D01*
X1958551Y1656499D02*
X1961449D01*
X1958256Y1642099D02*
X1961429D01*
X1959047Y1498999D02*
X1961426D01*
X1958284Y1646599D02*
X1961401D01*
X1958320Y1632199D02*
X1961365D01*
X1959161Y1501699D02*
X1961312D01*
X1958389Y1555699D02*
X1961296D01*
X1959190Y1511599D02*
X1961283D01*
X1959208Y1700599D02*
X1961264D01*
X1959216Y1521499D02*
X1961257D01*
X1959216Y1682599D02*
X1961256D01*
X1958445Y1545799D02*
X1961240D01*
X1959233Y1690699D02*
X1961240D01*
X1959240Y1692499D02*
X1961233D01*
X1959254Y1680799D02*
X1961218D01*
X1959255Y1519699D02*
X1961218D01*
X1959260Y1702399D02*
X1961212D01*
X1958796Y1652899D02*
X1961204D01*
X1959274Y1509799D02*
X1961199D01*
X1959290Y1499899D02*
X1961182D01*
X1959326Y1500799D02*
X1961146D01*
X1959332Y1510699D02*
X1961140D01*
X1959335Y1701499D02*
X1961138D01*
X1959335Y1520599D02*
X1961137D01*
X1959335Y1681699D02*
X1961137D01*
X1959336Y1691599D02*
X1961136D01*
X1958866Y1569199D02*
X1961134D01*
X1958876Y1566499D02*
X1961124D01*
X1958599Y1549399D02*
X1961086D01*
X1958935Y1655599D02*
X1961065D01*
X1958641Y1559299D02*
X1961044D01*
X1958686Y1635799D02*
X1960999D01*
X1958706Y1642999D02*
X1960979D01*
X1958721Y1645699D02*
X1960964D01*
X1959048Y1653799D02*
X1960952D01*
X1958740Y1633099D02*
X1960945D01*
X1959074Y1568299D02*
X1960926D01*
X1959077Y1567399D02*
X1960923D01*
X1958776Y1556599D02*
X1960909D01*
X1959092Y1654699D02*
X1960908D01*
X1958804Y1546699D02*
X1960881D01*
X1958875Y1548499D02*
X1960810D01*
X1958892Y1558399D02*
X1960793D01*
X1958908Y1634899D02*
X1960777D01*
X1958915Y1643899D02*
X1960770D01*
X1958920Y1644799D02*
X1960765D01*
X1958926Y1633999D02*
X1960759D01*
X1958934Y1557499D02*
X1960751D01*
X1958940Y1547599D02*
X1960746D01*
X1945542Y1571899D02*
X1954458D01*
X1945326Y1640299D02*
X1954359D01*
X1945722Y1563799D02*
X1954278D01*
X1945604Y1648399D02*
X1954081D01*
X1946541Y1504399D02*
X1953931D01*
X1945861Y1630399D02*
X1953824D01*
X1946808Y1514299D02*
X1953665D01*
X1946410Y1658299D02*
X1953590D01*
X1946970Y1697899D02*
X1953503D01*
X1946232Y1553899D02*
X1953453D01*
X1947030Y1524199D02*
X1953443D01*
X1947035Y1685299D02*
X1953438D01*
X1947170Y1687999D02*
X1953303D01*
X1947227Y1695199D02*
X1953246D01*
X1946484Y1543999D02*
X1953201D01*
X1947346Y1678099D02*
X1953126D01*
X1947350Y1516999D02*
X1953122D01*
X1947397Y1705099D02*
X1953076D01*
X1947508Y1507099D02*
X1952964D01*
X1947651Y1497199D02*
X1952821D01*
X1947364Y1651099D02*
X1952636D01*
X1947069Y1551199D02*
X1952616D01*
X1947217Y1561099D02*
X1952468D01*
X1948045Y1503499D02*
X1952428D01*
X1947607Y1570999D02*
X1952393D01*
X1947641Y1564699D02*
X1952359D01*
X1948148Y1513399D02*
X1952325D01*
X1947370Y1637599D02*
X1952315D01*
X1948217Y1698799D02*
X1952256D01*
X1947441Y1641199D02*
X1952244D01*
X1948243Y1523299D02*
X1952229D01*
X1948246Y1684399D02*
X1952227D01*
X1947492Y1647499D02*
X1952193D01*
X1948308Y1688899D02*
X1952164D01*
X1947848Y1657399D02*
X1952152D01*
X1948335Y1694299D02*
X1952137D01*
X1947559Y1631299D02*
X1952127D01*
X1948394Y1678999D02*
X1952079D01*
X1948396Y1517899D02*
X1952077D01*
X1948419Y1704199D02*
X1952053D01*
X1947682Y1554799D02*
X1952003D01*
X1948476Y1507999D02*
X1951997D01*
X1948551Y1498099D02*
X1951922D01*
X1947783Y1544899D02*
X1951902D01*
X1948287Y1651999D02*
X1951713D01*
X1948765Y1502599D02*
X1951707D01*
X1948823Y1512499D02*
X1951650D01*
X1948059Y1550299D02*
X1951626D01*
X1948861Y1699699D02*
X1951611D01*
X1948876Y1522399D02*
X1951596D01*
X1948877Y1683499D02*
X1951595D01*
X1948418Y1570099D02*
X1951582D01*
X1948437Y1565599D02*
X1951563D01*
X1948912Y1689799D02*
X1951560D01*
X1948135Y1560199D02*
X1951550D01*
X1948928Y1693399D02*
X1951545D01*
X1948960Y1679899D02*
X1951512D01*
X1948961Y1518799D02*
X1951511D01*
X1948974Y1703299D02*
X1951498D01*
X1948217Y1636699D02*
X1951468D01*
X1949006Y1508899D02*
X1951467D01*
X1948551Y1656499D02*
X1951449D01*
X1948256Y1642099D02*
X1951429D01*
X1949047Y1498999D02*
X1951426D01*
X1948284Y1646599D02*
X1951401D01*
X1948320Y1632199D02*
X1951365D01*
X1949161Y1501699D02*
X1951312D01*
X1948389Y1555699D02*
X1951296D01*
X1949190Y1511599D02*
X1951283D01*
X1949208Y1700599D02*
X1951264D01*
X1949216Y1521499D02*
X1951257D01*
X1949216Y1682599D02*
X1951256D01*
X1948445Y1545799D02*
X1951240D01*
X1949233Y1690699D02*
X1951240D01*
X1949240Y1692499D02*
X1951233D01*
X1949254Y1680799D02*
X1951218D01*
X1949255Y1519699D02*
X1951218D01*
X1949260Y1702399D02*
X1951212D01*
X1948796Y1652899D02*
X1951204D01*
X1949274Y1509799D02*
X1951199D01*
X1949290Y1499899D02*
X1951182D01*
X1949326Y1500799D02*
X1951146D01*
X1949332Y1510699D02*
X1951140D01*
X1949335Y1701499D02*
X1951138D01*
X1949335Y1520599D02*
X1951137D01*
X1949335Y1681699D02*
X1951137D01*
X1949336Y1691599D02*
X1951136D01*
X1948866Y1569199D02*
X1951134D01*
X1948876Y1566499D02*
X1951124D01*
X1948599Y1549399D02*
X1951086D01*
X1948935Y1655599D02*
X1951065D01*
X1948641Y1559299D02*
X1951044D01*
X1948686Y1635799D02*
X1950999D01*
X1948706Y1642999D02*
X1950979D01*
X1948721Y1645699D02*
X1950964D01*
X1949048Y1653799D02*
X1950952D01*
X1948740Y1633099D02*
X1950945D01*
X1949074Y1568299D02*
X1950926D01*
X1949077Y1567399D02*
X1950923D01*
X1948776Y1556599D02*
X1950909D01*
X1949092Y1654699D02*
X1950908D01*
X1948804Y1546699D02*
X1950881D01*
X1948875Y1548499D02*
X1950810D01*
X1948892Y1558399D02*
X1950793D01*
X1948908Y1634899D02*
X1950777D01*
X1948915Y1643899D02*
X1950770D01*
X1948920Y1644799D02*
X1950765D01*
X1948926Y1633999D02*
X1950759D01*
X1948934Y1557499D02*
X1950751D01*
X1948940Y1547599D02*
X1950746D01*
X1935542Y1571899D02*
X1944458D01*
X1935326Y1640299D02*
X1944359D01*
X1935722Y1563799D02*
X1944278D01*
X1935604Y1648399D02*
X1944081D01*
X1936541Y1504399D02*
X1943931D01*
X1935861Y1630399D02*
X1943824D01*
X1936808Y1514299D02*
X1943665D01*
X1936410Y1658299D02*
X1943590D01*
X1936970Y1697899D02*
X1943503D01*
X1936232Y1553899D02*
X1943453D01*
X1937030Y1524199D02*
X1943443D01*
X1937035Y1685299D02*
X1943438D01*
X1937170Y1687999D02*
X1943303D01*
X1937227Y1695199D02*
X1943246D01*
X1936484Y1543999D02*
X1943201D01*
X1937346Y1678099D02*
X1943126D01*
X1937350Y1516999D02*
X1943122D01*
X1937397Y1705099D02*
X1943076D01*
X1937508Y1507099D02*
X1942964D01*
X1937651Y1497199D02*
X1942821D01*
X1937364Y1651099D02*
X1942636D01*
X1937069Y1551199D02*
X1942616D01*
X1937217Y1561099D02*
X1942468D01*
X1938045Y1503499D02*
X1942428D01*
X1937607Y1570999D02*
X1942393D01*
X1937641Y1564699D02*
X1942359D01*
X1938148Y1513399D02*
X1942325D01*
X1937370Y1637599D02*
X1942315D01*
X1938217Y1698799D02*
X1942256D01*
X1937441Y1641199D02*
X1942244D01*
X1938243Y1523299D02*
X1942229D01*
X1938246Y1684399D02*
X1942227D01*
X1937492Y1647499D02*
X1942193D01*
X1938308Y1688899D02*
X1942164D01*
X1937848Y1657399D02*
X1942152D01*
X1938335Y1694299D02*
X1942137D01*
X1937559Y1631299D02*
X1942127D01*
X1938394Y1678999D02*
X1942079D01*
X1938396Y1517899D02*
X1942077D01*
X1938419Y1704199D02*
X1942053D01*
X1937682Y1554799D02*
X1942003D01*
X1938476Y1507999D02*
X1941997D01*
X1938551Y1498099D02*
X1941922D01*
X1937783Y1544899D02*
X1941902D01*
X1938287Y1651999D02*
X1941713D01*
X1938765Y1502599D02*
X1941707D01*
X1938823Y1512499D02*
X1941650D01*
X1938059Y1550299D02*
X1941626D01*
X1938861Y1699699D02*
X1941611D01*
X1938876Y1522399D02*
X1941596D01*
X1938877Y1683499D02*
X1941595D01*
X1938418Y1570099D02*
X1941582D01*
X1938437Y1565599D02*
X1941563D01*
X1938912Y1689799D02*
X1941560D01*
X1938135Y1560199D02*
X1941550D01*
X1938928Y1693399D02*
X1941545D01*
X1938960Y1679899D02*
X1941512D01*
X1938961Y1518799D02*
X1941511D01*
X1938974Y1703299D02*
X1941498D01*
X1938217Y1636699D02*
X1941468D01*
X1939006Y1508899D02*
X1941467D01*
X1938551Y1656499D02*
X1941449D01*
X1938256Y1642099D02*
X1941429D01*
X1939047Y1498999D02*
X1941426D01*
X1938284Y1646599D02*
X1941401D01*
X1938320Y1632199D02*
X1941365D01*
X1939161Y1501699D02*
X1941312D01*
X1938389Y1555699D02*
X1941296D01*
X1939190Y1511599D02*
X1941283D01*
X1939208Y1700599D02*
X1941264D01*
X1939216Y1521499D02*
X1941257D01*
X1939216Y1682599D02*
X1941256D01*
X1938445Y1545799D02*
X1941240D01*
X1939233Y1690699D02*
X1941240D01*
X1939240Y1692499D02*
X1941233D01*
X1939254Y1680799D02*
X1941218D01*
X1939255Y1519699D02*
X1941218D01*
X1939260Y1702399D02*
X1941212D01*
X1938796Y1652899D02*
X1941204D01*
X1939274Y1509799D02*
X1941199D01*
X1939290Y1499899D02*
X1941182D01*
X1939326Y1500799D02*
X1941146D01*
X1939332Y1510699D02*
X1941140D01*
X1939335Y1701499D02*
X1941138D01*
X1939335Y1520599D02*
X1941137D01*
X1939335Y1681699D02*
X1941137D01*
X1939336Y1691599D02*
X1941136D01*
X1938866Y1569199D02*
X1941134D01*
X1938876Y1566499D02*
X1941124D01*
X1938599Y1549399D02*
X1941086D01*
X1938935Y1655599D02*
X1941065D01*
X1938641Y1559299D02*
X1941044D01*
X1938686Y1635799D02*
X1940999D01*
X1938706Y1642999D02*
X1940979D01*
X1938721Y1645699D02*
X1940964D01*
X1939048Y1653799D02*
X1940952D01*
X1938740Y1633099D02*
X1940945D01*
X1939074Y1568299D02*
X1940926D01*
X1939077Y1567399D02*
X1940923D01*
X1938776Y1556599D02*
X1940909D01*
X1939092Y1654699D02*
X1940908D01*
X1938804Y1546699D02*
X1940881D01*
X1938875Y1548499D02*
X1940810D01*
X1938892Y1558399D02*
X1940793D01*
X1938908Y1634899D02*
X1940777D01*
X1938915Y1643899D02*
X1940770D01*
X1938920Y1644799D02*
X1940765D01*
X1938926Y1633999D02*
X1940759D01*
X1938934Y1557499D02*
X1940751D01*
X1938940Y1547599D02*
X1940746D01*
X1925542Y1571899D02*
X1934458D01*
X1925326Y1640299D02*
X1934359D01*
X1925722Y1563799D02*
X1934278D01*
X1925604Y1648399D02*
X1934081D01*
X1926541Y1504399D02*
X1933931D01*
X1925861Y1630399D02*
X1933824D01*
X1926808Y1514299D02*
X1933665D01*
X1926410Y1658299D02*
X1933590D01*
X1926970Y1697899D02*
X1933503D01*
X1926232Y1553899D02*
X1933453D01*
X1927030Y1524199D02*
X1933443D01*
X1927035Y1685299D02*
X1933438D01*
X1927170Y1687999D02*
X1933303D01*
X1927227Y1695199D02*
X1933246D01*
X1926484Y1543999D02*
X1933201D01*
X1927346Y1678099D02*
X1933126D01*
X1927350Y1516999D02*
X1933122D01*
X1927397Y1705099D02*
X1933076D01*
X1927508Y1507099D02*
X1932964D01*
X1927651Y1497199D02*
X1932821D01*
X1927364Y1651099D02*
X1932636D01*
X1927069Y1551199D02*
X1932616D01*
X1927217Y1561099D02*
X1932468D01*
X1928045Y1503499D02*
X1932428D01*
X1927607Y1570999D02*
X1932393D01*
X1927641Y1564699D02*
X1932359D01*
X1928148Y1513399D02*
X1932325D01*
X1927370Y1637599D02*
X1932315D01*
X1928217Y1698799D02*
X1932256D01*
X1927441Y1641199D02*
X1932244D01*
X1928243Y1523299D02*
X1932229D01*
X1928246Y1684399D02*
X1932227D01*
X1927492Y1647499D02*
X1932193D01*
X1928308Y1688899D02*
X1932164D01*
X1927848Y1657399D02*
X1932152D01*
X1928335Y1694299D02*
X1932137D01*
X1927559Y1631299D02*
X1932127D01*
X1928394Y1678999D02*
X1932079D01*
X1928396Y1517899D02*
X1932077D01*
X1928419Y1704199D02*
X1932053D01*
X1927682Y1554799D02*
X1932003D01*
X1928476Y1507999D02*
X1931997D01*
X1928551Y1498099D02*
X1931922D01*
X1927783Y1544899D02*
X1931902D01*
X1928287Y1651999D02*
X1931713D01*
X1928765Y1502599D02*
X1931707D01*
X1928823Y1512499D02*
X1931650D01*
X1928059Y1550299D02*
X1931626D01*
X1928861Y1699699D02*
X1931611D01*
X1928876Y1522399D02*
X1931596D01*
X1928877Y1683499D02*
X1931595D01*
X1928418Y1570099D02*
X1931582D01*
X1928437Y1565599D02*
X1931563D01*
X1928912Y1689799D02*
X1931560D01*
X1928135Y1560199D02*
X1931550D01*
X1928928Y1693399D02*
X1931545D01*
X1928960Y1679899D02*
X1931512D01*
X1928961Y1518799D02*
X1931511D01*
X1928974Y1703299D02*
X1931498D01*
X1928217Y1636699D02*
X1931468D01*
X1929006Y1508899D02*
X1931467D01*
X1928551Y1656499D02*
X1931449D01*
X1928256Y1642099D02*
X1931429D01*
X1929047Y1498999D02*
X1931426D01*
X1928284Y1646599D02*
X1931401D01*
X1928320Y1632199D02*
X1931365D01*
X1929161Y1501699D02*
X1931312D01*
X1928389Y1555699D02*
X1931296D01*
X1929190Y1511599D02*
X1931283D01*
X1929208Y1700599D02*
X1931264D01*
X1929216Y1521499D02*
X1931257D01*
X1929216Y1682599D02*
X1931256D01*
X1928445Y1545799D02*
X1931240D01*
X1929233Y1690699D02*
X1931240D01*
X1929240Y1692499D02*
X1931233D01*
X1929254Y1680799D02*
X1931218D01*
X1929255Y1519699D02*
X1931218D01*
X1929260Y1702399D02*
X1931212D01*
X1928796Y1652899D02*
X1931204D01*
X1929274Y1509799D02*
X1931199D01*
X1929290Y1499899D02*
X1931182D01*
X1929326Y1500799D02*
X1931146D01*
X1929332Y1510699D02*
X1931140D01*
X1929335Y1701499D02*
X1931138D01*
X1929335Y1520599D02*
X1931137D01*
X1929335Y1681699D02*
X1931137D01*
X1929336Y1691599D02*
X1931136D01*
X1928866Y1569199D02*
X1931134D01*
X1928876Y1566499D02*
X1931124D01*
X1928599Y1549399D02*
X1931086D01*
X1928935Y1655599D02*
X1931065D01*
X1928641Y1559299D02*
X1931044D01*
X1928686Y1635799D02*
X1930999D01*
X1928706Y1642999D02*
X1930979D01*
X1928721Y1645699D02*
X1930964D01*
X1929048Y1653799D02*
X1930952D01*
X1928740Y1633099D02*
X1930945D01*
X1929074Y1568299D02*
X1930926D01*
X1929077Y1567399D02*
X1930923D01*
X1928776Y1556599D02*
X1930909D01*
X1929092Y1654699D02*
X1930908D01*
X1928804Y1546699D02*
X1930881D01*
X1928875Y1548499D02*
X1930810D01*
X1928892Y1558399D02*
X1930793D01*
X1928908Y1634899D02*
X1930777D01*
X1928915Y1643899D02*
X1930770D01*
X1928920Y1644799D02*
X1930765D01*
X1928926Y1633999D02*
X1930759D01*
X1928934Y1557499D02*
X1930751D01*
X1928940Y1547599D02*
X1930746D01*
X1915542Y1571899D02*
X1924458D01*
X1915326Y1640299D02*
X1924359D01*
X1915722Y1563799D02*
X1924278D01*
X1915604Y1648399D02*
X1924081D01*
X1916541Y1504399D02*
X1923931D01*
X1915861Y1630399D02*
X1923824D01*
X1916808Y1514299D02*
X1923665D01*
X1916410Y1658299D02*
X1923590D01*
X1916970Y1697899D02*
X1923503D01*
X1916232Y1553899D02*
X1923453D01*
X1917030Y1524199D02*
X1923443D01*
X1917035Y1685299D02*
X1923438D01*
X1917170Y1687999D02*
X1923303D01*
X1917227Y1695199D02*
X1923246D01*
X1916484Y1543999D02*
X1923201D01*
X1917346Y1678099D02*
X1923126D01*
X1917350Y1516999D02*
X1923122D01*
X1917397Y1705099D02*
X1923076D01*
X1917508Y1507099D02*
X1922964D01*
X1917651Y1497199D02*
X1922821D01*
X1917364Y1651099D02*
X1922636D01*
X1917069Y1551199D02*
X1922616D01*
X1917217Y1561099D02*
X1922468D01*
X1918045Y1503499D02*
X1922428D01*
X1917607Y1570999D02*
X1922393D01*
X1917641Y1564699D02*
X1922359D01*
X1918148Y1513399D02*
X1922325D01*
X1917370Y1637599D02*
X1922315D01*
X1918217Y1698799D02*
X1922256D01*
X1917441Y1641199D02*
X1922244D01*
X1918243Y1523299D02*
X1922229D01*
X1918246Y1684399D02*
X1922227D01*
X1917492Y1647499D02*
X1922193D01*
X1918308Y1688899D02*
X1922164D01*
X1917848Y1657399D02*
X1922152D01*
X1918335Y1694299D02*
X1922137D01*
X1917559Y1631299D02*
X1922127D01*
X1918394Y1678999D02*
X1922079D01*
X1918396Y1517899D02*
X1922077D01*
X1918419Y1704199D02*
X1922053D01*
X1917682Y1554799D02*
X1922003D01*
X1918476Y1507999D02*
X1921997D01*
X1918551Y1498099D02*
X1921922D01*
X1917783Y1544899D02*
X1921902D01*
X1918287Y1651999D02*
X1921713D01*
X1918765Y1502599D02*
X1921707D01*
X1918823Y1512499D02*
X1921650D01*
X1918059Y1550299D02*
X1921626D01*
X1918861Y1699699D02*
X1921611D01*
X1918876Y1522399D02*
X1921596D01*
X1918877Y1683499D02*
X1921595D01*
X1918418Y1570099D02*
X1921582D01*
X1918437Y1565599D02*
X1921563D01*
X1918912Y1689799D02*
X1921560D01*
X1918135Y1560199D02*
X1921550D01*
X1918928Y1693399D02*
X1921545D01*
X1918960Y1679899D02*
X1921512D01*
X1918961Y1518799D02*
X1921511D01*
X1918974Y1703299D02*
X1921498D01*
X1918217Y1636699D02*
X1921468D01*
X1919006Y1508899D02*
X1921467D01*
X1918551Y1656499D02*
X1921449D01*
X1918256Y1642099D02*
X1921429D01*
X1919047Y1498999D02*
X1921426D01*
X1918284Y1646599D02*
X1921401D01*
X1918320Y1632199D02*
X1921365D01*
X1919161Y1501699D02*
X1921312D01*
X1918389Y1555699D02*
X1921296D01*
X1919190Y1511599D02*
X1921283D01*
X1919208Y1700599D02*
X1921264D01*
X1919216Y1521499D02*
X1921257D01*
X1919216Y1682599D02*
X1921256D01*
X1918445Y1545799D02*
X1921240D01*
X1919233Y1690699D02*
X1921240D01*
X1919240Y1692499D02*
X1921233D01*
X1919254Y1680799D02*
X1921218D01*
X1919255Y1519699D02*
X1921218D01*
X1919260Y1702399D02*
X1921212D01*
X1918796Y1652899D02*
X1921204D01*
X1919274Y1509799D02*
X1921199D01*
X1919290Y1499899D02*
X1921182D01*
X1919326Y1500799D02*
X1921146D01*
X1919332Y1510699D02*
X1921140D01*
X1919335Y1701499D02*
X1921138D01*
X1919335Y1520599D02*
X1921137D01*
X1919335Y1681699D02*
X1921137D01*
X1919336Y1691599D02*
X1921136D01*
X1918866Y1569199D02*
X1921134D01*
X1918876Y1566499D02*
X1921124D01*
X1918599Y1549399D02*
X1921086D01*
X1918935Y1655599D02*
X1921065D01*
X1918641Y1559299D02*
X1921044D01*
X1918686Y1635799D02*
X1920999D01*
X1918706Y1642999D02*
X1920979D01*
X1918721Y1645699D02*
X1920964D01*
X1919048Y1653799D02*
X1920952D01*
X1918740Y1633099D02*
X1920945D01*
X1919074Y1568299D02*
X1920926D01*
X1919077Y1567399D02*
X1920923D01*
X1918776Y1556599D02*
X1920909D01*
X1919092Y1654699D02*
X1920908D01*
X1918804Y1546699D02*
X1920881D01*
X1918875Y1548499D02*
X1920810D01*
X1918892Y1558399D02*
X1920793D01*
X1918908Y1634899D02*
X1920777D01*
X1918915Y1643899D02*
X1920770D01*
X1918920Y1644799D02*
X1920765D01*
X1918926Y1633999D02*
X1920759D01*
X1918934Y1557499D02*
X1920751D01*
X1918940Y1547599D02*
X1920746D01*
X1905542Y1571899D02*
X1914458D01*
X1905326Y1640299D02*
X1914359D01*
X1905722Y1563799D02*
X1914278D01*
X1905604Y1648399D02*
X1914081D01*
X1906541Y1504399D02*
X1913931D01*
X1905861Y1630399D02*
X1913824D01*
X1906808Y1514299D02*
X1913665D01*
X1906410Y1658299D02*
X1913590D01*
X1906970Y1697899D02*
X1913503D01*
X1906232Y1553899D02*
X1913453D01*
X1907030Y1524199D02*
X1913443D01*
X1907035Y1685299D02*
X1913438D01*
X1907170Y1687999D02*
X1913303D01*
X1907227Y1695199D02*
X1913246D01*
X1906484Y1543999D02*
X1913201D01*
X1907346Y1678099D02*
X1913126D01*
X1907350Y1516999D02*
X1913122D01*
X1907397Y1705099D02*
X1913076D01*
X1907508Y1507099D02*
X1912964D01*
X1907651Y1497199D02*
X1912821D01*
X1907364Y1651099D02*
X1912636D01*
X1907069Y1551199D02*
X1912616D01*
X1907217Y1561099D02*
X1912468D01*
X1908045Y1503499D02*
X1912428D01*
X1907607Y1570999D02*
X1912393D01*
X1907641Y1564699D02*
X1912359D01*
X1908148Y1513399D02*
X1912325D01*
X1907370Y1637599D02*
X1912315D01*
X1908217Y1698799D02*
X1912256D01*
X1907441Y1641199D02*
X1912244D01*
X1908243Y1523299D02*
X1912229D01*
X1908246Y1684399D02*
X1912227D01*
X1907492Y1647499D02*
X1912193D01*
X1908308Y1688899D02*
X1912164D01*
X1907848Y1657399D02*
X1912152D01*
X1908335Y1694299D02*
X1912137D01*
X1907559Y1631299D02*
X1912127D01*
X1908394Y1678999D02*
X1912079D01*
X1908396Y1517899D02*
X1912077D01*
X1908419Y1704199D02*
X1912053D01*
X1907682Y1554799D02*
X1912003D01*
X1908476Y1507999D02*
X1911997D01*
X1908551Y1498099D02*
X1911922D01*
X1907783Y1544899D02*
X1911902D01*
X1908287Y1651999D02*
X1911713D01*
X1908765Y1502599D02*
X1911707D01*
X1908823Y1512499D02*
X1911650D01*
X1908059Y1550299D02*
X1911626D01*
X1908861Y1699699D02*
X1911611D01*
X1908876Y1522399D02*
X1911596D01*
X1908877Y1683499D02*
X1911595D01*
X1908418Y1570099D02*
X1911582D01*
X1908437Y1565599D02*
X1911563D01*
X1908912Y1689799D02*
X1911560D01*
X1908135Y1560199D02*
X1911550D01*
X1908928Y1693399D02*
X1911545D01*
X1908960Y1679899D02*
X1911512D01*
X1908961Y1518799D02*
X1911511D01*
X1908974Y1703299D02*
X1911498D01*
X1908217Y1636699D02*
X1911468D01*
X1909006Y1508899D02*
X1911467D01*
X1908551Y1656499D02*
X1911449D01*
X1908256Y1642099D02*
X1911429D01*
X1909047Y1498999D02*
X1911426D01*
X1908284Y1646599D02*
X1911401D01*
X1908320Y1632199D02*
X1911365D01*
X1909161Y1501699D02*
X1911312D01*
X1908389Y1555699D02*
X1911296D01*
X1909190Y1511599D02*
X1911283D01*
X1909208Y1700599D02*
X1911264D01*
X1909216Y1521499D02*
X1911257D01*
X1909216Y1682599D02*
X1911256D01*
X1908445Y1545799D02*
X1911240D01*
X1909233Y1690699D02*
X1911240D01*
X1909240Y1692499D02*
X1911233D01*
X1909254Y1680799D02*
X1911218D01*
X1909255Y1519699D02*
X1911218D01*
X1909260Y1702399D02*
X1911212D01*
X1908796Y1652899D02*
X1911204D01*
X1909274Y1509799D02*
X1911199D01*
X1909290Y1499899D02*
X1911182D01*
X1909326Y1500799D02*
X1911146D01*
X1909332Y1510699D02*
X1911140D01*
X1909335Y1701499D02*
X1911138D01*
X1909335Y1520599D02*
X1911137D01*
X1909335Y1681699D02*
X1911137D01*
X1909336Y1691599D02*
X1911136D01*
X1908866Y1569199D02*
X1911134D01*
X1908876Y1566499D02*
X1911124D01*
X1908599Y1549399D02*
X1911086D01*
X1908935Y1655599D02*
X1911065D01*
X1908641Y1559299D02*
X1911044D01*
X1908686Y1635799D02*
X1910999D01*
X1908706Y1642999D02*
X1910979D01*
X1908721Y1645699D02*
X1910964D01*
X1909048Y1653799D02*
X1910952D01*
X1908740Y1633099D02*
X1910945D01*
X1909074Y1568299D02*
X1910926D01*
X1909077Y1567399D02*
X1910923D01*
X1908776Y1556599D02*
X1910909D01*
X1909092Y1654699D02*
X1910908D01*
X1908804Y1546699D02*
X1910881D01*
X1908875Y1548499D02*
X1910810D01*
X1908892Y1558399D02*
X1910793D01*
X1908908Y1634899D02*
X1910777D01*
X1908915Y1643899D02*
X1910770D01*
X1908920Y1644799D02*
X1910765D01*
X1908926Y1633999D02*
X1910759D01*
X1908934Y1557499D02*
X1910751D01*
X1908940Y1547599D02*
X1910746D01*
X1895542Y1571899D02*
X1904458D01*
X1895326Y1640299D02*
X1904359D01*
X1895722Y1563799D02*
X1904278D01*
X1895604Y1648399D02*
X1904081D01*
X1896541Y1504399D02*
X1903931D01*
X1895861Y1630399D02*
X1903824D01*
X1896808Y1514299D02*
X1903665D01*
X1896410Y1658299D02*
X1903590D01*
X1896970Y1697899D02*
X1903503D01*
X1896232Y1553899D02*
X1903453D01*
X1897030Y1524199D02*
X1903443D01*
X1897035Y1685299D02*
X1903438D01*
X1897170Y1687999D02*
X1903303D01*
X1897227Y1695199D02*
X1903246D01*
X1896484Y1543999D02*
X1903201D01*
X1897346Y1678099D02*
X1903126D01*
X1897350Y1516999D02*
X1903122D01*
X1897397Y1705099D02*
X1903076D01*
X1897508Y1507099D02*
X1902964D01*
X1897651Y1497199D02*
X1902821D01*
X1897364Y1651099D02*
X1902636D01*
X1897069Y1551199D02*
X1902616D01*
X1897217Y1561099D02*
X1902468D01*
X1898045Y1503499D02*
X1902428D01*
X1897607Y1570999D02*
X1902393D01*
X1897641Y1564699D02*
X1902359D01*
X1898148Y1513399D02*
X1902325D01*
X1897370Y1637599D02*
X1902315D01*
X1898217Y1698799D02*
X1902256D01*
X1897441Y1641199D02*
X1902244D01*
X1898243Y1523299D02*
X1902229D01*
X1898246Y1684399D02*
X1902227D01*
X1897492Y1647499D02*
X1902193D01*
X1898308Y1688899D02*
X1902164D01*
X1897848Y1657399D02*
X1902152D01*
X1898335Y1694299D02*
X1902137D01*
X1897559Y1631299D02*
X1902127D01*
X1898394Y1678999D02*
X1902079D01*
X1898396Y1517899D02*
X1902077D01*
X1898419Y1704199D02*
X1902053D01*
X1897682Y1554799D02*
X1902003D01*
X1898476Y1507999D02*
X1901997D01*
X1898551Y1498099D02*
X1901922D01*
X1897783Y1544899D02*
X1901902D01*
X1898287Y1651999D02*
X1901713D01*
X1898765Y1502599D02*
X1901707D01*
X1898823Y1512499D02*
X1901650D01*
X1898059Y1550299D02*
X1901626D01*
X1898861Y1699699D02*
X1901611D01*
X1898876Y1522399D02*
X1901596D01*
X1898877Y1683499D02*
X1901595D01*
X1898418Y1570099D02*
X1901582D01*
X1898437Y1565599D02*
X1901563D01*
X1898912Y1689799D02*
X1901560D01*
X1898135Y1560199D02*
X1901550D01*
X1898928Y1693399D02*
X1901545D01*
X1898960Y1679899D02*
X1901512D01*
X1898961Y1518799D02*
X1901511D01*
X1898974Y1703299D02*
X1901498D01*
X1898217Y1636699D02*
X1901468D01*
X1899006Y1508899D02*
X1901467D01*
X1898551Y1656499D02*
X1901449D01*
X1898256Y1642099D02*
X1901429D01*
X1899047Y1498999D02*
X1901426D01*
X1898284Y1646599D02*
X1901401D01*
X1898320Y1632199D02*
X1901365D01*
X1899161Y1501699D02*
X1901312D01*
X1898389Y1555699D02*
X1901296D01*
X1899190Y1511599D02*
X1901283D01*
X1899208Y1700599D02*
X1901264D01*
X1899216Y1521499D02*
X1901257D01*
X1899216Y1682599D02*
X1901256D01*
X1898445Y1545799D02*
X1901240D01*
X1899233Y1690699D02*
X1901240D01*
X1899240Y1692499D02*
X1901233D01*
X1899254Y1680799D02*
X1901218D01*
X1899255Y1519699D02*
X1901218D01*
X1899260Y1702399D02*
X1901212D01*
X1898796Y1652899D02*
X1901204D01*
X1899274Y1509799D02*
X1901199D01*
X1899290Y1499899D02*
X1901182D01*
X1899326Y1500799D02*
X1901146D01*
X1899332Y1510699D02*
X1901140D01*
X1899335Y1701499D02*
X1901138D01*
X1899335Y1520599D02*
X1901137D01*
X1899335Y1681699D02*
X1901137D01*
X1899336Y1691599D02*
X1901136D01*
X1898866Y1569199D02*
X1901134D01*
X1898876Y1566499D02*
X1901124D01*
X1898599Y1549399D02*
X1901086D01*
X1898935Y1655599D02*
X1901065D01*
X1898641Y1559299D02*
X1901044D01*
X1898686Y1635799D02*
X1900999D01*
X1898706Y1642999D02*
X1900979D01*
X1898721Y1645699D02*
X1900964D01*
X1899048Y1653799D02*
X1900952D01*
X1898740Y1633099D02*
X1900945D01*
X1899074Y1568299D02*
X1900926D01*
X1899077Y1567399D02*
X1900923D01*
X1898776Y1556599D02*
X1900909D01*
X1899092Y1654699D02*
X1900908D01*
X1898804Y1546699D02*
X1900881D01*
X1898875Y1548499D02*
X1900810D01*
X1898892Y1558399D02*
X1900793D01*
X1898908Y1634899D02*
X1900777D01*
X1898915Y1643899D02*
X1900770D01*
X1898920Y1644799D02*
X1900765D01*
X1898926Y1633999D02*
X1900759D01*
X1898934Y1557499D02*
X1900751D01*
X1898940Y1547599D02*
X1900746D01*
X1885542Y1571899D02*
X1894458D01*
X1885326Y1640299D02*
X1894359D01*
X1885722Y1563799D02*
X1894278D01*
X1885604Y1648399D02*
X1894081D01*
X1886541Y1504399D02*
X1893931D01*
X1885861Y1630399D02*
X1893824D01*
X1886808Y1514299D02*
X1893665D01*
X1886410Y1658299D02*
X1893590D01*
X1886970Y1697899D02*
X1893503D01*
X1886232Y1553899D02*
X1893453D01*
X1887030Y1524199D02*
X1893443D01*
X1887035Y1685299D02*
X1893438D01*
X1887170Y1687999D02*
X1893303D01*
X1887227Y1695199D02*
X1893246D01*
X1886484Y1543999D02*
X1893201D01*
X1887346Y1678099D02*
X1893126D01*
X1887350Y1516999D02*
X1893122D01*
X1887397Y1705099D02*
X1893076D01*
X1887508Y1507099D02*
X1892964D01*
X1887651Y1497199D02*
X1892821D01*
X1887364Y1651099D02*
X1892636D01*
X1887069Y1551199D02*
X1892616D01*
X1887217Y1561099D02*
X1892468D01*
X1888045Y1503499D02*
X1892428D01*
X1887607Y1570999D02*
X1892393D01*
X1887641Y1564699D02*
X1892359D01*
X1888148Y1513399D02*
X1892325D01*
X1887370Y1637599D02*
X1892315D01*
X1888217Y1698799D02*
X1892256D01*
X1887441Y1641199D02*
X1892244D01*
X1888243Y1523299D02*
X1892229D01*
X1888246Y1684399D02*
X1892227D01*
X1887492Y1647499D02*
X1892193D01*
X1888308Y1688899D02*
X1892164D01*
X1887848Y1657399D02*
X1892152D01*
X1888335Y1694299D02*
X1892137D01*
X1887559Y1631299D02*
X1892127D01*
X1888394Y1678999D02*
X1892079D01*
X1888396Y1517899D02*
X1892077D01*
X1888419Y1704199D02*
X1892053D01*
X1887682Y1554799D02*
X1892003D01*
X1888476Y1507999D02*
X1891997D01*
X1888551Y1498099D02*
X1891922D01*
X1887783Y1544899D02*
X1891902D01*
X1888287Y1651999D02*
X1891713D01*
X1888765Y1502599D02*
X1891707D01*
X1888823Y1512499D02*
X1891650D01*
X1888059Y1550299D02*
X1891626D01*
X1888861Y1699699D02*
X1891611D01*
X1888876Y1522399D02*
X1891596D01*
X1888877Y1683499D02*
X1891595D01*
X1888418Y1570099D02*
X1891582D01*
X1888437Y1565599D02*
X1891563D01*
X1888912Y1689799D02*
X1891560D01*
X1888135Y1560199D02*
X1891550D01*
X1888928Y1693399D02*
X1891545D01*
X1888960Y1679899D02*
X1891512D01*
X1888961Y1518799D02*
X1891511D01*
X1888974Y1703299D02*
X1891498D01*
X1888217Y1636699D02*
X1891468D01*
X1889006Y1508899D02*
X1891467D01*
X1888551Y1656499D02*
X1891449D01*
X1888256Y1642099D02*
X1891429D01*
X1889047Y1498999D02*
X1891426D01*
X1888284Y1646599D02*
X1891401D01*
X1888320Y1632199D02*
X1891365D01*
X1889161Y1501699D02*
X1891312D01*
X1888389Y1555699D02*
X1891296D01*
X1889190Y1511599D02*
X1891283D01*
X1889208Y1700599D02*
X1891264D01*
X1889216Y1521499D02*
X1891257D01*
X1889216Y1682599D02*
X1891256D01*
X1888445Y1545799D02*
X1891240D01*
X1889233Y1690699D02*
X1891240D01*
X1889240Y1692499D02*
X1891233D01*
X1889254Y1680799D02*
X1891218D01*
X1889255Y1519699D02*
X1891218D01*
X1889260Y1702399D02*
X1891212D01*
X1888796Y1652899D02*
X1891204D01*
X1889274Y1509799D02*
X1891199D01*
X1889290Y1499899D02*
X1891182D01*
X1889326Y1500799D02*
X1891146D01*
X1889332Y1510699D02*
X1891140D01*
X1889335Y1701499D02*
X1891138D01*
X1889335Y1520599D02*
X1891137D01*
X1889335Y1681699D02*
X1891137D01*
X1889336Y1691599D02*
X1891136D01*
X1888866Y1569199D02*
X1891134D01*
X1888876Y1566499D02*
X1891124D01*
X1888599Y1549399D02*
X1891086D01*
X1888935Y1655599D02*
X1891065D01*
X1888641Y1559299D02*
X1891044D01*
X1888686Y1635799D02*
X1890999D01*
X1888706Y1642999D02*
X1890979D01*
X1888721Y1645699D02*
X1890964D01*
X1889048Y1653799D02*
X1890952D01*
X1888740Y1633099D02*
X1890945D01*
X1889074Y1568299D02*
X1890926D01*
X1889077Y1567399D02*
X1890923D01*
X1888776Y1556599D02*
X1890909D01*
X1889092Y1654699D02*
X1890908D01*
X1888804Y1546699D02*
X1890881D01*
X1888875Y1548499D02*
X1890810D01*
X1888892Y1558399D02*
X1890793D01*
X1888908Y1634899D02*
X1890777D01*
X1888915Y1643899D02*
X1890770D01*
X1888920Y1644799D02*
X1890765D01*
X1888926Y1633999D02*
X1890759D01*
X1888934Y1557499D02*
X1890751D01*
X1888940Y1547599D02*
X1890746D01*
X1875542Y1571899D02*
X1884458D01*
X1875326Y1640299D02*
X1884359D01*
X1875722Y1563799D02*
X1884278D01*
X1875604Y1648399D02*
X1884081D01*
X1876541Y1504399D02*
X1883931D01*
X1875861Y1630399D02*
X1883824D01*
X1876808Y1514299D02*
X1883665D01*
X1876410Y1658299D02*
X1883590D01*
X1876970Y1697899D02*
X1883503D01*
X1876232Y1553899D02*
X1883453D01*
X1877030Y1524199D02*
X1883443D01*
X1877035Y1685299D02*
X1883438D01*
X1877170Y1687999D02*
X1883303D01*
X1877227Y1695199D02*
X1883246D01*
X1876484Y1543999D02*
X1883201D01*
X1877346Y1678099D02*
X1883126D01*
X1877350Y1516999D02*
X1883122D01*
X1877397Y1705099D02*
X1883076D01*
X1877508Y1507099D02*
X1882964D01*
X1877651Y1497199D02*
X1882821D01*
X1877364Y1651099D02*
X1882636D01*
X1877069Y1551199D02*
X1882616D01*
X1877217Y1561099D02*
X1882468D01*
X1878045Y1503499D02*
X1882428D01*
X1877607Y1570999D02*
X1882393D01*
X1877641Y1564699D02*
X1882359D01*
X1878148Y1513399D02*
X1882325D01*
X1877370Y1637599D02*
X1882315D01*
X1878217Y1698799D02*
X1882256D01*
X1877441Y1641199D02*
X1882244D01*
X1878243Y1523299D02*
X1882229D01*
X1878246Y1684399D02*
X1882227D01*
X1877492Y1647499D02*
X1882193D01*
X1878308Y1688899D02*
X1882164D01*
X1877848Y1657399D02*
X1882152D01*
X1878335Y1694299D02*
X1882137D01*
X1877559Y1631299D02*
X1882127D01*
X1878394Y1678999D02*
X1882079D01*
X1878396Y1517899D02*
X1882077D01*
X1878419Y1704199D02*
X1882053D01*
X1877682Y1554799D02*
X1882003D01*
X1878476Y1507999D02*
X1881997D01*
X1878551Y1498099D02*
X1881922D01*
X1877783Y1544899D02*
X1881902D01*
X1878287Y1651999D02*
X1881713D01*
X1878765Y1502599D02*
X1881707D01*
X1878823Y1512499D02*
X1881650D01*
X1878059Y1550299D02*
X1881626D01*
X1878861Y1699699D02*
X1881611D01*
X1878876Y1522399D02*
X1881596D01*
X1878877Y1683499D02*
X1881595D01*
X1878418Y1570099D02*
X1881582D01*
X1878437Y1565599D02*
X1881563D01*
X1878912Y1689799D02*
X1881560D01*
X1878135Y1560199D02*
X1881550D01*
X1878928Y1693399D02*
X1881545D01*
X1878960Y1679899D02*
X1881512D01*
X1878961Y1518799D02*
X1881511D01*
X1878974Y1703299D02*
X1881498D01*
X1878217Y1636699D02*
X1881468D01*
X1879006Y1508899D02*
X1881467D01*
X1878551Y1656499D02*
X1881449D01*
X1878256Y1642099D02*
X1881429D01*
X1879047Y1498999D02*
X1881426D01*
X1878284Y1646599D02*
X1881401D01*
X1878320Y1632199D02*
X1881365D01*
X1879161Y1501699D02*
X1881312D01*
X1878389Y1555699D02*
X1881296D01*
X1879190Y1511599D02*
X1881283D01*
X1879208Y1700599D02*
X1881264D01*
X1879216Y1521499D02*
X1881257D01*
X1879216Y1682599D02*
X1881256D01*
X1878445Y1545799D02*
X1881240D01*
X1879233Y1690699D02*
X1881240D01*
X1879240Y1692499D02*
X1881233D01*
X1879254Y1680799D02*
X1881218D01*
X1879255Y1519699D02*
X1881218D01*
X1879260Y1702399D02*
X1881212D01*
X1878796Y1652899D02*
X1881204D01*
X1879274Y1509799D02*
X1881199D01*
X1879290Y1499899D02*
X1881182D01*
X1879326Y1500799D02*
X1881146D01*
X1879332Y1510699D02*
X1881140D01*
X1879335Y1701499D02*
X1881138D01*
X1879335Y1520599D02*
X1881137D01*
X1879335Y1681699D02*
X1881137D01*
X1879336Y1691599D02*
X1881136D01*
X1878866Y1569199D02*
X1881134D01*
X1878876Y1566499D02*
X1881124D01*
X1878599Y1549399D02*
X1881086D01*
X1878935Y1655599D02*
X1881065D01*
X1878641Y1559299D02*
X1881044D01*
X1878686Y1635799D02*
X1880999D01*
X1878706Y1642999D02*
X1880979D01*
X1878721Y1645699D02*
X1880964D01*
X1879048Y1653799D02*
X1880952D01*
X1878740Y1633099D02*
X1880945D01*
X1879074Y1568299D02*
X1880926D01*
X1879077Y1567399D02*
X1880923D01*
X1878776Y1556599D02*
X1880909D01*
X1879092Y1654699D02*
X1880908D01*
X1878804Y1546699D02*
X1880881D01*
X1878875Y1548499D02*
X1880810D01*
X1878892Y1558399D02*
X1880793D01*
X1878908Y1634899D02*
X1880777D01*
X1878915Y1643899D02*
X1880770D01*
X1878920Y1644799D02*
X1880765D01*
X1878926Y1633999D02*
X1880759D01*
X1878934Y1557499D02*
X1880751D01*
X1878940Y1547599D02*
X1880746D01*
X1865542Y1571899D02*
X1874458D01*
X1865326Y1640299D02*
X1874359D01*
X1865722Y1563799D02*
X1874278D01*
X1865604Y1648399D02*
X1874081D01*
X1866541Y1504399D02*
X1873931D01*
X1865861Y1630399D02*
X1873824D01*
X1866808Y1514299D02*
X1873665D01*
X1866410Y1658299D02*
X1873590D01*
X1866970Y1697899D02*
X1873503D01*
X1866232Y1553899D02*
X1873453D01*
X1867030Y1524199D02*
X1873443D01*
X1867035Y1685299D02*
X1873438D01*
X1867170Y1687999D02*
X1873303D01*
X1867227Y1695199D02*
X1873246D01*
X1866484Y1543999D02*
X1873201D01*
X1867346Y1678099D02*
X1873126D01*
X1867350Y1516999D02*
X1873122D01*
X1867397Y1705099D02*
X1873076D01*
X1867508Y1507099D02*
X1872964D01*
X1867651Y1497199D02*
X1872821D01*
X1867364Y1651099D02*
X1872636D01*
X1867069Y1551199D02*
X1872616D01*
X1867217Y1561099D02*
X1872468D01*
X1868045Y1503499D02*
X1872428D01*
X1867607Y1570999D02*
X1872393D01*
X1867641Y1564699D02*
X1872359D01*
X1868148Y1513399D02*
X1872325D01*
X1867370Y1637599D02*
X1872315D01*
X1868217Y1698799D02*
X1872256D01*
X1867441Y1641199D02*
X1872244D01*
X1868243Y1523299D02*
X1872229D01*
X1868246Y1684399D02*
X1872227D01*
X1867492Y1647499D02*
X1872193D01*
X1868308Y1688899D02*
X1872164D01*
X1867848Y1657399D02*
X1872152D01*
X1868335Y1694299D02*
X1872137D01*
X1867559Y1631299D02*
X1872127D01*
X1868394Y1678999D02*
X1872079D01*
X1868396Y1517899D02*
X1872077D01*
X1868419Y1704199D02*
X1872053D01*
X1867682Y1554799D02*
X1872003D01*
X1868476Y1507999D02*
X1871997D01*
X1868551Y1498099D02*
X1871922D01*
X1867783Y1544899D02*
X1871902D01*
X1868287Y1651999D02*
X1871713D01*
X1868765Y1502599D02*
X1871707D01*
X1868823Y1512499D02*
X1871650D01*
X1868059Y1550299D02*
X1871626D01*
X1868861Y1699699D02*
X1871611D01*
X1868876Y1522399D02*
X1871596D01*
X1868877Y1683499D02*
X1871595D01*
X1868418Y1570099D02*
X1871582D01*
X1868437Y1565599D02*
X1871563D01*
X1868912Y1689799D02*
X1871560D01*
X1868135Y1560199D02*
X1871550D01*
X1868928Y1693399D02*
X1871545D01*
X1868960Y1679899D02*
X1871512D01*
X1868961Y1518799D02*
X1871511D01*
X1868974Y1703299D02*
X1871498D01*
X1868217Y1636699D02*
X1871468D01*
X1869006Y1508899D02*
X1871467D01*
X1868551Y1656499D02*
X1871449D01*
X1868256Y1642099D02*
X1871429D01*
X1869047Y1498999D02*
X1871426D01*
X1868284Y1646599D02*
X1871401D01*
X1868320Y1632199D02*
X1871365D01*
X1869161Y1501699D02*
X1871312D01*
X1868389Y1555699D02*
X1871296D01*
X1869190Y1511599D02*
X1871283D01*
X1869208Y1700599D02*
X1871264D01*
X1869216Y1521499D02*
X1871257D01*
X1869216Y1682599D02*
X1871256D01*
X1868445Y1545799D02*
X1871240D01*
X1869233Y1690699D02*
X1871240D01*
X1869240Y1692499D02*
X1871233D01*
X1869254Y1680799D02*
X1871218D01*
X1869255Y1519699D02*
X1871218D01*
X1869260Y1702399D02*
X1871212D01*
X1868796Y1652899D02*
X1871204D01*
X1869274Y1509799D02*
X1871199D01*
X1869290Y1499899D02*
X1871182D01*
X1869326Y1500799D02*
X1871146D01*
X1869332Y1510699D02*
X1871140D01*
X1869335Y1701499D02*
X1871138D01*
X1869335Y1520599D02*
X1871137D01*
X1869335Y1681699D02*
X1871137D01*
X1869336Y1691599D02*
X1871136D01*
X1868866Y1569199D02*
X1871134D01*
X1868876Y1566499D02*
X1871124D01*
X1868599Y1549399D02*
X1871086D01*
X1868935Y1655599D02*
X1871065D01*
X1868641Y1559299D02*
X1871044D01*
X1868686Y1635799D02*
X1870999D01*
X1868706Y1642999D02*
X1870979D01*
X1868721Y1645699D02*
X1870964D01*
X1869048Y1653799D02*
X1870952D01*
X1868740Y1633099D02*
X1870945D01*
X1869074Y1568299D02*
X1870926D01*
X1869077Y1567399D02*
X1870923D01*
X1868776Y1556599D02*
X1870909D01*
X1869092Y1654699D02*
X1870908D01*
X1868804Y1546699D02*
X1870881D01*
X1868875Y1548499D02*
X1870810D01*
X1868892Y1558399D02*
X1870793D01*
X1868908Y1634899D02*
X1870777D01*
X1868915Y1643899D02*
X1870770D01*
X1868920Y1644799D02*
X1870765D01*
X1868926Y1633999D02*
X1870759D01*
X1868934Y1557499D02*
X1870751D01*
X1868940Y1547599D02*
X1870746D01*
X1855542Y1571899D02*
X1864458D01*
X1855326Y1640299D02*
X1864359D01*
X1855722Y1563799D02*
X1864278D01*
X1855604Y1648399D02*
X1864081D01*
X1856541Y1504399D02*
X1863931D01*
X1855861Y1630399D02*
X1863824D01*
X1856808Y1514299D02*
X1863665D01*
X1856410Y1658299D02*
X1863590D01*
X1856970Y1697899D02*
X1863503D01*
X1856232Y1553899D02*
X1863453D01*
X1857030Y1524199D02*
X1863443D01*
X1857035Y1685299D02*
X1863438D01*
X1857170Y1687999D02*
X1863303D01*
X1857227Y1695199D02*
X1863246D01*
X1856484Y1543999D02*
X1863201D01*
X1857346Y1678099D02*
X1863126D01*
X1857350Y1516999D02*
X1863122D01*
X1857397Y1705099D02*
X1863076D01*
X1857508Y1507099D02*
X1862964D01*
X1857651Y1497199D02*
X1862821D01*
X1857364Y1651099D02*
X1862636D01*
X1857069Y1551199D02*
X1862616D01*
X1857217Y1561099D02*
X1862468D01*
X1858045Y1503499D02*
X1862428D01*
X1857607Y1570999D02*
X1862393D01*
X1857641Y1564699D02*
X1862359D01*
X1858148Y1513399D02*
X1862325D01*
X1857370Y1637599D02*
X1862315D01*
X1858217Y1698799D02*
X1862256D01*
X1857441Y1641199D02*
X1862244D01*
X1858243Y1523299D02*
X1862229D01*
X1858246Y1684399D02*
X1862227D01*
X1857492Y1647499D02*
X1862193D01*
X1858308Y1688899D02*
X1862164D01*
X1857848Y1657399D02*
X1862152D01*
X1858335Y1694299D02*
X1862137D01*
X1857559Y1631299D02*
X1862127D01*
X1858394Y1678999D02*
X1862079D01*
X1858396Y1517899D02*
X1862077D01*
X1858419Y1704199D02*
X1862053D01*
X1857682Y1554799D02*
X1862003D01*
X1858476Y1507999D02*
X1861997D01*
X1858551Y1498099D02*
X1861922D01*
X1857783Y1544899D02*
X1861902D01*
X1858287Y1651999D02*
X1861713D01*
X1858765Y1502599D02*
X1861707D01*
X1858823Y1512499D02*
X1861650D01*
X1858059Y1550299D02*
X1861626D01*
X1858861Y1699699D02*
X1861611D01*
X1858876Y1522399D02*
X1861596D01*
X1858877Y1683499D02*
X1861595D01*
X1858418Y1570099D02*
X1861582D01*
X1858437Y1565599D02*
X1861563D01*
X1858912Y1689799D02*
X1861560D01*
X1858135Y1560199D02*
X1861550D01*
X1858928Y1693399D02*
X1861545D01*
X1858960Y1679899D02*
X1861512D01*
X1858961Y1518799D02*
X1861511D01*
X1858974Y1703299D02*
X1861498D01*
X1858217Y1636699D02*
X1861468D01*
X1859006Y1508899D02*
X1861467D01*
X1858551Y1656499D02*
X1861449D01*
X1858256Y1642099D02*
X1861429D01*
X1859047Y1498999D02*
X1861426D01*
X1858284Y1646599D02*
X1861401D01*
X1858320Y1632199D02*
X1861365D01*
X1859161Y1501699D02*
X1861312D01*
X1858389Y1555699D02*
X1861296D01*
X1859190Y1511599D02*
X1861283D01*
X1859208Y1700599D02*
X1861264D01*
X1859216Y1521499D02*
X1861257D01*
X1859216Y1682599D02*
X1861256D01*
X1858445Y1545799D02*
X1861240D01*
X1859233Y1690699D02*
X1861240D01*
X1859240Y1692499D02*
X1861233D01*
X1859254Y1680799D02*
X1861218D01*
X1859255Y1519699D02*
X1861218D01*
X1859260Y1702399D02*
X1861212D01*
X1858796Y1652899D02*
X1861204D01*
X1859274Y1509799D02*
X1861199D01*
X1859290Y1499899D02*
X1861182D01*
X1859326Y1500799D02*
X1861146D01*
X1859332Y1510699D02*
X1861140D01*
X1859335Y1701499D02*
X1861138D01*
X1859335Y1520599D02*
X1861137D01*
X1859335Y1681699D02*
X1861137D01*
X1859336Y1691599D02*
X1861136D01*
X1858866Y1569199D02*
X1861134D01*
X1858876Y1566499D02*
X1861124D01*
X1858599Y1549399D02*
X1861086D01*
X1858935Y1655599D02*
X1861065D01*
X1858641Y1559299D02*
X1861044D01*
X1858686Y1635799D02*
X1860999D01*
X1858706Y1642999D02*
X1860979D01*
X1858721Y1645699D02*
X1860964D01*
X1859048Y1653799D02*
X1860952D01*
X1858740Y1633099D02*
X1860945D01*
X1859074Y1568299D02*
X1860926D01*
X1859077Y1567399D02*
X1860923D01*
X1858776Y1556599D02*
X1860909D01*
X1859092Y1654699D02*
X1860908D01*
X1858804Y1546699D02*
X1860881D01*
X1858875Y1548499D02*
X1860810D01*
X1858892Y1558399D02*
X1860793D01*
X1858908Y1634899D02*
X1860777D01*
X1858915Y1643899D02*
X1860770D01*
X1858920Y1644799D02*
X1860765D01*
X1858926Y1633999D02*
X1860759D01*
X1858934Y1557499D02*
X1860751D01*
X1858940Y1547599D02*
X1860746D01*
X1845542Y1571899D02*
X1854458D01*
X1845326Y1640299D02*
X1854359D01*
X1845722Y1563799D02*
X1854278D01*
X1845604Y1648399D02*
X1854081D01*
X1846541Y1504399D02*
X1853931D01*
X1845861Y1630399D02*
X1853824D01*
X1846808Y1514299D02*
X1853665D01*
X1846410Y1658299D02*
X1853590D01*
X1846970Y1697899D02*
X1853503D01*
X1846232Y1553899D02*
X1853453D01*
X1847030Y1524199D02*
X1853443D01*
X1847035Y1685299D02*
X1853438D01*
X1847170Y1687999D02*
X1853303D01*
X1847227Y1695199D02*
X1853246D01*
X1846484Y1543999D02*
X1853201D01*
X1847346Y1678099D02*
X1853126D01*
X1847350Y1516999D02*
X1853122D01*
X1847397Y1705099D02*
X1853076D01*
X1847508Y1507099D02*
X1852964D01*
X1847651Y1497199D02*
X1852821D01*
X1847364Y1651099D02*
X1852636D01*
X1847069Y1551199D02*
X1852616D01*
X1847217Y1561099D02*
X1852468D01*
X1848045Y1503499D02*
X1852428D01*
X1847607Y1570999D02*
X1852393D01*
X1847641Y1564699D02*
X1852359D01*
X1848148Y1513399D02*
X1852325D01*
X1847370Y1637599D02*
X1852315D01*
X1848217Y1698799D02*
X1852256D01*
X1847441Y1641199D02*
X1852244D01*
X1848243Y1523299D02*
X1852229D01*
X1848246Y1684399D02*
X1852227D01*
X1847492Y1647499D02*
X1852193D01*
X1848308Y1688899D02*
X1852164D01*
X1847848Y1657399D02*
X1852152D01*
X1848335Y1694299D02*
X1852137D01*
X1847559Y1631299D02*
X1852127D01*
X1848394Y1678999D02*
X1852079D01*
X1848396Y1517899D02*
X1852077D01*
X1848419Y1704199D02*
X1852053D01*
X1847682Y1554799D02*
X1852003D01*
X1848476Y1507999D02*
X1851997D01*
X1848551Y1498099D02*
X1851922D01*
X1847783Y1544899D02*
X1851902D01*
X1848287Y1651999D02*
X1851713D01*
X1848765Y1502599D02*
X1851707D01*
X1848823Y1512499D02*
X1851650D01*
X1848059Y1550299D02*
X1851626D01*
X1848861Y1699699D02*
X1851611D01*
X1848876Y1522399D02*
X1851596D01*
X1848877Y1683499D02*
X1851595D01*
X1848418Y1570099D02*
X1851582D01*
X1848437Y1565599D02*
X1851563D01*
X1848912Y1689799D02*
X1851560D01*
X1848135Y1560199D02*
X1851550D01*
X1848928Y1693399D02*
X1851545D01*
X1848960Y1679899D02*
X1851512D01*
X1848961Y1518799D02*
X1851511D01*
X1848974Y1703299D02*
X1851498D01*
X1848217Y1636699D02*
X1851468D01*
X1849006Y1508899D02*
X1851467D01*
X1848551Y1656499D02*
X1851449D01*
X1848256Y1642099D02*
X1851429D01*
X1849047Y1498999D02*
X1851426D01*
X1848284Y1646599D02*
X1851401D01*
X1848320Y1632199D02*
X1851365D01*
X1849161Y1501699D02*
X1851312D01*
X1848389Y1555699D02*
X1851296D01*
X1849190Y1511599D02*
X1851283D01*
X1849208Y1700599D02*
X1851264D01*
X1849216Y1521499D02*
X1851257D01*
X1849216Y1682599D02*
X1851256D01*
X1848445Y1545799D02*
X1851240D01*
X1849233Y1690699D02*
X1851240D01*
X1849240Y1692499D02*
X1851233D01*
X1849254Y1680799D02*
X1851218D01*
X1849255Y1519699D02*
X1851218D01*
X1849260Y1702399D02*
X1851212D01*
X1848796Y1652899D02*
X1851204D01*
X1849274Y1509799D02*
X1851199D01*
X1849290Y1499899D02*
X1851182D01*
X1849326Y1500799D02*
X1851146D01*
X1849332Y1510699D02*
X1851140D01*
X1849335Y1701499D02*
X1851138D01*
X1849335Y1520599D02*
X1851137D01*
X1849335Y1681699D02*
X1851137D01*
X1849336Y1691599D02*
X1851136D01*
X1848866Y1569199D02*
X1851134D01*
X1848876Y1566499D02*
X1851124D01*
X1848599Y1549399D02*
X1851086D01*
X1848935Y1655599D02*
X1851065D01*
X1848641Y1559299D02*
X1851044D01*
X1848686Y1635799D02*
X1850999D01*
X1848706Y1642999D02*
X1850979D01*
X1848721Y1645699D02*
X1850964D01*
X1849048Y1653799D02*
X1850952D01*
X1848740Y1633099D02*
X1850945D01*
X1849074Y1568299D02*
X1850926D01*
X1849077Y1567399D02*
X1850923D01*
X1848776Y1556599D02*
X1850909D01*
X1849092Y1654699D02*
X1850908D01*
X1848804Y1546699D02*
X1850881D01*
X1848875Y1548499D02*
X1850810D01*
X1848892Y1558399D02*
X1850793D01*
X1848908Y1634899D02*
X1850777D01*
X1848915Y1643899D02*
X1850770D01*
X1848920Y1644799D02*
X1850765D01*
X1848926Y1633999D02*
X1850759D01*
X1848934Y1557499D02*
X1850751D01*
X1848940Y1547599D02*
X1850746D01*
X1826100Y1571899D02*
X1844458D01*
X1826100Y1640299D02*
X1844359D01*
X1826100Y1563799D02*
X1844278D01*
X1826100Y1648399D02*
X1844081D01*
X1826100Y1504399D02*
X1843931D01*
X1826100Y1630399D02*
X1843824D01*
X1826100Y1514299D02*
X1843665D01*
X1826100Y1658299D02*
X1843590D01*
X1826100Y1697899D02*
X1843503D01*
X1826100Y1553899D02*
X1843453D01*
X1826100Y1524199D02*
X1843443D01*
X1826100Y1685299D02*
X1843438D01*
X1826100Y1687999D02*
X1843303D01*
X1826100Y1695199D02*
X1843246D01*
X1826100Y1543999D02*
X1843201D01*
X1826100Y1678099D02*
X1843126D01*
X1826100Y1516999D02*
X1843122D01*
X1826100Y1705099D02*
X1843076D01*
X1826100Y1507099D02*
X1842964D01*
X1826100Y1497199D02*
X1842821D01*
X1826100Y1651099D02*
X1842636D01*
X1826100Y1551199D02*
X1842616D01*
X1826100Y1561099D02*
X1842468D01*
X1826100Y1503499D02*
X1842428D01*
X1826100Y1570999D02*
X1842393D01*
X1826100Y1564699D02*
X1842359D01*
X1826100Y1513399D02*
X1842325D01*
X1826100Y1637599D02*
X1842315D01*
X1826100Y1698799D02*
X1842256D01*
X1826100Y1641199D02*
X1842244D01*
X1826100Y1523299D02*
X1842229D01*
X1826100Y1684399D02*
X1842227D01*
X1826100Y1647499D02*
X1842193D01*
X1826100Y1688899D02*
X1842164D01*
X1826100Y1657399D02*
X1842152D01*
X1826100Y1694299D02*
X1842137D01*
X1826100Y1631299D02*
X1842127D01*
X1826100Y1678999D02*
X1842079D01*
X1826100Y1517899D02*
X1842077D01*
X1826100Y1704199D02*
X1842053D01*
X1826100Y1554799D02*
X1842003D01*
X1826100Y1507999D02*
X1841997D01*
X1826100Y1498099D02*
X1841922D01*
X1826100Y1544899D02*
X1841902D01*
X1826100Y1651999D02*
X1841713D01*
X1826100Y1502599D02*
X1841707D01*
X1826100Y1512499D02*
X1841650D01*
X1826100Y1550299D02*
X1841626D01*
X1826100Y1699699D02*
X1841611D01*
X1826100Y1522399D02*
X1841596D01*
X1826100Y1683499D02*
X1841595D01*
X1826100Y1570099D02*
X1841582D01*
X1826100Y1565599D02*
X1841563D01*
X1826100Y1689799D02*
X1841560D01*
X1826100Y1560199D02*
X1841550D01*
X1826100Y1693399D02*
X1841545D01*
X1826100Y1679899D02*
X1841512D01*
X1826100Y1518799D02*
X1841511D01*
X1826100Y1703299D02*
X1841498D01*
X1826100Y1636699D02*
X1841468D01*
X1826100Y1508899D02*
X1841467D01*
X1826100Y1656499D02*
X1841449D01*
X1826100Y1642099D02*
X1841429D01*
X1826100Y1498999D02*
X1841426D01*
X1826100Y1646599D02*
X1841401D01*
X1826100Y1632199D02*
X1841365D01*
X1826100Y1501699D02*
X1841312D01*
X1826100Y1555699D02*
X1841296D01*
X1826100Y1511599D02*
X1841283D01*
X1826100Y1700599D02*
X1841264D01*
X1826100Y1521499D02*
X1841257D01*
X1826100Y1682599D02*
X1841256D01*
X1826100Y1545799D02*
X1841240D01*
X1826100Y1690699D02*
X1841240D01*
X1826100Y1692499D02*
X1841233D01*
X1826100Y1680799D02*
X1841218D01*
X1826100Y1519699D02*
X1841218D01*
X1826100Y1702399D02*
X1841212D01*
X1826100Y1652899D02*
X1841204D01*
X1826100Y1509799D02*
X1841199D01*
X1826100Y1499899D02*
X1841182D01*
X1826100Y1500799D02*
X1841146D01*
X1826100Y1510699D02*
X1841140D01*
X1826100Y1701499D02*
X1841138D01*
X1826100Y1520599D02*
X1841137D01*
X1826100Y1681699D02*
X1841137D01*
X1826100Y1691599D02*
X1841136D01*
X1826100Y1569199D02*
X1841134D01*
X1826100Y1566499D02*
X1841124D01*
X1826100Y1549399D02*
X1841086D01*
X1826100Y1655599D02*
X1841065D01*
X1826100Y1559299D02*
X1841044D01*
X1826100Y1635799D02*
X1840999D01*
X1826100Y1642999D02*
X1840979D01*
X1826100Y1645699D02*
X1840964D01*
X1826100Y1653799D02*
X1840952D01*
X1826100Y1633099D02*
X1840945D01*
X1826100Y1568299D02*
X1840926D01*
X1826100Y1567399D02*
X1840923D01*
X1826100Y1556599D02*
X1840909D01*
X1826100Y1654699D02*
X1840908D01*
X1826100Y1546699D02*
X1840881D01*
X1826100Y1548499D02*
X1840810D01*
X1826100Y1558399D02*
X1840793D01*
X1826100Y1634899D02*
X1840777D01*
X1826100Y1643899D02*
X1840770D01*
X1826100Y1644799D02*
X1840765D01*
X1826100Y1633999D02*
X1840759D01*
X1826100Y1557499D02*
X1840751D01*
X1826100Y1547599D02*
X1840746D01*
G54D17*
X1848135Y1704513D02*
X1847358Y1703735D01*
X1842337Y1704513D02*
X1843115Y1703735D01*
X1842337Y1698715D02*
X1843115Y1699493D01*
X1848135Y1698715D02*
X1847358Y1699493D01*
X2157742Y1647269D02*
X2156964Y1646491D01*
X2151943Y1647269D02*
X2152721Y1646491D01*
X2151943Y1641471D02*
X2152721Y1642249D01*
X2157742Y1641471D02*
X2156964Y1642249D01*
X1858135Y1704513D02*
X1857358Y1703735D01*
X1852337Y1704513D02*
X1853115Y1703735D01*
X1852337Y1698715D02*
X1853115Y1699493D01*
X1858135Y1698715D02*
X1857358Y1699493D01*
X1868135Y1704513D02*
X1867358Y1703735D01*
X1862337Y1704513D02*
X1863115Y1703735D01*
X1862337Y1698715D02*
X1863115Y1699493D01*
X1868135Y1698715D02*
X1867358Y1699493D01*
X1878135Y1704513D02*
X1877358Y1703735D01*
X1872337Y1704513D02*
X1873115Y1703735D01*
X1872337Y1698715D02*
X1873115Y1699493D01*
X1878135Y1698715D02*
X1877358Y1699493D01*
X1888135Y1704513D02*
X1887358Y1703735D01*
X1882337Y1704513D02*
X1883115Y1703735D01*
X1882337Y1698715D02*
X1883115Y1699493D01*
X1888135Y1698715D02*
X1887358Y1699493D01*
X1898135Y1704513D02*
X1897358Y1703735D01*
X1892337Y1704513D02*
X1893115Y1703735D01*
X1892337Y1698715D02*
X1893115Y1699493D01*
X1898135Y1698715D02*
X1897358Y1699493D01*
X1908135Y1704513D02*
X1907358Y1703735D01*
X1902337Y1704513D02*
X1903115Y1703735D01*
X1902337Y1698715D02*
X1903115Y1699493D01*
X1908135Y1698715D02*
X1907358Y1699493D01*
X1918135Y1704513D02*
X1917358Y1703735D01*
X1912337Y1704513D02*
X1913115Y1703735D01*
X1912337Y1698715D02*
X1913115Y1699493D01*
X1918135Y1698715D02*
X1917358Y1699493D01*
X1928135Y1704513D02*
X1927358Y1703735D01*
X1922337Y1704513D02*
X1923115Y1703735D01*
X1922337Y1698715D02*
X1923115Y1699493D01*
X1928135Y1698715D02*
X1927358Y1699493D01*
X1938135Y1704513D02*
X1937358Y1703735D01*
X1932337Y1704513D02*
X1933115Y1703735D01*
X1932337Y1698715D02*
X1933115Y1699493D01*
X1938135Y1698715D02*
X1937358Y1699493D01*
X1948135Y1704513D02*
X1947358Y1703735D01*
X1942337Y1704513D02*
X1943115Y1703735D01*
X1942337Y1698715D02*
X1943115Y1699493D01*
X1948135Y1698715D02*
X1947358Y1699493D01*
X1958135Y1704513D02*
X1957358Y1703735D01*
X1952337Y1704513D02*
X1953115Y1703735D01*
X1952337Y1698715D02*
X1953115Y1699493D01*
X1958135Y1698715D02*
X1957358Y1699493D01*
X1968135Y1704513D02*
X1967358Y1703735D01*
X1962337Y1704513D02*
X1963115Y1703735D01*
X1962337Y1698715D02*
X1963115Y1699493D01*
X1968135Y1698715D02*
X1967358Y1699493D01*
X1978135Y1704513D02*
X1977358Y1703735D01*
X1972337Y1704513D02*
X1973115Y1703735D01*
X1972337Y1698715D02*
X1973115Y1699493D01*
X1978135Y1698715D02*
X1977358Y1699493D01*
X1988135Y1704513D02*
X1987358Y1703735D01*
X1982337Y1704513D02*
X1983115Y1703735D01*
X1982337Y1698715D02*
X1983115Y1699493D01*
X1988135Y1698715D02*
X1987358Y1699493D01*
X1998135Y1704513D02*
X1997358Y1703735D01*
X1992337Y1704513D02*
X1993115Y1703735D01*
X1992337Y1698715D02*
X1993115Y1699493D01*
X1998135Y1698715D02*
X1997358Y1699493D01*
X2008135Y1704513D02*
X2007358Y1703735D01*
X2002337Y1704513D02*
X2003115Y1703735D01*
X2002337Y1698715D02*
X2003115Y1699493D01*
X2008135Y1698715D02*
X2007358Y1699493D01*
X2018135Y1704513D02*
X2017358Y1703735D01*
X2012337Y1704513D02*
X2013115Y1703735D01*
X2012337Y1698715D02*
X2013115Y1699493D01*
X2018135Y1698715D02*
X2017358Y1699493D01*
X2028135Y1704513D02*
X2027358Y1703735D01*
X2022337Y1704513D02*
X2023115Y1703735D01*
X2022337Y1698715D02*
X2023115Y1699493D01*
X2028135Y1698715D02*
X2027358Y1699493D01*
X2038135Y1704513D02*
X2037358Y1703735D01*
X2032337Y1704513D02*
X2033115Y1703735D01*
X2032337Y1698715D02*
X2033115Y1699493D01*
X2038135Y1698715D02*
X2037358Y1699493D01*
X2048135Y1704513D02*
X2047358Y1703735D01*
X2042337Y1704513D02*
X2043115Y1703735D01*
X2042337Y1698715D02*
X2043115Y1699493D01*
X2048135Y1698715D02*
X2047358Y1699493D01*
X2058135Y1704513D02*
X2057358Y1703735D01*
X2052337Y1704513D02*
X2053115Y1703735D01*
X2052337Y1698715D02*
X2053115Y1699493D01*
X2058135Y1698715D02*
X2057358Y1699493D01*
X2068135Y1704513D02*
X2067358Y1703735D01*
X2062337Y1704513D02*
X2063115Y1703735D01*
X2062337Y1698715D02*
X2063115Y1699493D01*
X2068135Y1698715D02*
X2067358Y1699493D01*
X2078135Y1704513D02*
X2077358Y1703735D01*
X2072337Y1704513D02*
X2073115Y1703735D01*
X2072337Y1698715D02*
X2073115Y1699493D01*
X2078135Y1698715D02*
X2077358Y1699493D01*
X2088135Y1704513D02*
X2087358Y1703735D01*
X2082337Y1704513D02*
X2083115Y1703735D01*
X2082337Y1698715D02*
X2083115Y1699493D01*
X2088135Y1698715D02*
X2087358Y1699493D01*
X2098135Y1704513D02*
X2097358Y1703735D01*
X2092337Y1704513D02*
X2093115Y1703735D01*
X2092337Y1698715D02*
X2093115Y1699493D01*
X2098135Y1698715D02*
X2097358Y1699493D01*
X2108135Y1704513D02*
X2107358Y1703735D01*
X2102337Y1704513D02*
X2103115Y1703735D01*
X2102337Y1698715D02*
X2103115Y1699493D01*
X2108135Y1698715D02*
X2107358Y1699493D01*
X2118135Y1704513D02*
X2117358Y1703735D01*
X2112337Y1704513D02*
X2113115Y1703735D01*
X2112337Y1698715D02*
X2113115Y1699493D01*
X2118135Y1698715D02*
X2117358Y1699493D01*
X2128135Y1704513D02*
X2127358Y1703735D01*
X2122337Y1704513D02*
X2123115Y1703735D01*
X2122337Y1698715D02*
X2123115Y1699493D01*
X2128135Y1698715D02*
X2127358Y1699493D01*
X2138135Y1704513D02*
X2137358Y1703735D01*
X2132337Y1704513D02*
X2133115Y1703735D01*
X2132337Y1698715D02*
X2133115Y1699493D01*
X2138135Y1698715D02*
X2137358Y1699493D01*
X2148135Y1704513D02*
X2147358Y1703735D01*
X2142337Y1704513D02*
X2143115Y1703735D01*
X2142337Y1698715D02*
X2143115Y1699493D01*
X2148135Y1698715D02*
X2147358Y1699493D01*
X2158135Y1704513D02*
X2157358Y1703735D01*
X2152337Y1704513D02*
X2153115Y1703735D01*
X2152337Y1698715D02*
X2153115Y1699493D01*
X2158135Y1698715D02*
X2157358Y1699493D01*
X1848135Y1523411D02*
X1847358Y1522633D01*
X1842337Y1523411D02*
X1843115Y1522633D01*
X1842337Y1517613D02*
X1843115Y1518390D01*
X1848135Y1517613D02*
X1847358Y1518390D01*
X1858135Y1523411D02*
X1857358Y1522633D01*
X1852337Y1523411D02*
X1853115Y1522633D01*
X1852337Y1517613D02*
X1853115Y1518390D01*
X1858135Y1517613D02*
X1857358Y1518390D01*
X1868135Y1523411D02*
X1867358Y1522633D01*
X1862337Y1523411D02*
X1863115Y1522633D01*
X1862337Y1517613D02*
X1863115Y1518390D01*
X1868135Y1517613D02*
X1867358Y1518390D01*
X1878135Y1523411D02*
X1877358Y1522633D01*
X1872337Y1523411D02*
X1873115Y1522633D01*
X1872337Y1517613D02*
X1873115Y1518390D01*
X1878135Y1517613D02*
X1877358Y1518390D01*
X1888135Y1523411D02*
X1887358Y1522633D01*
X1882337Y1523411D02*
X1883115Y1522633D01*
X1882337Y1517613D02*
X1883115Y1518390D01*
X1888135Y1517613D02*
X1887358Y1518390D01*
X1898135Y1523411D02*
X1897358Y1522633D01*
X1892337Y1523411D02*
X1893115Y1522633D01*
X1892337Y1517613D02*
X1893115Y1518390D01*
X1898135Y1517613D02*
X1897358Y1518390D01*
X1908135Y1523411D02*
X1907358Y1522633D01*
X1902337Y1523411D02*
X1903115Y1522633D01*
X1902337Y1517613D02*
X1903115Y1518390D01*
X1908135Y1517613D02*
X1907358Y1518390D01*
X1918135Y1523411D02*
X1917358Y1522633D01*
X1912337Y1523411D02*
X1913115Y1522633D01*
X1912337Y1517613D02*
X1913115Y1518390D01*
X1918135Y1517613D02*
X1917358Y1518390D01*
X1928135Y1523411D02*
X1927358Y1522633D01*
X1922337Y1523411D02*
X1923115Y1522633D01*
X1922337Y1517613D02*
X1923115Y1518390D01*
X1928135Y1517613D02*
X1927358Y1518390D01*
X1938135Y1523411D02*
X1937358Y1522633D01*
X1932337Y1523411D02*
X1933115Y1522633D01*
X1932337Y1517613D02*
X1933115Y1518390D01*
X1938135Y1517613D02*
X1937358Y1518390D01*
X1948135Y1523411D02*
X1947358Y1522633D01*
X1942337Y1523411D02*
X1943115Y1522633D01*
X1942337Y1517613D02*
X1943115Y1518390D01*
X1948135Y1517613D02*
X1947358Y1518390D01*
X1958135Y1523411D02*
X1957358Y1522633D01*
X1952337Y1523411D02*
X1953115Y1522633D01*
X1952337Y1517613D02*
X1953115Y1518390D01*
X1958135Y1517613D02*
X1957358Y1518390D01*
X1968135Y1523411D02*
X1967358Y1522633D01*
X1962337Y1523411D02*
X1963115Y1522633D01*
X1962337Y1517613D02*
X1963115Y1518390D01*
X1968135Y1517613D02*
X1967358Y1518390D01*
X1978135Y1523411D02*
X1977358Y1522633D01*
X1972337Y1523411D02*
X1973115Y1522633D01*
X1972337Y1517613D02*
X1973115Y1518390D01*
X1978135Y1517613D02*
X1977358Y1518390D01*
X1988135Y1523411D02*
X1987358Y1522633D01*
X1982337Y1523411D02*
X1983115Y1522633D01*
X1982337Y1517613D02*
X1983115Y1518390D01*
X1988135Y1517613D02*
X1987358Y1518390D01*
X1998135Y1523411D02*
X1997358Y1522633D01*
X1992337Y1523411D02*
X1993115Y1522633D01*
X1992337Y1517613D02*
X1993115Y1518390D01*
X1998135Y1517613D02*
X1997358Y1518390D01*
X2008135Y1523411D02*
X2007358Y1522633D01*
X2002337Y1523411D02*
X2003115Y1522633D01*
X2002337Y1517613D02*
X2003115Y1518390D01*
X2008135Y1517613D02*
X2007358Y1518390D01*
X2018135Y1523411D02*
X2017358Y1522633D01*
X2012337Y1523411D02*
X2013115Y1522633D01*
X2012337Y1517613D02*
X2013115Y1518390D01*
X2018135Y1517613D02*
X2017358Y1518390D01*
X2028135Y1523411D02*
X2027358Y1522633D01*
X2022337Y1523411D02*
X2023115Y1522633D01*
X2022337Y1517613D02*
X2023115Y1518390D01*
X2028135Y1517613D02*
X2027358Y1518390D01*
X2038135Y1523411D02*
X2037358Y1522633D01*
X2032337Y1523411D02*
X2033115Y1522633D01*
X2032337Y1517613D02*
X2033115Y1518390D01*
X2038135Y1517613D02*
X2037358Y1518390D01*
X2048135Y1523411D02*
X2047358Y1522633D01*
X2042337Y1523411D02*
X2043115Y1522633D01*
X2042337Y1517613D02*
X2043115Y1518390D01*
X2048135Y1517613D02*
X2047358Y1518390D01*
X2058135Y1523411D02*
X2057358Y1522633D01*
X2052337Y1523411D02*
X2053115Y1522633D01*
X2052337Y1517613D02*
X2053115Y1518390D01*
X2058135Y1517613D02*
X2057358Y1518390D01*
X2068135Y1523411D02*
X2067358Y1522633D01*
X2062337Y1523411D02*
X2063115Y1522633D01*
X2062337Y1517613D02*
X2063115Y1518390D01*
X2068135Y1517613D02*
X2067358Y1518390D01*
X2078135Y1523411D02*
X2077358Y1522633D01*
X2072337Y1523411D02*
X2073115Y1522633D01*
X2072337Y1517613D02*
X2073115Y1518390D01*
X2078135Y1517613D02*
X2077358Y1518390D01*
X2088135Y1523411D02*
X2087358Y1522633D01*
X2082337Y1523411D02*
X2083115Y1522633D01*
X2082337Y1517613D02*
X2083115Y1518390D01*
X2088135Y1517613D02*
X2087358Y1518390D01*
X2098135Y1523411D02*
X2097358Y1522633D01*
X2092337Y1523411D02*
X2093115Y1522633D01*
X2092337Y1517613D02*
X2093115Y1518390D01*
X2098135Y1517613D02*
X2097358Y1518390D01*
X2108135Y1523411D02*
X2107358Y1522633D01*
X2102337Y1523411D02*
X2103115Y1522633D01*
X2102337Y1517613D02*
X2103115Y1518390D01*
X2108135Y1517613D02*
X2107358Y1518390D01*
X2118135Y1523411D02*
X2117358Y1522633D01*
X2112337Y1523411D02*
X2113115Y1522633D01*
X2112337Y1517613D02*
X2113115Y1518390D01*
X2118135Y1517613D02*
X2117358Y1518390D01*
X2128135Y1523411D02*
X2127358Y1522633D01*
X2122337Y1523411D02*
X2123115Y1522633D01*
X2122337Y1517613D02*
X2123115Y1518390D01*
X2128135Y1517613D02*
X2127358Y1518390D01*
X2138135Y1523411D02*
X2137358Y1522633D01*
X2132337Y1523411D02*
X2133115Y1522633D01*
X2132337Y1517613D02*
X2133115Y1518390D01*
X2138135Y1517613D02*
X2137358Y1518390D01*
X2148135Y1523411D02*
X2147358Y1522633D01*
X2142337Y1523411D02*
X2143115Y1522633D01*
X2142337Y1517613D02*
X2143115Y1518390D01*
X2148135Y1517613D02*
X2147358Y1518390D01*
X2158135Y1523411D02*
X2157358Y1522633D01*
X2152337Y1523411D02*
X2153115Y1522633D01*
X2152337Y1517613D02*
X2153115Y1518390D01*
X2158135Y1517613D02*
X2157358Y1518390D01*
X1847742Y1560655D02*
X1846964Y1559877D01*
X1841943Y1560655D02*
X1842721Y1559877D01*
X1841943Y1554857D02*
X1842721Y1555635D01*
X1847742Y1554857D02*
X1846964Y1555635D01*
X1857742Y1560655D02*
X1856964Y1559877D01*
X1851943Y1560655D02*
X1852721Y1559877D01*
X1851943Y1554857D02*
X1852721Y1555635D01*
X1857742Y1554857D02*
X1856964Y1555635D01*
X1867742Y1560655D02*
X1866964Y1559877D01*
X1861943Y1560655D02*
X1862721Y1559877D01*
X1861943Y1554857D02*
X1862721Y1555635D01*
X1867742Y1554857D02*
X1866964Y1555635D01*
X1877742Y1560655D02*
X1876964Y1559877D01*
X1871943Y1560655D02*
X1872721Y1559877D01*
X1871943Y1554857D02*
X1872721Y1555635D01*
X1877742Y1554857D02*
X1876964Y1555635D01*
X1887742Y1560655D02*
X1886964Y1559877D01*
X1881943Y1560655D02*
X1882721Y1559877D01*
X1881943Y1554857D02*
X1882721Y1555635D01*
X1887742Y1554857D02*
X1886964Y1555635D01*
X1897742Y1560655D02*
X1896964Y1559877D01*
X1891943Y1560655D02*
X1892721Y1559877D01*
X1891943Y1554857D02*
X1892721Y1555635D01*
X1897742Y1554857D02*
X1896964Y1555635D01*
X1907742Y1560655D02*
X1906964Y1559877D01*
X1901943Y1560655D02*
X1902721Y1559877D01*
X1901943Y1554857D02*
X1902721Y1555635D01*
X1907742Y1554857D02*
X1906964Y1555635D01*
X1917742Y1560655D02*
X1916964Y1559877D01*
X1911943Y1560655D02*
X1912721Y1559877D01*
X1911943Y1554857D02*
X1912721Y1555635D01*
X1917742Y1554857D02*
X1916964Y1555635D01*
X1927742Y1560655D02*
X1926964Y1559877D01*
X1921943Y1560655D02*
X1922721Y1559877D01*
X1921943Y1554857D02*
X1922721Y1555635D01*
X1927742Y1554857D02*
X1926964Y1555635D01*
X1937742Y1560655D02*
X1936964Y1559877D01*
X1931943Y1560655D02*
X1932721Y1559877D01*
X1931943Y1554857D02*
X1932721Y1555635D01*
X1937742Y1554857D02*
X1936964Y1555635D01*
X1947742Y1560655D02*
X1946964Y1559877D01*
X1941943Y1560655D02*
X1942721Y1559877D01*
X1941943Y1554857D02*
X1942721Y1555635D01*
X1947742Y1554857D02*
X1946964Y1555635D01*
X1957742Y1560655D02*
X1956964Y1559877D01*
X1951943Y1560655D02*
X1952721Y1559877D01*
X1951943Y1554857D02*
X1952721Y1555635D01*
X1957742Y1554857D02*
X1956964Y1555635D01*
X1967742Y1560655D02*
X1966964Y1559877D01*
X1961943Y1560655D02*
X1962721Y1559877D01*
X1961943Y1554857D02*
X1962721Y1555635D01*
X1967742Y1554857D02*
X1966964Y1555635D01*
X1977742Y1560655D02*
X1976964Y1559877D01*
X1971943Y1560655D02*
X1972721Y1559877D01*
X1971943Y1554857D02*
X1972721Y1555635D01*
X1977742Y1554857D02*
X1976964Y1555635D01*
X1987742Y1560655D02*
X1986964Y1559877D01*
X1981943Y1560655D02*
X1982721Y1559877D01*
X1981943Y1554857D02*
X1982721Y1555635D01*
X1987742Y1554857D02*
X1986964Y1555635D01*
X1997742Y1560655D02*
X1996964Y1559877D01*
X1991943Y1560655D02*
X1992721Y1559877D01*
X1991943Y1554857D02*
X1992721Y1555635D01*
X1997742Y1554857D02*
X1996964Y1555635D01*
X2007742Y1560655D02*
X2006964Y1559877D01*
X2001943Y1560655D02*
X2002721Y1559877D01*
X2001943Y1554857D02*
X2002721Y1555635D01*
X2007742Y1554857D02*
X2006964Y1555635D01*
X2017742Y1560655D02*
X2016964Y1559877D01*
X2011943Y1560655D02*
X2012721Y1559877D01*
X2011943Y1554857D02*
X2012721Y1555635D01*
X2017742Y1554857D02*
X2016964Y1555635D01*
X2027742Y1560655D02*
X2026964Y1559877D01*
X2021943Y1560655D02*
X2022721Y1559877D01*
X2021943Y1554857D02*
X2022721Y1555635D01*
X2027742Y1554857D02*
X2026964Y1555635D01*
X2037742Y1560655D02*
X2036964Y1559877D01*
X2031943Y1560655D02*
X2032721Y1559877D01*
X2031943Y1554857D02*
X2032721Y1555635D01*
X2037742Y1554857D02*
X2036964Y1555635D01*
X2047742Y1560655D02*
X2046964Y1559877D01*
X2041943Y1560655D02*
X2042721Y1559877D01*
X2041943Y1554857D02*
X2042721Y1555635D01*
X2047742Y1554857D02*
X2046964Y1555635D01*
X2057742Y1560655D02*
X2056964Y1559877D01*
X2051943Y1560655D02*
X2052721Y1559877D01*
X2051943Y1554857D02*
X2052721Y1555635D01*
X2057742Y1554857D02*
X2056964Y1555635D01*
X2067742Y1560655D02*
X2066964Y1559877D01*
X2061943Y1560655D02*
X2062721Y1559877D01*
X2061943Y1554857D02*
X2062721Y1555635D01*
X2067742Y1554857D02*
X2066964Y1555635D01*
X2077742Y1560655D02*
X2076964Y1559877D01*
X2071943Y1560655D02*
X2072721Y1559877D01*
X2071943Y1554857D02*
X2072721Y1555635D01*
X2077742Y1554857D02*
X2076964Y1555635D01*
X2087742Y1560655D02*
X2086964Y1559877D01*
X2081943Y1560655D02*
X2082721Y1559877D01*
X2081943Y1554857D02*
X2082721Y1555635D01*
X2087742Y1554857D02*
X2086964Y1555635D01*
X2097742Y1560655D02*
X2096964Y1559877D01*
X2091943Y1560655D02*
X2092721Y1559877D01*
X2091943Y1554857D02*
X2092721Y1555635D01*
X2097742Y1554857D02*
X2096964Y1555635D01*
X2107742Y1560655D02*
X2106964Y1559877D01*
X2101943Y1560655D02*
X2102721Y1559877D01*
X2101943Y1554857D02*
X2102721Y1555635D01*
X2107742Y1554857D02*
X2106964Y1555635D01*
X2117742Y1560655D02*
X2116964Y1559877D01*
X2111943Y1560655D02*
X2112721Y1559877D01*
X2111943Y1554857D02*
X2112721Y1555635D01*
X2117742Y1554857D02*
X2116964Y1555635D01*
X2127742Y1560655D02*
X2126964Y1559877D01*
X2121943Y1560655D02*
X2122721Y1559877D01*
X2121943Y1554857D02*
X2122721Y1555635D01*
X2127742Y1554857D02*
X2126964Y1555635D01*
X2137742Y1560655D02*
X2136964Y1559877D01*
X2131943Y1560655D02*
X2132721Y1559877D01*
X2131943Y1554857D02*
X2132721Y1555635D01*
X2137742Y1554857D02*
X2136964Y1555635D01*
X2147742Y1560655D02*
X2146964Y1559877D01*
X2141943Y1560655D02*
X2142721Y1559877D01*
X2141943Y1554857D02*
X2142721Y1555635D01*
X2147742Y1554857D02*
X2146964Y1555635D01*
X2157742Y1560655D02*
X2156964Y1559877D01*
X2151943Y1560655D02*
X2152721Y1559877D01*
X2151943Y1554857D02*
X2152721Y1555635D01*
X2157742Y1554857D02*
X2156964Y1555635D01*
X1847742Y1647269D02*
X1846964Y1646491D01*
X1841943Y1647269D02*
X1842721Y1646491D01*
X1841943Y1641471D02*
X1842721Y1642249D01*
X1847742Y1641471D02*
X1846964Y1642249D01*
X1857742Y1647269D02*
X1856964Y1646491D01*
X1851943Y1647269D02*
X1852721Y1646491D01*
X1851943Y1641471D02*
X1852721Y1642249D01*
X1857742Y1641471D02*
X1856964Y1642249D01*
X1867742Y1647269D02*
X1866964Y1646491D01*
X1861943Y1647269D02*
X1862721Y1646491D01*
X1861943Y1641471D02*
X1862721Y1642249D01*
X1867742Y1641471D02*
X1866964Y1642249D01*
X1877742Y1647269D02*
X1876964Y1646491D01*
X1871943Y1647269D02*
X1872721Y1646491D01*
X1871943Y1641471D02*
X1872721Y1642249D01*
X1877742Y1641471D02*
X1876964Y1642249D01*
X1887742Y1647269D02*
X1886964Y1646491D01*
X1881943Y1647269D02*
X1882721Y1646491D01*
X1881943Y1641471D02*
X1882721Y1642249D01*
X1887742Y1641471D02*
X1886964Y1642249D01*
X1897742Y1647269D02*
X1896964Y1646491D01*
X1891943Y1647269D02*
X1892721Y1646491D01*
X1891943Y1641471D02*
X1892721Y1642249D01*
X1897742Y1641471D02*
X1896964Y1642249D01*
X1907742Y1647269D02*
X1906964Y1646491D01*
X1901943Y1647269D02*
X1902721Y1646491D01*
X1901943Y1641471D02*
X1902721Y1642249D01*
X1907742Y1641471D02*
X1906964Y1642249D01*
X1917742Y1647269D02*
X1916964Y1646491D01*
X1911943Y1647269D02*
X1912721Y1646491D01*
X1911943Y1641471D02*
X1912721Y1642249D01*
X1917742Y1641471D02*
X1916964Y1642249D01*
X1927742Y1647269D02*
X1926964Y1646491D01*
X1921943Y1647269D02*
X1922721Y1646491D01*
X1921943Y1641471D02*
X1922721Y1642249D01*
X1927742Y1641471D02*
X1926964Y1642249D01*
X1937742Y1647269D02*
X1936964Y1646491D01*
X1931943Y1647269D02*
X1932721Y1646491D01*
X1931943Y1641471D02*
X1932721Y1642249D01*
X1937742Y1641471D02*
X1936964Y1642249D01*
X1947742Y1647269D02*
X1946964Y1646491D01*
X1941943Y1647269D02*
X1942721Y1646491D01*
X1941943Y1641471D02*
X1942721Y1642249D01*
X1947742Y1641471D02*
X1946964Y1642249D01*
X1957742Y1647269D02*
X1956964Y1646491D01*
X1951943Y1647269D02*
X1952721Y1646491D01*
X1951943Y1641471D02*
X1952721Y1642249D01*
X1957742Y1641471D02*
X1956964Y1642249D01*
X1967742Y1647269D02*
X1966964Y1646491D01*
X1961943Y1647269D02*
X1962721Y1646491D01*
X1961943Y1641471D02*
X1962721Y1642249D01*
X1967742Y1641471D02*
X1966964Y1642249D01*
X1977742Y1647269D02*
X1976964Y1646491D01*
X1971943Y1647269D02*
X1972721Y1646491D01*
X1971943Y1641471D02*
X1972721Y1642249D01*
X1977742Y1641471D02*
X1976964Y1642249D01*
X1987742Y1647269D02*
X1986964Y1646491D01*
X1981943Y1647269D02*
X1982721Y1646491D01*
X1981943Y1641471D02*
X1982721Y1642249D01*
X1987742Y1641471D02*
X1986964Y1642249D01*
X1997742Y1647269D02*
X1996964Y1646491D01*
X1991943Y1647269D02*
X1992721Y1646491D01*
X1991943Y1641471D02*
X1992721Y1642249D01*
X1997742Y1641471D02*
X1996964Y1642249D01*
X2007742Y1647269D02*
X2006964Y1646491D01*
X2001943Y1647269D02*
X2002721Y1646491D01*
X2001943Y1641471D02*
X2002721Y1642249D01*
X2007742Y1641471D02*
X2006964Y1642249D01*
X2017742Y1647269D02*
X2016964Y1646491D01*
X2011943Y1647269D02*
X2012721Y1646491D01*
X2011943Y1641471D02*
X2012721Y1642249D01*
X2017742Y1641471D02*
X2016964Y1642249D01*
X2027742Y1647269D02*
X2026964Y1646491D01*
X2021943Y1647269D02*
X2022721Y1646491D01*
X2021943Y1641471D02*
X2022721Y1642249D01*
X2027742Y1641471D02*
X2026964Y1642249D01*
X2037742Y1647269D02*
X2036964Y1646491D01*
X2031943Y1647269D02*
X2032721Y1646491D01*
X2031943Y1641471D02*
X2032721Y1642249D01*
X2037742Y1641471D02*
X2036964Y1642249D01*
X2047742Y1647269D02*
X2046964Y1646491D01*
X2041943Y1647269D02*
X2042721Y1646491D01*
X2041943Y1641471D02*
X2042721Y1642249D01*
X2047742Y1641471D02*
X2046964Y1642249D01*
X2057742Y1647269D02*
X2056964Y1646491D01*
X2051943Y1647269D02*
X2052721Y1646491D01*
X2051943Y1641471D02*
X2052721Y1642249D01*
X2057742Y1641471D02*
X2056964Y1642249D01*
X2067742Y1647269D02*
X2066964Y1646491D01*
X2061943Y1647269D02*
X2062721Y1646491D01*
X2061943Y1641471D02*
X2062721Y1642249D01*
X2067742Y1641471D02*
X2066964Y1642249D01*
X2077742Y1647269D02*
X2076964Y1646491D01*
X2071943Y1647269D02*
X2072721Y1646491D01*
X2071943Y1641471D02*
X2072721Y1642249D01*
X2077742Y1641471D02*
X2076964Y1642249D01*
X2087742Y1647269D02*
X2086964Y1646491D01*
X2081943Y1647269D02*
X2082721Y1646491D01*
X2081943Y1641471D02*
X2082721Y1642249D01*
X2087742Y1641471D02*
X2086964Y1642249D01*
X2097742Y1647269D02*
X2096964Y1646491D01*
X2091943Y1647269D02*
X2092721Y1646491D01*
X2091943Y1641471D02*
X2092721Y1642249D01*
X2097742Y1641471D02*
X2096964Y1642249D01*
X2107742Y1647269D02*
X2106964Y1646491D01*
X2101943Y1647269D02*
X2102721Y1646491D01*
X2101943Y1641471D02*
X2102721Y1642249D01*
X2107742Y1641471D02*
X2106964Y1642249D01*
X2117742Y1647269D02*
X2116964Y1646491D01*
X2111943Y1647269D02*
X2112721Y1646491D01*
X2111943Y1641471D02*
X2112721Y1642249D01*
X2117742Y1641471D02*
X2116964Y1642249D01*
X2127742Y1647269D02*
X2126964Y1646491D01*
X2121943Y1647269D02*
X2122721Y1646491D01*
X2121943Y1641471D02*
X2122721Y1642249D01*
X2127742Y1641471D02*
X2126964Y1642249D01*
X2137742Y1647269D02*
X2136964Y1646491D01*
X2131943Y1647269D02*
X2132721Y1646491D01*
X2131943Y1641471D02*
X2132721Y1642249D01*
X2137742Y1641471D02*
X2136964Y1642249D01*
X2147742Y1647269D02*
X2146964Y1646491D01*
X2141943Y1647269D02*
X2142721Y1646491D01*
X2141943Y1641471D02*
X2142721Y1642249D01*
X2147742Y1641471D02*
X2146964Y1642249D01*
G74*
X0Y0D02*
M02*
