*
*
G04 PADS 9.3.1 Build Number: 456998 generated Gerber (RS-274-X) file*
G04 PC Version=2.1*
*
%IN "Klytus_Routed.pcb"*%
*
%MOIN*%
*
%FSLAX35Y35*%
*
*
*
*
G04 PC Standard Apertures*
*
*
G04 Thermal Relief Aperture macro.*
%AMTER*
1,1,$1,0,0*
1,0,$1-$2,0,0*
21,0,$3,$4,0,0,45*
21,0,$3,$4,0,0,135*
%
*
*
G04 Annular Aperture macro.*
%AMANN*
1,1,$1,0,0*
1,0,$2,0,0*
%
*
*
G04 Odd Aperture macro.*
%AMODD*
1,1,$1,0,0*
1,0,$1-0.005,0,0*
%
*
*
G04 PC Custom Aperture Macros*
*
*
*
*
*
*
G04 PC Aperture Table*
*
%ADD010C,0.001*%
%ADD011R,0.06X0.06*%
%ADD012C,0.06*%
%ADD013C,0.008*%
*
*
*
*
G04 PC Circuitry*
G04 Layer Name Klytus_Routed.pcb - circuitry*
%LPD*%
*
*
G04 PC Custom Flashes*
G04 Layer Name Klytus_Routed.pcb - flashes*
%LPD*%
*
*
G04 PC Circuitry*
G04 Layer Name Klytus_Routed.pcb - circuitry*
%LPD*%
*
G54D10*
G54D11*
G01X409843Y149370D03*
Y62756D03*
X410236Y25512D03*
Y206614D03*
G54D12*
X399843Y149370D03*
X389843D03*
X379843D03*
X369843D03*
X359843D03*
X349843D03*
X339843D03*
X329843D03*
X319843D03*
X309843D03*
X299843D03*
X289843D03*
X279843D03*
X269843D03*
X259843D03*
X249843D03*
X239843D03*
X229843D03*
X219843D03*
X209843D03*
X199843D03*
X189843D03*
X179843D03*
X169843D03*
X159843D03*
X149843D03*
X139843D03*
X129843D03*
X119843D03*
X109843D03*
X99843D03*
Y139370D03*
X109843D03*
X119843D03*
X129843D03*
X139843D03*
X149843D03*
X159843D03*
X169843D03*
X179843D03*
X189843D03*
X199843D03*
X209843D03*
X219843D03*
X229843D03*
X239843D03*
X249843D03*
X259843D03*
X269843D03*
X279843D03*
X289843D03*
X299843D03*
X309843D03*
X319843D03*
X329843D03*
X339843D03*
X349843D03*
X359843D03*
X369843D03*
X379843D03*
X389843D03*
X399843D03*
X409843D03*
X100000Y159449D03*
X110000D03*
X120000D03*
X130000D03*
X140000D03*
X150000D03*
X160000D03*
X170000D03*
X180000D03*
X190000D03*
X200000D03*
X210000D03*
X220000D03*
X230000D03*
X240000D03*
X250000D03*
X260000D03*
X270000D03*
X280000D03*
X290000D03*
X300000D03*
X310000D03*
X320000D03*
X330000D03*
X340000D03*
X350000D03*
X360000D03*
X370000D03*
X380000D03*
X390000D03*
X400000D03*
X410000D03*
X399843Y62756D03*
X389843D03*
X379843D03*
X369843D03*
X359843D03*
X349843D03*
X339843D03*
X329843D03*
X319843D03*
X309843D03*
X299843D03*
X289843D03*
X279843D03*
X269843D03*
X259843D03*
X249843D03*
X239843D03*
X229843D03*
X219843D03*
X209843D03*
X199843D03*
X189843D03*
X179843D03*
X169843D03*
X159843D03*
X149843D03*
X139843D03*
X129843D03*
X119843D03*
X109843D03*
X99843D03*
Y52756D03*
X109843D03*
X119843D03*
X129843D03*
X139843D03*
X149843D03*
X159843D03*
X169843D03*
X179843D03*
X189843D03*
X199843D03*
X209843D03*
X219843D03*
X229843D03*
X239843D03*
X249843D03*
X259843D03*
X269843D03*
X279843D03*
X289843D03*
X299843D03*
X309843D03*
X319843D03*
X329843D03*
X339843D03*
X349843D03*
X359843D03*
X369843D03*
X379843D03*
X389843D03*
X399843D03*
X409843D03*
X100000Y72835D03*
X110000D03*
X120000D03*
X130000D03*
X140000D03*
X150000D03*
X160000D03*
X170000D03*
X180000D03*
X190000D03*
X200000D03*
X210000D03*
X220000D03*
X230000D03*
X240000D03*
X250000D03*
X260000D03*
X270000D03*
X280000D03*
X290000D03*
X300000D03*
X310000D03*
X320000D03*
X330000D03*
X340000D03*
X350000D03*
X360000D03*
X370000D03*
X380000D03*
X390000D03*
X400000D03*
X410000D03*
X400236Y25512D03*
X390236D03*
X380236D03*
X370236D03*
X360236D03*
X350236D03*
X340236D03*
X330236D03*
X320236D03*
X310236D03*
X300236D03*
X290236D03*
X280236D03*
X270236D03*
X260236D03*
X250236D03*
X240236D03*
X230236D03*
X220236D03*
X210236D03*
X200236D03*
X190236D03*
X180236D03*
X170236D03*
X160236D03*
X150236D03*
X140236D03*
X130236D03*
X120236D03*
X110236D03*
X100236D03*
Y15512D03*
X110236D03*
X120236D03*
X130236D03*
X140236D03*
X150236D03*
X160236D03*
X170236D03*
X180236D03*
X190236D03*
X200236D03*
X210236D03*
X220236D03*
X230236D03*
X240236D03*
X250236D03*
X260236D03*
X270236D03*
X280236D03*
X290236D03*
X300236D03*
X310236D03*
X320236D03*
X330236D03*
X340236D03*
X350236D03*
X360236D03*
X370236D03*
X380236D03*
X390236D03*
X400236D03*
X410236D03*
X100236Y5512D03*
X110236D03*
X120236D03*
X130236D03*
X140236D03*
X150236D03*
X160236D03*
X170236D03*
X180236D03*
X190236D03*
X200236D03*
X210236D03*
X220236D03*
X230236D03*
X240236D03*
X250236D03*
X260236D03*
X270236D03*
X280236D03*
X290236D03*
X300236D03*
X310236D03*
X320236D03*
X330236D03*
X340236D03*
X350236D03*
X360236D03*
X370236D03*
X380236D03*
X390236D03*
X400236D03*
X410236D03*
X400236Y206614D03*
X390236D03*
X380236D03*
X370236D03*
X360236D03*
X350236D03*
X340236D03*
X330236D03*
X320236D03*
X310236D03*
X300236D03*
X290236D03*
X280236D03*
X270236D03*
X260236D03*
X250236D03*
X240236D03*
X230236D03*
X220236D03*
X210236D03*
X200236D03*
X190236D03*
X180236D03*
X170236D03*
X160236D03*
X150236D03*
X140236D03*
X130236D03*
X120236D03*
X110236D03*
X100236D03*
Y196614D03*
X110236D03*
X120236D03*
X130236D03*
X140236D03*
X150236D03*
X160236D03*
X170236D03*
X180236D03*
X190236D03*
X200236D03*
X210236D03*
X220236D03*
X230236D03*
X240236D03*
X250236D03*
X260236D03*
X270236D03*
X280236D03*
X290236D03*
X300236D03*
X310236D03*
X320236D03*
X330236D03*
X340236D03*
X350236D03*
X360236D03*
X370236D03*
X380236D03*
X390236D03*
X400236D03*
X410236D03*
X100236Y186614D03*
X110236D03*
X120236D03*
X130236D03*
X140236D03*
X150236D03*
X160236D03*
X170236D03*
X180236D03*
X190236D03*
X200236D03*
X210236D03*
X220236D03*
X230236D03*
X240236D03*
X250236D03*
X260236D03*
X270236D03*
X280236D03*
X290236D03*
X300236D03*
X310236D03*
X320236D03*
X330236D03*
X340236D03*
X350236D03*
X360236D03*
X370236D03*
X380236D03*
X390236D03*
X400236D03*
X410236D03*
G54D13*
X99843Y52756D02*
Y56927D01*
X104000Y61085*
Y102852*
X109843Y52756D02*
Y56927D01*
X114000Y61085*
Y102852*
X119843Y52756D02*
Y56927D01*
X124000Y61085*
Y102852*
X129843Y52756D02*
Y56927D01*
X134000Y61085*
Y80495*
X139843Y52756D02*
Y56927D01*
X144000Y61085*
Y89563*
X149843Y52756D02*
Y56927D01*
X154000Y61085*
Y91353*
X159843Y52756D02*
Y56927D01*
X164000Y61085*
Y91353*
X169843Y52756D02*
Y56927D01*
X174000Y61085*
Y91353*
X179843Y52756D02*
Y56927D01*
X184000Y61085*
Y91353*
X189843Y52756D02*
Y56927D01*
X194000Y61085*
Y91353*
X199843Y52756D02*
Y56927D01*
X204000Y61085*
Y91353*
X209843Y52756D02*
Y56927D01*
X214000Y61085*
Y91353*
X219843Y52756D02*
Y56927D01*
X224000Y61085*
Y91353*
X229843Y52756D02*
Y56927D01*
X234000Y61085*
Y91353*
X239843Y52756D02*
Y56927D01*
X244000Y61085*
Y91353*
X249843Y52756D02*
Y56927D01*
X254000Y61085*
Y91353*
X259843Y52756D02*
Y56927D01*
X264000Y61085*
Y91353*
X269843Y52756D02*
Y56927D01*
X274000Y61085*
Y91353*
X279843Y52756D02*
Y56927D01*
X284000Y61085*
Y102852*
X289843Y52756D02*
Y56927D01*
X294000Y61085*
Y102852*
X299843Y52756D02*
Y56927D01*
X304000Y61085*
Y102852*
X309843Y52756D02*
Y56927D01*
X314000Y61085*
Y102852*
X319843Y52756D02*
Y56927D01*
X324000Y61085*
Y102852*
X329843Y52756D02*
Y56927D01*
X334000Y61085*
Y102852*
X339843Y52756D02*
Y56927D01*
X344000Y61085*
Y102852*
X349843Y52756D02*
Y56927D01*
X354000Y61085*
Y102852*
X359843Y52756D02*
Y56927D01*
X364000Y61085*
Y102852*
X369843Y52756D02*
Y56927D01*
X374000Y61085*
Y102852*
X380000Y48759D02*
Y66753D01*
X379843Y52756D02*
Y56927D01*
X381400Y58485*
X389843Y52756D02*
Y56927D01*
X394000Y61085*
Y102852*
X399843Y52756D02*
Y56927D01*
X404000Y61085*
Y102852*
X409843Y52756D02*
X414000Y58756D01*
Y102852*
X381400Y58485D02*
X384000Y61085D01*
Y102852*
X140000Y72835D02*
Y88020D01*
X135843Y92178*
Y151159*
X150000Y72835D02*
Y91728D01*
X145843Y95886*
Y151159*
X160000Y72835D02*
Y91728D01*
X155843Y95886*
Y151159*
X170000Y72835D02*
Y91728D01*
X165843Y95886*
Y151159*
X180000Y72835D02*
Y91728D01*
X175843Y95886*
Y151159*
X190000Y72835D02*
Y91728D01*
X185843Y95886*
Y151159*
X200000Y72835D02*
Y91728D01*
X195843Y95886*
Y151159*
X210000Y72835D02*
Y91728D01*
X205843Y95886*
Y151159*
X220000Y72835D02*
Y91728D01*
X215843Y95886*
Y151159*
X230000Y72835D02*
Y91728D01*
X225843Y95886*
Y151159*
X240000Y72835D02*
Y91728D01*
X235843Y95886*
Y151159*
X250000Y72835D02*
Y91728D01*
X245843Y95886*
Y151159*
X260000Y72835D02*
Y91728D01*
X255843Y95886*
Y151159*
X270000Y72835D02*
Y91728D01*
X265843Y95886*
Y151159*
X380000Y76835D02*
Y68835D01*
Y66753*
X134000Y80495D02*
X129843Y84652D01*
Y139370*
X135400Y85858D02*
X134339Y86918D01*
Y188339*
X130236Y192443*
Y196614*
X380000Y76835D02*
Y104872D01*
X144000Y89563D02*
X139843Y93721D01*
Y139370*
X145400Y92246D02*
X144339Y93306D01*
Y188339*
X140236Y192443*
Y196614*
X154000Y91353D02*
X149843Y95511D01*
Y139370*
X155400Y93141D02*
X154339Y94202D01*
Y188339*
X150236Y192443*
Y196614*
X164000Y91353D02*
X159843Y95511D01*
Y139370*
X165400Y93141D02*
X164339Y94202D01*
Y188339*
X160236Y192443*
Y196614*
X174000Y91353D02*
X169843Y95511D01*
Y139370*
X175400Y93141D02*
X174339Y94202D01*
Y188339*
X170236Y192443*
Y196614*
X184000Y91353D02*
X179843Y95511D01*
Y139370*
X185400Y93141D02*
X184339Y94202D01*
Y188339*
X180236Y192443*
Y196614*
X194000Y91353D02*
X189843Y95511D01*
Y139370*
X195400Y93141D02*
X194339Y94202D01*
Y188339*
X190236Y192443*
Y196614*
X204000Y91353D02*
X199843Y95511D01*
Y139370*
X205400Y93141D02*
X204339Y94202D01*
Y188339*
X200236Y192443*
Y196614*
X214000Y91353D02*
X209843Y95511D01*
Y139370*
X215400Y93141D02*
X214339Y94202D01*
Y188339*
X210236Y192443*
Y196614*
X224000Y91353D02*
X219843Y95511D01*
Y139370*
X225400Y93141D02*
X224339Y94202D01*
Y188339*
X220236Y192443*
Y196614*
X234000Y91353D02*
X229843Y95511D01*
Y139370*
X235400Y93141D02*
X234339Y94202D01*
Y188339*
X230236Y192443*
Y196614*
X244000Y91353D02*
X239843Y95511D01*
Y139370*
X245400Y93141D02*
X244339Y94202D01*
Y188339*
X240236Y192443*
Y196614*
X254000Y91353D02*
X249843Y95511D01*
Y139370*
X255400Y93141D02*
X254339Y94202D01*
Y188339*
X250236Y192443*
Y196614*
X264000Y91353D02*
X259843Y95511D01*
Y139370*
X265400Y93141D02*
X264339Y94202D01*
Y188339*
X260236Y192443*
Y196614*
X274000Y91353D02*
X269843Y95511D01*
Y139370*
X104000Y102852D02*
X99843Y107010D01*
Y139370*
X114000Y102852D02*
X109843Y107010D01*
Y139370*
X124000Y102852D02*
X119843Y107010D01*
Y139370*
X284000Y102852D02*
X279843Y107010D01*
Y139370*
X294000Y102852D02*
X289843Y107010D01*
Y139370*
X304000Y102852D02*
X299843Y107010D01*
Y139370*
X314000Y102852D02*
X309843Y107010D01*
Y139370*
X324000Y102852D02*
X319843Y107010D01*
Y139370*
X334000Y102852D02*
X329843Y107010D01*
Y139370*
X344000Y102852D02*
X339843Y107010D01*
Y139370*
X354000Y102852D02*
X349843Y107010D01*
Y139370*
X364000Y102852D02*
X359843Y107010D01*
Y139370*
X380000Y104872D02*
Y143367D01*
X374000Y102852D02*
X369843Y107010D01*
Y139370*
X381400Y105452D02*
X379843Y107010D01*
Y139370*
X384000Y102852D02*
X381400Y105452D01*
X394000Y102852D02*
X389843Y107010D01*
Y139370*
X404000Y102852D02*
X399843Y107010D01*
Y139370*
X414000Y102852D02*
X409843Y107010D01*
Y139370*
X380000Y153367D02*
Y145373D01*
Y143367*
X135843Y151159D02*
X140000Y155317D01*
Y159449*
X145843Y151159D02*
X150000Y155317D01*
Y159449*
X155843Y151159D02*
X160000Y155317D01*
Y159449*
X165843Y151159D02*
X170000Y155317D01*
Y159449*
X175843Y151159D02*
X180000Y155317D01*
Y159449*
X185843Y151159D02*
X190000Y155317D01*
Y159449*
X195843Y151159D02*
X200000Y155317D01*
Y159449*
X205843Y151159D02*
X210000Y155317D01*
Y159449*
X215843Y151159D02*
X220000Y155317D01*
Y159449*
X225843Y151159D02*
X230000Y155317D01*
Y159449*
X235843Y151159D02*
X240000Y155317D01*
Y159449*
X245843Y151159D02*
X250000Y155317D01*
Y159449*
X255843Y151159D02*
X260000Y155317D01*
Y159449*
X265843Y151159D02*
X270000Y155317D01*
Y159449*
X380000Y163449D02*
Y155449D01*
Y153367*
Y163449D02*
Y182621D01*
X130236Y15512D02*
Y19683D01*
X135400Y24847*
Y85858*
X120236Y15512D02*
Y19683D01*
X125400Y24847*
Y187279*
X110236Y15512D02*
Y19683D01*
X115400Y24847*
Y187279*
X100236Y15512D02*
Y19683D01*
X105400Y24847*
Y187279*
X210236Y15512D02*
Y19683D01*
X215400Y24847*
Y93141*
X200236Y15512D02*
Y19683D01*
X205400Y24847*
Y93141*
X190236Y15512D02*
Y19683D01*
X195400Y24847*
Y93141*
X180236Y15512D02*
Y19683D01*
X185400Y24847*
Y93141*
X170236Y15512D02*
Y19683D01*
X175400Y24847*
Y93141*
X160236Y15512D02*
Y19683D01*
X165400Y24847*
Y93141*
X150236Y15512D02*
Y19683D01*
X155400Y24847*
Y93141*
X140236Y15512D02*
Y19683D01*
X145400Y24847*
Y92246*
X290236Y15512D02*
Y19683D01*
X295400Y24847*
Y187279*
X280236Y15512D02*
Y19683D01*
X285400Y24847*
Y187279*
X270236Y15512D02*
Y19683D01*
X275400Y24847*
Y187279*
X260236Y15512D02*
Y19683D01*
X265400Y24847*
Y93141*
X250236Y15512D02*
Y19683D01*
X255400Y24847*
Y93141*
X240236Y15512D02*
Y19683D01*
X245400Y24847*
Y93141*
X230236Y15512D02*
Y19683D01*
X235400Y24847*
Y93141*
X220236Y15512D02*
Y19683D01*
X225400Y24847*
Y93141*
X345400Y24847D02*
Y187279D01*
X340236Y192443*
Y196614*
X335400Y24847D02*
Y187279D01*
X330236Y192443*
Y196614*
X370236Y15512D02*
Y19683D01*
X375400Y24847*
Y187279*
X360236Y15512D02*
Y19683D01*
X365400Y24847*
Y187279*
X350236Y15512D02*
Y19683D01*
X355400Y24847*
Y187279*
X340236Y15512D02*
Y19683D01*
X345400Y24847*
X330236Y15512D02*
Y19683D01*
X335400Y24847*
X320236Y15512D02*
Y19683D01*
X325400Y24847*
Y187279*
X310236Y15512D02*
Y19683D01*
X315400Y24847*
Y187279*
X300236Y15512D02*
Y19683D01*
X305400Y24847*
Y187279*
X380236Y21512D02*
Y24611D01*
X380000Y24847*
Y29505*
Y48759*
X410236Y15512D02*
X415400Y20676D01*
Y187279*
X400236Y15512D02*
Y19683D01*
X405400Y24847*
Y187279*
X390236Y15512D02*
Y19683D01*
X395400Y24847*
Y187279*
X380236Y15512D02*
Y21512D01*
X125400Y187279D02*
X120236Y192443D01*
Y196614*
X115400Y187279D02*
X110236Y192443D01*
Y196614*
X105400Y187279D02*
X100236Y192443D01*
Y196614*
X295400Y187279D02*
X290236Y192443D01*
Y196614*
X285400Y187279D02*
X280236Y192443D01*
Y196614*
X275400Y187279D02*
X270236Y192443D01*
Y196614*
X375400Y187279D02*
X370236Y192443D01*
Y196614*
X365400Y187279D02*
X360236Y192443D01*
Y196614*
X355400Y187279D02*
X350236Y192443D01*
Y196614*
X325400Y187279D02*
X320236Y192443D01*
Y196614*
X315400Y187279D02*
X310236Y192443D01*
Y196614*
X305400Y187279D02*
X300236Y192443D01*
Y196614*
X380236Y190614D02*
Y196614D01*
X380000Y182621D02*
Y187279D01*
X380236Y187515*
Y190614*
X415400Y187279D02*
X410236Y192443D01*
Y196614*
X405400Y187279D02*
X400236Y192443D01*
Y196614*
X395400Y187279D02*
X390236Y192443D01*
Y196614*
X0Y0D02*
M02*
