%
T1C.035F197S55
X010024Y002551
X010024Y001551
X010024Y000551
X011024Y002551
X011024Y001551
X011024Y000551
X012024Y002551
X012024Y001551
X012024Y000551
X013024Y002551
X013024Y001551
X013024Y000551
X014024Y002551
X014024Y001551
X014024Y000551
X015024Y002551
X015024Y001551
X015024Y000551
X016024Y002551
X016024Y001551
X016024Y000551
X017024Y002551
X017024Y001551
X017024Y000551
X018024Y001551
X018024Y002551
X018024Y000551
X019024Y002551
X019024Y001551
X019024Y000551
X020024Y002551
X020024Y001551
X020024Y000551
X021024Y001551
X021024Y002551
X021024Y000551
X022024Y002551
X022024Y001551
X022024Y000551
X023024Y001551
X023024Y002551
X023024Y000551
X024024Y001551
X024024Y002551
X024024Y000551
X025024Y001551
X025024Y002551
X025024Y000551
X026024Y001551
X026024Y002551
X026024Y000551
X027024Y002551
X027024Y001551
X027024Y000551
X028024Y002551
X028024Y001551
X028024Y000551
X029024Y001551
X029024Y002551
X029024Y000551
X030024Y002551
X030024Y001551
X030024Y000551
X031024Y002551
X031024Y001551
X031024Y000551
X032024Y001551
X032024Y002551
X032024Y000551
X033024Y002551
X033024Y001551
X033024Y000551
X034024Y002551
X034024Y001551
X034024Y000551
X035024Y002551
X035024Y001551
X035024Y000551
X036024Y001551
X036024Y002551
X036024Y000551
X037024Y001551
X037024Y002551
X037024Y000551
X038024Y002551
X038024Y001551
X038024Y000551
X039024Y001551
X039024Y002551
X039024Y000551
X040024Y001551
X040024Y002551
X040024Y000551
X041024Y002551
X041024Y001551
X041024Y000551
X040984Y005276
X039984Y005276
X038984Y005276
X037984Y005276
X036984Y005276
X035984Y005276
X034984Y005276
X033984Y005276
X032984Y005276
X031984Y005276
X030984Y005276
X029984Y005276
X028984Y005276
X027984Y005276
X026984Y005276
X025984Y005276
X024984Y005276
X023984Y005276
X022984Y005276
X021984Y005276
X020984Y005276
X019984Y005276
X018984Y005276
X017984Y005276
X016984Y005276
X015984Y005276
X014984Y005276
X013984Y005276
X012984Y005276
X011984Y005276
X010984Y005276
X009984Y005276
X009984Y006276
X01Y007283
X010984Y006276
X011Y007283
X011984Y006276
X012Y007283
X012984Y006276
X013Y007283
X013984Y006276
X014Y007283
X014984Y006276
X015Y007283
X015984Y006276
X016Y007283
X016984Y006276
X017Y007283
X017984Y006276
X018Y007283
X018984Y006276
X019Y007283
X019984Y006276
X02Y007283
X020984Y006276
X021Y007283
X021984Y006276
X022Y007283
X022984Y006276
X023Y007283
X023984Y006276
X024Y007283
X024984Y006276
X025Y007283
X025984Y006276
X026Y007283
X026984Y006276
X027Y007283
X027984Y006276
X028Y007283
X028984Y006276
X029Y007283
X029984Y006276
X03Y007283
X030984Y006276
X031Y007283
X031984Y006276
X032Y007283
X032984Y006276
X033Y007283
X033984Y006276
X034Y007283
X034984Y006276
X035Y007283
X035984Y006276
X036Y007283
X036984Y006276
X037Y007283
X037984Y006276
X038Y007283
X038984Y006276
X039Y007283
X039984Y006276
X04Y007283
X040984Y006276
X041Y007283
X040984Y014937
X040984Y013937
X039984Y013937
X039984Y014937
X038984Y013937
X038984Y014937
X037984Y013937
X037984Y014937
X036984Y013937
X036984Y014937
X035984Y013937
X035984Y014937
X034984Y013937
X034984Y014937
X033984Y013937
X033984Y014937
X032984Y013937
X032984Y014937
X031984Y013937
X031984Y014937
X030984Y013937
X030984Y014937
X029984Y013937
X029984Y014937
X028984Y013937
X028984Y014937
X027984Y013937
X027984Y014937
X026984Y013937
X026984Y014937
X025984Y013937
X025984Y014937
X024984Y013937
X024984Y014937
X023984Y013937
X023984Y014937
X022984Y013937
X022984Y014937
X021984Y013937
X021984Y014937
X020984Y013937
X020984Y014937
X019984Y013937
X019984Y014937
X018984Y014937
X018984Y013937
X017984Y013937
X017984Y014937
X016984Y014937
X016984Y013937
X015984Y013937
X015984Y014937
X014984Y014937
X014984Y013937
X013984Y013937
X013984Y014937
X012984Y013937
X012984Y014937
X011984Y013937
X011984Y014937
X010984Y013937
X010984Y014937
X009984Y013937
X009984Y014937
X01Y015945
X011Y015945
X012Y015945
X013Y015945
X014Y015945
X015Y015945
X016Y015945
X017Y015945
X018Y015945
X019Y015945
X02Y015945
X021Y015945
X022Y015945
X023Y015945
X024Y015945
X025Y015945
X026Y015945
X027Y015945
X028Y015945
X029Y015945
X03Y015945
X031Y015945
X032Y015945
X033Y015945
X034Y015945
X035Y015945
X036Y015945
X037Y015945
X038Y015945
X039Y015945
X04Y015945
X041Y015945
X041024Y019661
X041024Y018661
X040024Y019661
X040024Y018661
X039024Y019661
X039024Y018661
X038024Y019661
X038024Y018661
X037024Y019661
X037024Y018661
X036024Y019661
X036024Y018661
X035024Y019661
X035024Y018661
X034024Y019661
X034024Y018661
X033024Y019661
X033024Y018661
X032024Y019661
X032024Y018661
X031024Y019661
X031024Y018661
X030024Y018661
X030024Y019661
X029024Y018661
X029024Y019661
X028024Y018661
X028024Y019661
X027024Y018661
X027024Y019661
X026024Y018661
X026024Y019661
X025024Y018661
X025024Y019661
X024024Y018661
X024024Y019661
X023024Y018661
X023024Y019661
X022024Y018661
X022024Y019661
X021024Y018661
X021024Y019661
X020024Y018661
X020024Y019661
X019024Y018661
X019024Y019661
X018024Y018661
X018024Y019661
X017024Y018661
X017024Y019661
X016024Y018661
X016024Y019661
X015024Y018661
X015024Y019661
X014024Y019661
X014024Y018661
X013024Y018661
X013024Y019661
X012024Y018661
X012024Y019661
X011024Y018661
X011024Y019661
X010024Y018661
X010024Y019661
X010024Y020661
X011024Y020661
X012024Y020661
X013024Y020661
X014024Y020661
X015024Y020661
X016024Y020661
X017024Y020661
X018024Y020661
X019024Y020661
X020024Y020661
X021024Y020661
X022024Y020661
X023024Y020661
X024024Y020661
X025024Y020661
X026024Y020661
X027024Y020661
X028024Y020661
X029024Y020661
X030024Y020661
X031024Y020661
X032024Y020661
X033024Y020661
X034024Y020661
X035024Y020661
X036024Y020661
X037024Y020661
X038024Y020661
X039024Y020661
X040024Y020661
X041024Y020661
M30
